<?xml version="1.0" encoding="UTF-8"?>
<svg width="666.67" height="666.67" version="1.1" viewBox="0 0 666.67 666.67" xmlns="http://www.w3.org/2000/svg">
 <rect x="-.0016479" y="-.0016479" width="666.67" height="666.67" fill="#1f2283"/>
 <path d="m552.04 485-0.0424-14.333h-128.52l10.85-7.4232c12.483-8.5402 32.316-26.761 39.775-36.542l5.1103-6.7011h72.701l0.37564-15.148 0.37566-15.148 23.333 26.596c12.833 14.628 23.333 27.101 23.333 27.718 0 0.61736-9.9 12.371-22 26.119-12.1 13.748-22.731 25.942-23.624 27.097-1.3069 1.6896-1.6326-0.70032-1.6667-12.233zm-461.04-25.759c6.4167-6.2435 11.667-11.698 11.667-12.122 0-0.42357-5.4291-6.6586-12.065-13.856l-12.065-13.085 129.06-0.53822c143.22-0.59728 137.65-0.26096 159.49-9.6226 16.891-7.2404 24.863-12.634 37.575-25.42 17.179-17.278 27.513-36.335 32.086-59.166 3.3141-16.546 2.1383-40.879-2.7106-56.098-13.439-42.18-46.513-72.321-88.611-80.753-8.5352-1.7096-15.265-2.0786-28-1.5353-19.826 0.84584-30.03 3.4928-47.714 12.377-22.597 11.352-39.419 28.493-50.944 51.911-8.5426 17.357-10.933 27.024-11.705 47.333-0.51603 13.574-0.12734 18.959 2.0948 29.02 4.836 21.896 17.174 44.086 32.62 58.669l7.4379 7.022-69.887-0.71072-7.6314-15.333c-12.749-25.615-17.63-46.832-17.484-76 0.39852-79.925 56.008-147.32 135.47-164.19 17.574-3.7299 48.179-3.9966 64.312-0.56048 69.281 14.757 119.79 64.867 134.17 133.1 4.0655 19.3 4.0014 48.314-0.14789 66.95-15.202 68.278-65.634 118.07-133.63 131.93-8.9432 1.8233-27.46 2.0904-142.67 2.0581l-132.39-0.0372z" fill="#fff" stroke-width="1.3333"/>
</svg>
