<?xml version="1.0" encoding="UTF-8"?>
<svg width="666.67" height="666.67" version="1.1" viewBox="0 0 666.67 666.67" xmlns="http://www.w3.org/2000/svg">
 <rect width="666.67" height="666.67" fill="#1f2283"/>
 <path d="m320 538.25c-37.63-25.871-64.498-48.495-81.024-68.226-28.001-33.431-47.462-72.823-66.213-134.03-9.3083-30.381-13.137-47.857-17.967-82-6.9183-48.906-7.0748-51.333-3.3097-51.333 2.5531 0 37.242-12.041 53.674-18.631 29.906-11.994 42.966-19.214 61.507-34.005 14.104-11.251 52.712-46.782 62.857-57.848l6.5565-7.1514 21.626 21.154c37.101 36.29 59.644 54.428 80.96 65.137 13.011 6.5371 40.435 17.452 67 26.668 14.266 4.949 18.333 6.884 18.333 8.7227 0 5.7263-8.379 64.547-11.406 80.074-8.5467 43.833-29.284 103.66-47.098 135.88-16.595 30.015-28.003 45.117-50.374 66.687-19.554 18.854-73.219 58.736-78.832 58.585-1.2594-0.0339-8.5898-4.3929-16.29-9.6867zm32.166-30.771c51.106-36.399 69.307-54.545 90.032-89.76 18.204-30.931 37.412-84.01 45.737-126.39 3.6992-18.831 11.191-69.984 10.37-70.805-0.20744-0.20745-11.795-4.5385-25.751-9.6246-56.629-20.639-70.162-29.31-117.23-75.116l-18.714-18.212-16.639 16.048c-19.43 18.741-38.171 35.177-51.306 44.998-15.812 11.822-33.172 19.595-88.333 39.549-6.9146 2.5013-6.8316 1.2874-2.2796 33.324 5.2991 37.295 10.426 60.284 20.034 89.825 24.206 74.43 48.393 110.97 98.234 148.39 20.231 15.19 38.413 27.626 40.39 27.626 0.89149 0 7.846-4.4337 15.455-9.8527zm-37.5-29.472c-41.825-30.128-61.673-51.77-78.675-85.789-19.688-39.392-32.204-83.035-39.239-136.83-3.2214-24.63-3.4363-23.61 5.5909-26.545 34.451-11.203 61.71-23.348 75.19-33.5 11.056-8.3262 35.926-30.567 49.058-43.871l9.9246-10.055 20.075 19.647c28.264 27.661 40.83 37.463 60.075 46.859 8.8 4.2964 22.9 10.214 31.333 13.15 24.195 8.4234 30.667 11.028 30.667 12.342 0 5.6169-8.7704 60.877-11.406 71.867-7.106 29.629-19.285 64.124-30.638 86.78-13.039 26.019-34.382 52.087-57.289 69.97-18.129 14.153-40.951 29.969-43.196 29.934-1.1757-0.018-10.838-6.2995-21.471-13.959zm58.667-16.499c16.824-12.921 35.638-32.453 45.16-46.886 17.181-26.04 32.383-62.461 42.243-101.21 4.6068-18.103 10.906-56.868 11.57-71.197l0.36036-7.7821-20.667-7.1917c-41.983-14.609-61.024-26.721-98.362-62.563l-17.695-16.987-19.638 19.156c-34.724 33.871-53.546 45.795-94.34 59.763-11.019 3.7732-20.792 7.328-21.716 7.8994-1.3071 0.80783-1.3778 3.0908-0.31778 10.263 0.74978 5.0732 2.8774 19.424 4.7281 31.891 6.0184 40.542 17.077 76.506 34.029 110.67 19.009 38.307 37.761 58.779 82.474 90.04l15.162 10.6 12.838-8.8799c7.061-4.8839 17.938-12.797 24.172-17.584zm-69.936-93.351c-15.238-14.38-27.118-26.654-27.81-28.73-0.86951-2.6085-0.57334-5.2862 1.0568-9.5547 2.6419-6.9177 7.2424-9.8737 15.367-9.8737 5.1738 0 6.472 0.93085 23.464 16.824 9.8932 9.2532 18.181 16.603 18.417 16.333s14.343-21.491 31.349-47.157 32.417-48.017 34.247-49.667c6.2116-5.6006 18.422-2.9096 22.489 4.9564 4.547 8.793 4.4704 8.9416-36.121 70-20.979 31.557-39.429 58.413-41 59.68-1.7614 1.4205-5.1567 2.3019-8.8565 2.299-5.9549-5e-3 -6.1998-0.19328-32.602-25.111z" fill="#fff" stroke-width="1.3333"/>
</svg>
