<?xml version="1.0" encoding="UTF-8"?>
<svg width="666.67" height="666.67" version="1.1" viewBox="0 0 666.67 666.67" xmlns="http://www.w3.org/2000/svg">
 <rect width="666.67" height="666.67" fill="#272283"/>
 <path d="m144.27 529c0.49762-34.925 0.50686-35.02 4.2902-44.085 5.1076-12.238 14.452-22.307 25.9-27.908l8.8731-4.3409h53.333l8.8731 4.3409c11.448 5.6007 20.793 15.669 25.9 27.908 3.7834 9.0653 3.7926 9.1602 4.2902 44.085l0.49868 35h-132.46zm142.67 0c0.49762-34.925 0.50686-35.02 4.2902-44.085 5.1076-12.238 14.452-22.307 25.9-27.908l8.8731-4.3409h53.333l8.8731 4.3409c11.448 5.6007 20.793 15.669 25.9 27.908 3.7834 9.0653 3.7926 9.1602 4.2902 44.085l0.49868 35h-132.46zm142.67 0c0.49761-34.925 0.50685-35.02 4.2902-44.085 5.1076-12.238 14.452-22.307 25.9-27.908l8.8731-4.3409h53.333l8.8731 4.3409c11.448 5.6007 20.793 15.669 25.9 27.908 3.7834 9.0653 3.7926 9.1602 4.2902 44.085l0.49868 35h-132.46zm-88.209-95.715c-9.5542-1.9934-20.202-7.9387-27.79-15.516-31.101-31.06-13.603-83.561 30.434-91.318 21.089-3.7148 43.481 7.2683 55.044 26.999 16.422 28.022 2.9179 65.628-27.678 77.075-8.7031 3.2563-21.839 4.4641-30.01 2.7593zm137.33 0c-9.5542-1.9934-20.202-7.9387-27.79-15.516-31.101-31.06-13.603-83.561 30.434-91.318 21.089-3.7148 43.481 7.2683 55.044 26.999 16.422 28.022 2.9179 65.628-27.678 77.075-8.7031 3.2563-21.839 4.4641-30.01 2.7593zm-274.67-1.3333c-9.5542-1.9933-20.202-7.9387-27.79-15.516-31.101-31.06-13.603-83.561 30.434-91.318 21.089-3.7148 43.481 7.2683 55.044 26.999 16.422 28.022 2.9179 65.628-27.678 77.075-8.7031 3.2563-21.839 4.4641-30.01 2.7593zm202.67-117.33c-9.5542-1.9933-20.202-7.9387-27.79-15.516-31.101-31.06-13.603-83.561 30.434-91.318 21.089-3.7148 43.481 7.2683 55.044 26.999 16.422 28.022 2.9179 65.628-27.678 77.075-8.7031 3.2563-21.839 4.4641-30.01 2.7593zm-137.33-1.3333c-9.5542-1.9934-20.202-7.9387-27.79-15.516-31.101-31.06-13.603-83.561 30.434-91.318 21.089-3.7148 43.481 7.2683 55.044 26.999 16.422 28.022 2.9179 65.628-27.678 77.075-8.7031 3.2563-21.839 4.4641-30.01 2.7593zm-129.39-8.1743c-9.1667-4.3966-17.717-8.9381-19-10.092-3.1968-2.875-3.015-10.337 0.33334-13.685 3.7191-3.7191 9.241-3.3396 19.573 1.3451 4.8663 2.2065 8.928 3.8565 9.0259 3.6667 0.098-0.18981 1.2542-4.5451 2.5694-9.6784 3.4438-13.441 11.781-28.541 21.635-39.184 15.249-16.47 26.615-21.366 32.433-13.969 4.1992 5.3384 3.5494 9.5392-2.2181 14.34-12.998 10.82-22.735 21.842-26.662 30.182-7.3464 15.602-7.3533 15.583 3.4722 9.7208 8.9958-4.8713 9.5579-5.0016 13.118-3.0409 2.0458 1.1266 4.5024 3.6766 5.4591 5.6667 2.7992 5.8228-0.16938 9.868-13.073 17.814-6.2333 3.8384-14.253 8.8147-17.82 11.058-3.5679 2.2437-7.7679 4.0279-9.3333 3.965-1.5654-0.0629-10.346-3.7116-19.513-8.1082zm198.73-105.16c-9.5542-1.9933-20.202-7.9387-27.79-15.516-31.101-31.06-13.603-83.561 30.434-91.318 21.089-3.7148 43.481 7.2683 55.044 26.999 16.422 28.022 2.9179 65.628-27.678 77.075-8.7031 3.2563-21.839 4.4641-30.01 2.7593zm-121.55-10.357c-1.7489-1.3228-8.2798-5.5856-14.513-9.473-14.624-9.1202-17.333-11.686-17.333-16.415 0-4.6782 5.3076-10.374 9.6674-10.374 1.7171 0 7.3168 2.5863 12.444 5.7474l9.322 5.7474 3.6719-8.9594c5.3065-12.948 12.5-23.324 23.016-33.202 10.754-10.1 26.989-19.32 31.566-17.926 5.2344 1.5947 7.6463 4.7256 7.6463 9.9257 0 5.6696-1.5382 7.3081-12 12.783-9.6643 5.0572-22.245 17.875-27.78 28.303l-4.4462 8.3776 5.1129-2.2424c10.296-4.5157 14.979-5.3109 18.751-3.184 4.6634 2.6294 6.4113 8.1061 4.1157 12.896-1.423 2.9689-5.4321 5.3117-20.429 11.938-10.262 4.5341-20.227 8.2931-22.145 8.3533-1.9178 0.0603-4.9178-0.97276-6.6667-2.2955z" fill="#fff" stroke-width="1.3333"/>
</svg>
