<?xml version="1.0" encoding="UTF-8"?>
<svg width="666.67" height="666.67" version="1.1" viewBox="0 0 666.67 666.67" xmlns="http://www.w3.org/2000/svg">
 <rect width="666.67" height="666.67" fill="#1f2283"/>
 <path d="m254.99 621.53c-1.6552-0.4769-5.0846-2.5262-7.6207-4.5539-8.7266-6.9773-9.0676-20.299-0.72437-28.293l4.0213-3.8526v-95.501h-17.053c-26.758 0-39.509-4.5374-54.292-19.321-13.912-13.912-19.321-27.908-19.321-49.993v-12.754l-70.988 1.0529-3.5061 3.9121c-9.2071 10.273-28.537 5.2746-32.199-8.3268-3.9708-14.746 10.286-28.657 24.547-23.951 2.5819 0.85211 6.071 3.0012 7.7536 4.7757l3.0592 3.2265 71.333 0.046v-54.058l-72.105 1.0349-3.7191 3.7191c-12.255 12.255-33.518 3.7215-33.504-13.445 0.0068-8.1352 3.9351-14.118 11.454-17.444 7.8864-3.4885 15.084-2.3818 21.696 3.3361l4.8452 4.19 71.333-0.71022v-52.739l-73.669 1.1165-3.4989 3.9041c-9.2441 10.314-28.531 5.2586-32.222-8.4464-1.8764-6.9685-0.61052-12.272 4.2506-17.809 7.5895-8.6439 18.652-9.2758 27.552-1.5737l4.9204 4.258 72.667-0.75034v-11.011c0-20.26 5.7901-34.719 19.321-48.25 14.784-14.784 27.534-19.321 54.292-19.321h17.053v-82.168l-4.0213-3.8526c-14.357-13.755-0.47572-38.142 18.597-32.672 14.345 4.1141 18.875 22.36 8.1118 32.672l-4.0213 3.8526v82.168h53.333v-82.168l-4.0213-3.8526c-14.357-13.755-0.47572-38.142 18.597-32.672 14.345 4.1141 18.875 22.36 8.1118 32.672l-4.0213 3.8526v82.168h54.667v-80.834l-4.0213-3.8526c-14.357-13.755-0.47572-38.142 18.597-32.672 14.345 4.1141 18.875 22.36 8.1119 32.672l-4.0213 3.8526v80.834h17.053c26.758 0 39.509 4.5374 54.292 19.321 13.532 13.532 19.321 27.99 19.321 48.254v11.015l80.667 0.74317 4.9204-4.258c8.9003-7.7021 19.962-7.0702 27.552 1.5737 4.8611 5.5365 6.127 10.84 4.2506 17.809-3.6823 13.675-22.977 18.762-32.187 8.4856l-3.4639-3.8649-81.739-1.4815v53.03l79.333 0.70634 4.8452-4.19c13.247-11.455 33.135-2.9915 33.15 14.107 0.0144 17.131-21.247 25.702-33.46 13.49l-3.6746-3.6746-80.194-1.4281v54.362l79.333-0.0462 3.0592-3.2264c13.374-14.105 37.418 0.16834 32.3 19.175-3.6533 13.567-22.991 18.601-32.159 8.371l-3.4666-3.8678-79.067-1.4476v12.907c0 22.251-5.3742 36.2-19.321 50.147-14.784 14.784-27.534 19.321-54.292 19.321h-17.053v94.168l4.0213 3.8526c7.8999 7.5685 8.0067 20.288 0.23296 27.736-7.6155 7.2961-17.745 7.5766-26.062 0.7216-8.8864-7.3249-9.291-20.4-0.88062-28.458l4.0213-3.8526v-94.168h-54.667v95.501l4.0213 3.8526c7.8999 7.5686 8.0067 20.288 0.23296 27.736-7.6154 7.2961-17.745 7.5766-26.062 0.7216-8.8864-7.3249-9.291-20.4-0.88063-28.458l4.0213-3.8526v-95.501h-53.333v95.501l4.0213 3.8526c10.764 10.312 6.2332 28.558-8.1128 32.673-5.0029 1.4348-5.8272 1.4488-10.251 0.17416zm181.63-160.91c20.687-5.3883 34.632-19.383 40.053-40.196 3.004-11.533 2.9599-176.16-0.0503-187.71-5.3883-20.687-19.383-34.632-40.196-40.053-11.404-2.9704-193.45-2.9704-204.85 0-20.813 5.421-34.807 19.366-40.196 40.053-3.0505 11.712-3.0505 176.2 0 187.91 5.3144 20.403 19.295 34.513 39.624 39.986 10.85 2.9217 194.41 2.9363 205.62 0.0163zm-185.52-34.806c-7.1701-2.5406-16.816-11.061-21.453-18.948l-3.6456-6.2015v-148l3.6456-6.2015c4.8033-8.1709 14.342-16.423 21.999-19.032 9.256-3.1538 152.79-3.1538 162.04 0 7.6576 2.6092 17.196 10.861 21.999 19.032l3.6456 6.2015v148l-3.6456 6.2015c-4.8033 8.1709-14.342 16.423-21.999 19.032-8.925 3.041-153.98 2.9668-162.59-0.0832zm152.58-17.652c7.624-3.446 13.675-9.4576 17.326-17.215 2.1094-4.4806 2.3305-10.58 2.3305-64.284 0-53.703-0.22114-59.803-2.3305-64.284-3.6517-7.7569-9.7024-13.769-17.326-17.215l-7.0097-3.1684h-63.333c-61.415 0-63.515 0.0843-69.348 2.7842-7.4793 3.462-14.301 10.165-17.49 17.186-2.2425 4.9366-2.4362 10.08-2.4362 64.696s0.19367 59.76 2.4362 64.696c4.3385 9.5506 13.105 16.629 23.795 19.213 2.7738 0.67044 32.343 1.1151 65.71 0.98817l60.667-0.23082z" fill="#fff" stroke-width="1.3333"/>
</svg>
