<?xml version="1.0" encoding="UTF-8"?>
<svg width="666.67" height="666.67" version="1.1" viewBox="0 0 666.67 666.67" xmlns="http://www.w3.org/2000/svg">
 <rect width="666.67" height="666.67" fill="#1f2283"/>
 <path d="m92 330v-251.33h371.98l0.34199 97.248 0.34198 97.248 29.333-41.913c16.133-23.052 30.005-41.914 30.826-41.915 1.9959-3e-3 44.635 30.777 46.204 33.353 0.93496 1.5356-11.8 20.586-52.899 79.133l-54.13 77.111v202.4h-372zm247.88 180.45c3.5825-3.2563 4.2608-4.5944 3.1904-6.2942-2.7376-4.3477-5.365-3.1907-7.5913 3.343-1.1819 3.4686-2.1489 6.4997-2.1489 6.7358 0 1.3274 2.5412-0.14098 6.5497-3.7845zm14.646-12.744c13.264-10.715 42.803-36.569 42.784-37.447-0.0467-2.123-2.7791-4.3199-18.77-15.092-16.406-11.051-19.876-12.476-19.876-8.1581 0 1.1678-4.2737 14.951-9.4971 30.629l-9.4971 28.505 3.0628 3.2602c1.6846 1.7932 3.6465 3.2602 4.3598 3.2602 0.7133 0 4.0587-2.2311 7.4342-4.9579zm83.207-97.136c80.744-113.71 97.444-138.12 96.043-140.4-2.2554-3.657-31.442-25.719-32.516-24.578-2.9891 3.1757-131.09 186.67-131.5 188.37-0.285 1.1644 1.3635 3.2595 3.8713 4.9198 2.4022 1.5905 9.6979 6.5638 16.213 11.052 6.5147 4.488 12.515 7.9442 13.333 7.6806 0.81866-0.26361 16.37-21.437 34.558-47.052zm-207.07-133.24v-12.667h-93.333v25.333h93.333zm116 0v-12.667h-94.667v25.333h94.667zm68 0v-12.667h-48v25.333h48zm128.56-19.732c-0.77117-1.9246-30.327-23.602-32.18-23.602-0.71392 0-2.3445 1.1563-3.6234 2.5695-2.2505 2.4867-1.9672 2.8538 8.7933 11.397 6.1153 4.8552 13.818 10.63 17.118 12.832l5.9988 4.0049 2.2676-2.8004c1.2472-1.5402 1.9789-3.5211 1.6259-4.4019zm13.675-16.618c1.8554-3.1257 3.0592-6.502 2.6752-7.5028-0.90119-2.3484-27.942-21.849-31.057-22.397-2.6612-0.46839-16.695 17.04-15.626 19.494 0.34061 0.78204 7.9295 6.6929 16.864 13.135l16.245 11.713 3.7629-4.3799c2.0696-2.409 5.2809-6.9373 7.1363-10.063zm-383.57-26.984v-13.333h-36v26.667h36zm241.33 0v-13.333h-202.67v26.667h202.67zm-234.67-66.667v-13.333h-42.667v26.667h42.667zm109.33 0v-13.333h-89.333v26.667h89.333zm125.33 0v-13.333h-66.667v26.667h66.667z" fill="#fff" stroke-width="1.3333"/>
</svg>
