<?xml version="1.0" encoding="UTF-8"?>
<svg width="666.67" height="666.67" version="1.1" viewBox="0 0 666.67 666.67" xmlns="http://www.w3.org/2000/svg">
 <rect width="666.67" height="666.67" fill="#1f2283"/>
 <path d="m220.58 544.93c-0.37057-0.96572-0.50307-8.6192-0.29443-17.008l0.37936-15.252 75.333-0.7082v-71.958l-105.67-0.0293c-99.453-0.0276-105.98-0.17254-111.03-2.4655-6.8467-3.1102-13.699-9.9623-16.809-16.809-2.3078-5.0802-2.4378-12.535-2.4655-141.43l-0.02928-136.07 3.3985-6.8199c1.8692-3.751 5.4694-8.3995 8.0005-10.33 10.351-7.8955-8.1881-7.3762 262.22-7.3443 237.66 0.028 248.61 0.13436 253.74 2.4655 6.8466 3.1102 13.699 9.9623 16.809 16.809 2.3084 5.0816 2.4362 12.497 2.4362 141.36 0 128.87-0.12774 136.28-2.4362 141.36-3.1102 6.8466-9.9623 13.699-16.809 16.809-5.052 2.295-11.682 2.4379-114.36 2.4655l-109 0.0293v71.96l79.333 0.70634v33.333l-111.04 0.341c-90.849 0.279-111.16 0.0217-111.71-1.4148zm344.55-136.91c3.5714-2.0446 7.1551-5.6284 9.3333-9.3333l3.5359-6.0143v-226.67l-3.6473-6.2044c-2.7079-4.6063-5.4369-7.0962-10.595-9.6667l-6.9478-3.4622h-445.62l-6.9478 3.4622c-5.1582 2.5704-7.8873 5.0604-10.595 9.6667l-3.6473 6.2044v226.67l3.2825 5.7326c3.3125 5.7848 9.0307 10.248 15.736 12.281 2.0064 0.60845 104.15 1.0043 226.98 0.87968l223.33-0.22661zm-298.21-35.681 0.41528-34.333 3.7617-8.1394c4.7585-10.296 15.072-20.565 25.572-25.463 7.8783-3.6746 8.3853-3.7313 33.333-3.7313 24.979 0 25.447 0.0525 33.473 3.7617 10.296 4.7585 20.565 15.072 25.463 25.572l3.7313 8 0.41528 34.333 0.41527 34.333h-126.99zm54.309-81.642c-18.335-3.218-34.224-20.197-36.586-39.095-1.6244-13.001 4.7451-29.35 14.913-38.278 24.669-21.66 61.915-11.161 72.366 20.398 2.4061 7.2662 2.8166 10.6 2.0833 16.919-3.0533 26.307-27.105 44.562-52.776 40.056z" fill="#fff" stroke-width="1.3333"/>
</svg>
