<?xml version="1.0" encoding="UTF-8"?>
<svg width="666.67" height="666.67" version="1.1" viewBox="0 0 666.67 666.67" xmlns="http://www.w3.org/2000/svg">
 <rect width="666.67" height="666.67" fill="#1f2283"/>
 <path d="m467.23 564.14c-14.291-6.4905-17.65-23.807-6.8412-35.267 8.7518-9.2796 22-9.4176 31.093-0.32401 11.106 11.106 7.7266 29.034-6.7092 35.591-6.8491 3.1107-10.694 3.1107-17.543 0zm-239.19-30.1-29.757-31.295-30.118 29.133c-16.565 16.023-30.728 28.817-31.473 28.43-0.74507-0.3866-6.1496-5.7486-12.01-11.916l-10.655-11.213 9.322-8.9374c5.1271-4.9156 18.835-18.092 30.463-29.282l21.141-20.344-28.808-29.818c-15.844-16.4-28.808-30.38-28.808-31.066 0-0.68617 5.3241-6.13 11.831-12.098l11.831-10.85 58.278 60.895 30.484-29.506c16.766-16.229 31.24-29.683 32.165-29.899 0.92436-0.21607 6.5579 4.9495 12.519 11.479l10.838 11.872-31.306 29.819c-17.219 16.4-31.306 30.18-31.306 30.622s1.5617 2.2574 3.4703 4.0352c1.9087 1.7778 15.487 15.69 30.173 30.915l26.703 27.683-11.84 11.274c-6.512 6.2006-12.186 11.293-12.61 11.317-0.42326 0.0236-14.16-14.04-30.527-31.252zm153.3-57.372v-15.333h190.67v30.667h-190.67zm84.562-48.528c-14.291-6.4905-17.65-23.807-6.8413-35.267 8.7518-9.2796 22-9.4177 31.093-0.32402 11.106 11.106 7.7266 29.034-6.7092 35.591-6.8492 3.1107-10.694 3.1107-17.543 0zm-285.9-191.47v-40.667h-78.667v-30.667h78.667v-78.667h30.667v78.667h81.333v30.667h-81.333v81.333h-30.667zm198.67-56v-15.333h190.67v30.667h-190.67z" fill="#fff" stroke-width="1.3333"/>
</svg>
