<?xml version="1.0" encoding="UTF-8"?>
<svg width="666.67" height="666.67" version="1.1" viewBox="0 0 666.67 666.67" xmlns="http://www.w3.org/2000/svg">
 <rect width="666.67" height="666.67" fill="#1f2283"/>
 <path d="m174 561.39c-3.2507-1.4783-11.839-9.1214-21.993-19.572-9.1626-9.4308-28.513-29.194-43-43.918l-26.341-26.771v-6.2629c0-5.7754 0.59752-6.9089 7.6766-14.563 10.829-11.708 85.154-97.177 91.989-105.78 3.1164-3.9232 7.1233-7.4988 8.9044-7.9458 3.2449-0.81441 46.358 1.8089 90.096 5.4821 12.833 1.0778 25.583 1.9566 28.333 1.9529l5-7e-3 -0.0412-13c-0.0437-13.808-1.606-28.865-4.0912-39.428-1.5191-6.4568-15.473-27.209-18.903-28.113-31.34-8.2603-55.002-21.349-68.458-37.868-12.55-15.407-17.121-29.87-15.614-49.408l0.78748-10.212-10.84-14.489c-9.1859-12.278-10.84-15.273-10.84-19.631 0-3.7872 1.016-6.2796 3.8552-9.4573 3.2503-3.6377 4.7671-4.3071 9.6667-4.2662 3.1963 0.0267 9.1114 0.75201 13.145 1.6117s16.737 2.7611 28.231 4.2254c11.493 1.4642 24.093 3.8704 28 5.3471 22.315 8.435 45.541 38.048 51.258 65.355 2.7271 13.025 1.8565 33.709-1.8557 44.089l-2.6543 7.4225 7.9794 10.577c4.3887 5.8176 8.8726 12.408 9.9643 14.645l1.9849 4.0674 9.5466-9.8768c5.2506-5.4323 12.097-11.641 15.213-13.798 3.4754-2.4049 5.6667-4.9539 5.6667-6.5918 0-1.4688 2.4628-8.49 5.4729-15.603 12.705-30.02 21.229-42.196 34.108-48.718 12.966-6.566 19.595-7.764 48.419-8.7501 26.018-0.89016 27.661-1.1047 34.143-4.4592 3.7455-1.9383 8.6725-5.0913 10.949-7.0068 8.479-7.1346 19.156-5.1223 23.707 4.4683 2.633 5.5485 1.8588 8.7622-7.1146 29.533-19.756 45.73-34.004 65.046-55.462 75.191-11.606 5.4869-21.44 7.8832-31.754 7.737-7.5361-0.1068-23.164-3.7928-32.345-7.629-4.2548-1.7778-4.9883-1.6539-12.535 2.1172-5.1699 2.5834-11.017 7.189-16.469 12.973-7.0881 7.519-9.0478 10.688-12.136 19.622-4.6632 13.493-7.5979 27.392-7.6276 36.126l-0.0232 6.8044 10.201 0.86231c5.6106 0.47428 13.042 0.86232 16.514 0.86232 10.066 0 19.472 3.7582 27.291 10.904 3.8421 3.5115 7.7354 8.1947 8.6519 10.407 0.91641 2.2124 1.9725 4.0226 2.3468 4.0226 0.37434 0 7.9516-6.8048 16.838-15.122 8.8867-8.317 29.358-27.299 45.491-42.183 16.133-14.884 32.19-29.93 35.681-33.437 4.9662-4.989 7.8092-6.6899 13.066-7.8172 11.431-2.4516 16.883-1.805 27.39 3.2484 8.0398 3.867 10.683 5.9933 15.074 12.126 10.569 14.76 12.924 31.942 6.9559 50.759l-3.0365 9.5736-76.454 75.946c-42.05 41.77-77.254 76.462-78.232 77.093-0.97763 0.63096-44.594 1.4472-96.926 1.8139l-95.148 0.66667-15.244 26c-8.384 14.3-16.484 27.05-18 28.333-3.4769 2.9438-9.6 2.8395-16.46-0.28054zm17.013-51.711c5.4789-9.3546 11.234-19.519 12.79-22.587 5.3153-10.484-2.5262-9.7548 104.83-9.7548h96.041l71.523-71.667c39.338-39.417 72.186-72.977 72.995-74.579 2.3218-4.5929 1.751-13.948-1.1405-18.69-3.1302-5.1337-9.5288-8.706-14.585-8.1429-3.5504 0.39538-26.107 20.746-114.11 102.94-12.483 11.66-24.496 21.956-26.697 22.879-3.2259 1.3538-11.496 1.3294-42.667-0.12614-76.855-3.5888-74.874-3.4373-79.186-6.0591-8.2141-4.9953-7.9805-19.113 0.40712-24.609 3.2387-2.1221 6.7009-2.0969 58.445 0.42492l55.002 2.6806 2.2363-2.8343c1.23-1.5589 2.5254-4.3466 2.8788-6.195 0.67227-3.5167-1.8681-11.1-4.2016-12.542-1.4-0.86525-85.488-8.0183-148.68-12.648l-35.768-2.6203-4.3824 4.8911c-2.4103 2.6901-21.591 24.657-42.624 48.814l-38.242 43.923 17.827 18.077c9.8051 9.9422 24.021 24.507 31.592 32.366 7.5703 7.859 14.211 14.013 14.758 13.675 0.54644-0.33772 5.4762-8.2678 10.955-17.622z" fill="#fff" stroke-width="1.3333"/>
</svg>
