<?xml version="1.0" encoding="UTF-8"?>
<svg width="666.67" height="666.67" version="1.1" viewBox="0 0 666.67 666.67" xmlns="http://www.w3.org/2000/svg">
 <rect width="666.67" height="666.67" fill="#1f2283"/>
 <path d="m212.74 508.48c-48.358-5.4335-88.106-10.061-88.329-10.284-0.22254-0.22254 2.5877-24.357 6.2451-53.632 3.6573-29.275 6.6552-54.175 6.662-55.334 7e-3 -1.159-2.5377-3.9476-5.6544-6.1967-9.5119-6.8644-25.066-23.595-33.051-35.551-9.106-13.634-16.341-30.011-20.911-47.333-4.717-17.879-4.9573-46.622-0.55009-65.797 6.5629-28.555 19.93-52.604 40.368-72.628 27.794-27.231 63.076-41.747 101.82-41.893 41.355-0.15631 76.163 14.199 105.36 43.449 22.521 22.565 37.67 53.943 41.245 85.427 0.89944 7.9222 1.233 8.4489 23.451 37.028 12.396 15.946 23.153 30.14 23.904 31.543 3.4041 6.3606 0.2164 15.429-6.9195 19.685-2.4101 1.4374-10.137 7.1735-17.17 12.747l-12.788 10.133-0.87428 21.08c-0.48086 11.594-0.87629 26.291-0.87873 32.66-5e-3 13.897-1.222 17.576-6.9712 21.081-3.9288 2.3954-6.7315 2.6628-27.955 2.6673-12.973 3e-3 -23.897 0.50555-24.275 1.1173-0.37811 0.61178-2.8078 16.662-5.3992 35.667-6.1575 45.157-6.0553 44.579-7.8546 44.398-0.8522-0.0859-41.115-4.6016-89.473-10.035zm298.84-16.065c-61.178-58.692-75.645-73.226-77.014-77.373-2.0405-6.1829 1.6585-13.506 8.5137-16.854 4.5098-2.2028 5.595-2.278 9.6249-0.66667 4.0442 1.617 85.937 78.991 92.782 87.663 1.5013 1.9018 2.5101 5.3047 2.5101 8.4667 0 4.2347-0.90217 6.189-4.5333 9.8202-3.7036 3.7036-5.5493 4.5333-10.084 4.5333-5.2688 0-6.3754-0.79131-21.8-15.589zm-65.316-117.61c-2.4588-1.2286-5.3192-4.2861-6.7498-7.215-2.2091-4.5227-2.2825-5.609-0.66574-9.8568 0.99933-2.6257 3.5105-6.0384 5.5805-7.5838 3.6978-2.7608 4.8622-2.8118 66.666-2.9217 34.596-0.0615 64.702 0.37793 66.902 0.97651 11.897 3.2368 13.805 20.658 2.9316 26.76-2.1992 1.2342-18.854 1.6861-66.665 1.8091-55.957 0.14393-64.254-0.0963-68-1.9682zm-3.6004-46.468c-2.8232-1.4104-5.6303-4.3033-7.106-7.3233-4.1872-8.569-2.5962-10.812 30.115-42.465 65.896-63.764 61.5-59.877 67.708-59.877 4.5346 0 6.3803 0.82976 10.084 4.5333 3.6312 3.6312 4.5333 5.5855 4.5333 9.8202 0 3.162-1.0088 6.5649-2.5101 8.4667-5.4459 6.8989-88.495 85.946-91.881 87.453-4.8143 2.143-5.512 2.1042-10.942-0.6086z" fill="#fff" stroke-width="1.3333"/>
</svg>
