<?xml version="1.0" encoding="UTF-8"?>
<svg width="666.67" height="666.67" version="1.1" viewBox="0 0 666.67 666.67" xmlns="http://www.w3.org/2000/svg">
 <rect width="666.67" height="666.67" fill="#1f2283"/>
 <path d="m220.58 544.93c-0.37057-0.96572-0.50307-8.6192-0.29443-17.008l0.37936-15.252 75.333-0.7082v-71.958l-105.67-0.0293c-99.453-0.0276-105.98-0.17254-111.03-2.4655-6.8467-3.1102-13.699-9.9623-16.809-16.809-2.3078-5.0802-2.4378-12.535-2.4655-141.43l-0.02928-136.07 3.3985-6.8199c1.8692-3.751 5.4694-8.3995 8.0005-10.33 10.351-7.8955-8.1881-7.3762 262.22-7.3443 237.66 0.028 248.61 0.13436 253.74 2.4655 6.8466 3.1102 13.699 9.9623 16.809 16.809 2.3084 5.0816 2.4362 12.497 2.4362 141.36 0 128.87-0.12774 136.28-2.4362 141.36-3.1102 6.8466-9.9623 13.699-16.809 16.809-5.052 2.295-11.682 2.4379-114.36 2.4655l-109 0.0293v71.96l79.333 0.70634v33.333l-111.04 0.341c-90.849 0.279-111.16 0.0217-111.71-1.4148zm344.55-136.91c3.5714-2.0446 7.1551-5.6284 9.3333-9.3333l3.5359-6.0143v-226.67l-3.6473-6.2044c-2.7079-4.6063-5.4369-7.0962-10.595-9.6667l-6.9478-3.4622h-445.62l-6.9478 3.4622c-5.1582 2.5704-7.8873 5.0604-10.595 9.6667l-3.6473 6.2044v226.67l3.2825 5.7326c3.3125 5.7848 9.0307 10.248 15.736 12.281 2.0064 0.60845 104.15 1.0043 226.98 0.87968l223.33-0.22661zm-252.46-40.754c-67.897-14.846-135.42-50.997-151.36-81.028l-3.1553-5.9478 3.9115-4.4756c11.217-12.835 45.121-41.186 63.933-53.464 64.772-42.272 145.86-42.273 210.67-4e-3 22.929 14.955 55.293 43.135 64.49 56.151l4.1154 5.8246-3.9894 5.5551c-4.3588 6.0695-18.64 18.436-34.1 29.528-26.107 18.731-79.476 40.456-117.18 47.701-18.377 3.5314-21.847 3.5462-37.333 0.15997zm42.022-30.491c44.751-11.362 84.232-29.501 109.83-50.462l3.8552-3.1564-11.619-9.9085c-38.492-32.825-64.075-45.926-102.6-52.542-21.738-3.7332-42.653-2.1121-69.492 5.3861-24.144 6.7453-48.402 21.27-78.758 47.156l-11.619 9.9085 3.8552 3.1564c17.716 14.505 49.058 31.2 75.855 40.405 21.029 7.2242 49.141 14.433 56.688 14.538 3.3119 0.0459 14.112-1.9708 24-4.4812zm-34.688-22.016c-24.423-7.456-36.31-33.699-25.271-55.79 7.4764-14.962 19.355-22.298 35.938-22.195 8.097 0.0501 11.269 0.72226 16.667 3.532 14.163 7.3722 22.405 20.417 22.572 35.727 0.23716 21.732-18.116 40.211-39.586 39.859-3.8421-0.0631-8.4857-0.57255-10.319-1.1322z" fill="#fff" stroke-width="1.3333"/>
</svg>
