<?xml version="1.0" encoding="UTF-8"?>
<svg width="666.67" height="666.67" version="1.1" viewBox="0 0 666.67 666.67" xmlns="http://www.w3.org/2000/svg">
 <rect width="666.67" height="666.67" fill="#1f2283"/>
 <path d="m288.89 624.44c-0.48889-0.48888-0.88889-6.7658-0.88889-13.949v-13.06l-5.633-1.5168c-3.0982-0.83426-9.2482-3.4031-13.667-5.7085-4.4185-2.3054-8.4065-4.3702-8.8622-4.5885-0.45572-0.21828-5.7564 4.1274-11.779 9.6571-6.0229 5.5297-11.451 10.054-12.063 10.054-1.2923 0-18.662-18.769-18.662-20.165 0-0.51533 4.8607-5.4527 10.802-10.972l10.802-10.035-3.3828-7.1506c-1.8605-3.9329-4.0925-9.9691-4.9599-13.414l-1.5771-6.2633h-30.35v-29.333h30.36l2.2604-7c1.2432-3.85 3.7338-9.6642 5.5348-12.92l3.2744-5.9204-19.219-19.348 9.0147-10.072c4.9581-5.5398 9.6247-10.072 10.37-10.072 0.74556 0 5.6544 4.1683 10.908 9.2629l9.5529 9.2629 9.0362-4.5479c4.9699-2.5014 11.107-4.9364 13.638-5.4113l4.6021-0.86336v-30.46l28.667 0.75688 0.37569 14.86 0.37568 14.86 4.291 0.80703c2.36 0.44387 8.0935 2.6064 12.741 4.8058l8.4502 3.9987 8.2165-7.6846c14.878-13.915 12.227-13.754 23.508-1.4212 8.9486 9.7828 9.65 10.943 7.5456 12.482-1.2761 0.93308-5.8743 5.0866-10.218 9.23l-7.8981 7.5335 3.871 6.9316c2.129 3.8124 4.8859 10.082 6.1262 13.932l2.2552 7h30.36v29.333h-30.35l-1.5771 6.2633c-0.8674 3.4448-3.1078 9.4988-4.9786 13.453l-3.4014 7.19 21.611 20.427-20.047 21.175-7.6288-7.2892c-4.1958-4.009-9.1731-8.6287-11.061-10.266l-3.4319-2.9768-7.2348 3.9879c-3.9791 2.1933-10.385 4.9154-14.235 6.0491l-7 2.0613v27.926h-13.778c-7.5778 0-14.178-0.4-14.667-0.8889zm30.444-64.965c19.857-9.4152 28.325-33.299 18.83-53.111-14.116-29.456-56.703-29.423-71.086 0.0555-4.861 9.963-5.1253 24.321-0.61974 33.661 3.968 8.2254 12.972 16.768 20.961 19.887 9.6601 3.7716 23.366 3.5599 31.914-0.49298zm104.41-83.953c-8.5737-1.5728-15.861-3.1596-16.193-3.5262-0.33267-0.36667 0.73092-8.5788 2.3635-18.249l2.9684-17.582-6.775-2.809c-7.5296-3.1218-14.423-7.4862-23.493-14.873l-6.0509-4.9285-17.282 11.22c-9.5053 6.171-17.667 11.22-18.138 11.221-0.89516 1e-3 -19.257-27.661-20.469-30.837-0.465-1.2183 5.0902-5.5596 16.646-13.009 9.5394-6.1492 17.344-11.249 17.344-11.333-3.7e-4 -0.0841-1.2416-3.4179-2.7584-7.4085-1.5167-3.9906-3.4972-12.378-4.4011-18.639l-1.6434-11.384-19.265-3.1724c-10.596-1.7448-19.47-3.3617-19.72-3.5932-0.7605-0.70378 5.4327-37.207 6.52-38.429 0.55768-0.6268 9.0212 0.16688 18.808 1.7637 9.7866 1.5968 18.629 3.0097 19.65 3.1396 1.0479 0.13335 3.701-3.3483 6.0902-7.9921 2.3284-4.5256 6.8565-11.628 10.062-15.784 4.1726-5.4085 5.4731-8.0734 4.5764-9.378-0.68892-1.0024-5.6848-7.5856-11.102-14.629-9.2842-12.072-9.7051-12.91-7.3333-14.601 1.3839-0.98714 8.2138-6.2954 15.178-11.796 6.9638-5.5007 13.091-9.7358 13.616-9.4114 0.72432 0.44767 22.509 28.315 22.964 29.376 0.0505 0.11787 4.2944-1.197 9.4307-2.922 5.1363-1.725 13.519-3.8042 18.628-4.6205 5.1093-0.81621 9.5478-1.7423 9.8635-2.0579 0.31565-0.31566 1.9559-8.7559 3.645-18.756 1.6891-10 3.358-18.469 3.7088-18.82 0.81861-0.81861 35.86 4.9538 37.028 6.0997 0.48333 0.47428-0.54744 9.2316-2.2906 19.461-1.7432 10.229-3.0386 18.709-2.8788 18.844 0.15983 0.13497 4.5346 2.3699 9.7216 4.9665 5.1871 2.5966 12.299 6.9101 15.804 9.5855l6.3728 4.8644 16.551-10.963c9.103-6.0299 16.785-10.723 17.071-10.429 1.1406 1.1722 19.739 29.769 20.283 31.187 0.32072 0.83582-6.3437 5.9808-14.81 11.433-11.214 7.222-15.17 10.457-14.572 11.914 4.076 9.931 7.3967 21.467 8.0907 28.106 0.55963 5.3543 1.5459 8.3816 2.9746 9.1304 1.1755 0.61608 10.237 2.4587 20.137 4.0948 9.9 1.636 18.205 3.1605 18.455 3.3877 0.76164 0.69187-5.4337 37.2-6.52 38.421-0.55768 0.6268-9.0212-0.16688-18.808-1.7637-9.7866-1.5968-18.631-3.0097-19.655-3.1396-1.0239-0.13-2.473 1.5637-3.2201 3.7637-1.7469 5.1439-8.1858 15.85-13.648 22.693l-4.2784 5.3596 12.453 15.914c6.8494 8.7524 12.326 16.033 12.171 16.178-2.4718 2.3161-29.848 23.143-30.446 23.162-0.45646 0.0147-6.3992-7.0986-13.206-15.807l-12.376-15.834-5.4607 2.3974c-6.3307 2.7794-20.112 6.2654-28.876 7.3042l-6.0819 0.72088-2.3478 14.956c-3.2712 20.838-3.3161 20.979-6.6329 20.816-1.5705-0.0772-9.8703-1.4272-18.444-3zm44.584-84.777c15.127-5.8001 28.133-21.93 31.671-39.276 4.2871-21.022-5.1822-43.243-23.396-54.902-27.345-17.504-62.471-7.4396-77.013 22.065-3.9702 8.0551-4.257 9.5823-4.257 22.667 0 12.372 0.41508 14.915 3.5136 21.523 6.3423 13.526 19.542 25.104 33.153 29.078 3.3 0.96364 6.6 1.9677 7.3333 2.2313 3.8496 1.3836 22.12-0.75029 28.996-3.3866zm-249.66-91.871v-18.454l-7.5898-1.6985c-4.1744-0.93418-13.163-4.5538-19.976-8.0436l-12.386-6.3451-15.024 13.81c-8.2634 7.5957-15.433 13.82-15.932 13.831-1.0329 0.0239-25.646-26.21-25.973-27.683-0.11752-0.52922 6.579-7.1497 14.881-14.712l15.095-13.75-5.0835-10.25c-2.7959-5.6375-5.8378-13.7-6.7599-17.917l-1.6764-7.6667h-40.909v-40h41.231l1.5093-5.6667c2.0354-7.6417 6.403-17.868 10.357-24.251l3.253-5.2508-4.5084-3.9668c-2.4796-2.1817-8.5979-7.7955-13.596-12.475l-9.0878-8.5084 9.2952-10.274c5.1124-5.6507 11.157-12.041 13.432-14.201l4.1368-3.9266 5.6558 5.2445c3.1106 2.8845 9.2557 8.6731 13.656 12.864l8 7.6191 11.419-5.7502c6.2803-3.1626 14.53-6.5477 18.333-7.5224l6.9146-1.7722v-39.496h38.667v20c0 18.906 0.14148 20 2.5872 20 3.4816 0 20.737 6.2929 25.918 9.4523 5.5489 3.3836 7.7474 3.209 11.596-0.92106 1.7778-1.9078 7.9086-7.695 13.624-12.86l10.392-9.3916 4.0678 3.8604c2.2373 2.1232 8.2506 8.4837 13.363 14.134l9.2952 10.274-9.0878 8.5084c-4.9983 4.6796-11.079 10.26-13.514 12.401l-4.4259 3.893 5.9886 11.324c3.2937 6.2285 6.978 14.775 8.1872 18.991l2.1986 7.6667h41.144v40h-40.714l-2.3303 8.8848c-1.2817 4.8867-4.3862 12.919-6.8991 17.85l-4.5687 8.9649 14.474 13.15c7.9605 7.2327 14.376 13.583 14.256 14.112-0.33351 1.4745-24.945 27.707-25.977 27.688-0.49894-9e-3 -7.4209-6.0185-15.382-13.355l-14.475-13.338-4.1917 2.5827c-8.0218 4.9425-17.577 9.2613-25.857 11.686l-8.3315 2.4402-1e-3 18.333-2e-3 18.333h-38.667zm41.573-69.342c10.539-5.0299 21.113-15.753 26.165-26.533 3.1682-6.7605 3.589-9.2516 3.5475-21.004-0.0644-18.257-3.2118-26.169-15.164-38.122-11.839-11.839-19.941-15.107-37.455-15.107s-25.616 3.2679-37.455 15.107c-12.072 12.072-15.223 19.983-15.18 38.122 0.0269 11.611 0.49127 14.324 3.5945 21.004 6.6471 14.307 19.878 25.4 35.708 29.936 10.208 2.9249 26.111 1.4319 36.24-3.4022z" fill="#fff" stroke-width="1.3333"/>
</svg>
