<?xml version="1.0" encoding="UTF-8"?>
<svg width="666.67" height="666.67" version="1.1" viewBox="0 0 666.67 666.67" xmlns="http://www.w3.org/2000/svg">
 <g transform="matrix(.94277 0 0 .91091 12.719 9.2166)">
  <rect x="-13.491" y="-10.118" width="707.14" height="731.87" fill="#112283"/>
  <path d="m323.02 575.89c-44.086-5.1237-84.225-23.264-117.83-53.254-54.451-48.588-79.58-123.26-65.695-195.21 4.137-21.437 15.243-52.793 18.698-52.793 0.78947 0 42.047 20.924 91.683 46.498s92.198 46.921 94.581 47.439c3.1941 0.6942 4.3248 0.47578 4.301-0.83082-0.0177-0.97494-8.347-47.973-18.51-104.44-10.162-56.467-17.995-103.19-17.406-103.83 0.589-0.63877 8.3382-1.8073 17.22-2.5967 63.584-5.6511 130.42 21.293 173.04 69.758 56.585 64.348 69.371 153.52 33.026 230.33-26.985 57.033-79.686 99.743-141.05 114.31-23.571 5.5952-49.407 7.2514-72.057 4.6191zm-92.855-285.84c-51.675-26.664-94.168-49.117-94.427-49.896-0.58716-1.7615 7.0268-15.487 14.647-26.403 26.14-37.448 64.593-66.226 107.29-80.295 14.237-4.6913 30.031-8.1903 31.409-6.9583 0.52828 0.47215 8.7464 44.346 18.263 97.498s17.989 99.814 18.828 103.69c1.4861 6.8685 1.1032 11.001-1.0094 10.893-0.57302-0.0292-43.322-21.869-94.997-48.533z" fill="#fff" stroke-width="1.3333"/>
 </g>
</svg>
