<?xml version="1.0" encoding="UTF-8"?>
<svg width="666.67" height="666.67" version="1.1" viewBox="0 0 666.67 666.67" xmlns="http://www.w3.org/2000/svg">
 <rect width="666.67" height="666.67" fill="#1f2283"/>
 <path d="m239.33 569.82c-43.406-4.5159-75.217-12.361-99.389-24.511-13.933-7.0036-22.798-14.402-28.496-23.782l-4.8514-7.9863 0.3686-20.086 0.36861-20.086 5.4185 6.9851c15.735 20.284 50.36 33.826 112.58 44.029 11.641 1.909 92.782 1.8587 104-0.0645 4.7667-0.81715 11.967-2.1373 16-2.9336 4.0333-0.79633 12.133-2.3668 18-3.4899 16.844-3.2246 46.485-12.551 48.667-15.313 0.36667-0.46424 2.1667-1.6181 4-2.5642 10.286-5.3082 20.183-13.279 25.486-20.525l5.8473-7.9908 0.37793 20.585c0.4587 24.985-0.65292 28.82-11.393 39.305-12.163 11.875-37.053 23.215-65.567 29.872-28.621 6.6817-45.189 8.3513-86.752 8.7419-21.633 0.20335-41.733 0.12-44.667-0.18516zm5.3333-65.286c-35.233-3.4911-50.097-6.1373-74.028-13.179-32.2-9.4754-52.561-22.314-60.751-38.305-2.9863-5.8306-3.2211-7.7575-3.2211-26.435v-20.146l4.8827 6.3966c8.6448 11.325 19.642 18.962 38.727 26.892 34.183 14.204 71.985 20.22 127.06 20.22 31.612 0 57.036-1.9332 78.667-5.9818 13.188-2.4684 35.323-8.2616 38.484-10.072 1.2004-0.68759 7.0322-3.2524 12.959-5.6995 16.096-6.6454 25.495-13.633 36.179-26.895l4.2886-5.3236 0.0447 19.845c0.0261 11.612-0.61287 22.04-1.5404 25.136-3.4625 11.557-20.238 25.124-41.832 33.831-15.676 6.3212-47.894 14.39-68.583 17.177-15.836 2.133-77.993 3.8612-91.333 2.5394zm4.6667-63.967c-46.711-3.911-87.85-13.312-110.52-25.257-13.449-7.0858-21.582-13.846-27.813-23.116l-5.6667-8.4313v-20.467c0-11.257 0.47559-20.761 1.0569-21.12 0.58129-0.35926 3.4696 2.4553 6.4185 6.2546 15.682 20.205 50.393 33.763 112.52 43.952 11.641 1.909 92.782 1.8587 104-0.0645 4.7667-0.81715 11.967-2.1373 16-2.9336 4.0333-0.79633 12.133-2.3668 18-3.4899 16.844-3.2246 46.485-12.551 48.667-15.313 0.36667-0.46424 2.1667-1.6181 4-2.5642 10.286-5.308 20.183-13.279 25.486-20.525l5.8473-7.9906 0.36845 21.166c0.35571 20.434 0.24914 21.41-3.0814 28.218-11.312 23.121-52.562 40.79-114.62 49.094-15.104 2.0212-67.396 3.6985-80.667 2.5874zm10.667-65.336c-3.3-0.26941-14.1-1.1516-24-1.9605-65.034-5.3134-114.28-24.838-127.26-50.455-3.1908-6.2966-3.4062-7.9544-3.4062-26.211 0-10.848 0.52677-19.292 1.1881-19.044 0.65345 0.24444 3.5514 3.4444 6.44 7.1111 12.892 16.365 42.288 29.971 81.705 37.819 29.739 5.9206 55.927 8.2349 86.667 7.6588 31.878-0.59738 56.585-2.3491 64.667-4.585 2.9333-0.81151 10.433-2.4286 16.667-3.5936 17.213-3.2171 47.078-12.533 49.333-15.389 0.36667-0.46424 2.1667-1.6181 4-2.5642 10.286-5.3082 20.183-13.279 25.486-20.525l5.8473-7.9908 0.37793 20.585c0.45946 25.026-0.63818 28.787-11.519 39.47-18.131 17.802-59.49 31.704-110.36 37.097-18.405 1.9512-55.645 3.4091-65.833 2.5774zm290.91-5.5935c-3.709-0.61039-37.574-40.818-37.574-44.611 0-2.0228-96.447-119.76-109.73-133.95l-3.9883-4.2612-11.501 9.7574c-20.289 17.213-32.6 33.584-46.199 61.432-5.3715 11-11.381 25.1-13.354 31.333-4.2118 13.304-5.1398 14.661-8.04 11.761-5.3507-5.3507-0.40409-55.715 8.3578-85.094 4.0188-13.476 16.571-39.075 26.556-54.158 3.9411-5.9534 12.163-15.553 18.27-21.333 20.506-19.406 35.623-27.58 68.504-37.044 23.061-6.6375 35.382-7.9875 63.789-6.9887 34.815 1.2241 51.333 4.062 51.333 8.8191 0 2.8934-1.5876 3.4822-12.667 4.6978-9.1167 1.0003-34.824 7.2288-49.187 11.917-18.131 5.9184-38.27 17.23-54.625 30.68l-11.256 9.2567 12.973 15.41c7.1351 8.4755 32.342 38.703 56.015 67.173 23.673 28.469 44.597 52.469 46.498 53.333 4.9974 2.2716 37.582 41.889 37.582 45.694 0 3.5658-2.7762 6.7512-14.667 16.829-10.049 8.5168-12.846 10.047-17.092 9.3479zm-316.24-61.793c-50.801-5.1065-92.224-17.709-112.87-34.34-17.099-13.775-20.461-26.607-10.755-41.047 12.596-18.74 45.143-32.546 98.978-41.984 24.947-4.3738 25.894-4.4377 65.977-4.4534 22.367-9e-3 41.718 0.41596 43.004 0.94375 2.1722 0.89186 2.0946 1.5975-1.0984 10-9.0032 23.692-15.693 85.971-11.28 105.01 0.88571 3.8202 0.78377 5.5825-0.36513 6.3129-2.1165 1.3455-57.2 1.0074-71.594-0.43947zm109.34-7.1646c-2.3253-2.8018 0.87624-12.411 13.445-40.356 8.031-17.856 32.259-48.319 38.43-48.319 2.4607 0 42.785 48.166 42.785 51.105 0 3.9349-18.232 17.819-30.068 22.897-16.391 7.0326-49.37 16.665-57.056 16.665-3.5918 0-6.5269-0.77567-7.536-1.9916z" fill="#fff" stroke-width="1.3333"/>
</svg>
