<?xml version="1.0" encoding="UTF-8"?>
<svg width="666.67" height="666.67" version="1.1" viewBox="0 0 666.67 666.67" xmlns="http://www.w3.org/2000/svg">
 <rect width="666.67" height="666.67" fill="#1f2283"/>
 <path d="m161.34 588.34c-8.3641-2.9512-20.197-15.027-23.105-23.579-2.056-6.0458-2.2345-24.698-2.2345-233.43 0-258.37-1.1542-234.38 11.901-247.43 12.916-12.916-3.0123-11.901 186.77-11.901s173.85-1.015 186.77 11.901c13.055 13.055 11.901-10.941 11.901 247.43 0 258.37 1.1542 234.38-11.901 247.43-12.926 12.926 3.1127 11.916-187.34 11.796-148.67-0.0939-167.41-0.33469-172.76-2.22zm186.7-9.0306c4.981-2.5758 7.9564-8.3264 7.9564-15.378 0-4.4954-0.83533-6.3682-4.4547-9.9876-7.9048-7.9048-17.761-7.8481-24.777 0.14246-4.6996 5.3526-5.493 12.688-2.0851 19.278 3.8203 7.3876 15.046 10.244 23.36 5.945zm135.31-45.51c6.8008-3.6426 12.141-8.9824 15.783-15.783l2.866-5.3508v-381.33l-2.866-5.3508c-3.6426-6.8009-8.9824-12.141-15.783-15.783l-5.3508-2.866h-284l-5.3508 2.866c-6.8008 3.6426-12.141 8.9824-15.783 15.783l-2.866 5.3508v381.33l2.866 5.3508c4.798 8.958 12.256 15.147 21.792 18.082 1.8381 0.56586 66.342 0.92489 143.34 0.79785l140-0.23097zm-166.02-98.839v-18.371l-9-2.3338c-4.95-1.2836-13.8-4.9145-19.667-8.0686l-10.667-5.7348-31.304 28.898-26.9-28.685 30.597-28.724-4.5693-8.9715c-2.5131-4.9344-5.6566-12.872-6.9855-17.638l-2.4162-8.6667-40.422 0.59223v-41.259h41.074l2.7908-9c1.535-4.95 4.7919-12.844 7.2378-17.541l4.447-8.5414-13.161-11.967c-7.2383-6.582-12.987-12.475-12.775-13.095 0.65815-1.9225 24.319-27.642 25.53-27.752 0.62908-0.0569 7.32 5.6159 14.869 12.606l13.725 12.71 6.7586-3.985c3.7172-2.1918 11.426-5.6129 17.131-7.6025s10.655-3.8476 10.999-4.1289c0.34463-0.28124 0.54903-9.1794 0.45423-19.774l-0.17235-19.262h39.758v20c0 18.906 0.14148 20 2.5872 20 3.4214 0 20.763 6.2288 27.09 9.73l5.0105 2.7729 4.3229-3.9755c2.3776-2.1866 8.9722-8.2974 14.655-13.58l10.332-9.6041 26.908 28.656-27.315 25.644 4.7653 7.8448c2.6209 4.3146 6.2571 12.275 8.0803 17.689 1.8232 5.4144 3.9536 10.239 4.7342 10.722s10.137 0.71624 20.791 0.51956l19.372-0.3576v41.272h-40.727l-1.7661 7.6667c-0.97137 4.2167-3.993 12.18-6.7147 17.696l-4.9485 10.03 14.411 13.143c7.9263 7.2284 14.404 13.515 14.395 13.97-0.0211 1.0428-24.082 27.336-25.57 27.942-0.60414 0.24615-7.686-5.6783-15.737-13.165l-14.639-13.613-3.6851 2.471c-5.7198 3.8354-16.006 8.585-25.605 11.823l-8.7467 2.9507 0.24847 18.21 0.24846 18.21h-39.83zm40.406-68.79c8.6528-3.8267 19.703-13.608 24.37-21.572 21.375-36.474-7.4678-83.438-49.275-80.231-13.051 1.0012-22.834 4.9882-31.761 12.945-15.787 14.071-21.887 34.163-16.508 54.372 4.7168 17.719 20.505 32.912 39.094 37.622 8.571 2.1716 25.626 0.60225 34.078-3.136zm-21.073-276.84c0-2.4436-0.80232-3.4473-3.006-3.7602-1.803-0.25603-3.3275 0.41093-3.8093 1.6667-1.3276 3.4596 0.53317 6.3189 3.8093 5.8537 2.2036-0.31292 3.006-1.3165 3.006-3.7602z" fill="#fff" stroke-width="1.3333"/>
</svg>
