<?xml version="1.0" encoding="UTF-8"?>
<svg width="666.67" height="666.67" version="1.1" viewBox="0 0 666.67 666.67" xmlns="http://www.w3.org/2000/svg">
 <rect width="666.67" height="666.67" fill="#1f2283"/>
 <path d="m93.231 553.44-3.8974-3.8974v-107.08l7.7949-7.7949h44.205l5e-3 -39.667c4e-3 -36.966 0.18189-39.957 2.603-43.928 5.8153-9.5374 0.96508-9.0297 90.332-9.455l80.393-0.38258v-49.235l-63-5e-3c-60.512-5e-3 -63.172-0.1096-67.346-2.6545-2.39-1.4572-5.5378-4.605-6.995-6.995-2.5692-4.2138-2.6495-6.8723-2.6495-87.679s0.0804-83.465 2.6495-87.679c1.4572-2.39 4.605-5.5378 6.995-6.995 4.2672-2.6018 7.012-2.6495 152.35-2.6495s148.08 0.04773 152.35 2.6495c2.39 1.4572 5.5378 4.605 6.995 6.995 2.5692 4.2138 2.6495 6.8723 2.6495 87.679s-0.0803 83.465-2.6495 87.679c-1.4572 2.39-4.605 5.5378-6.995 6.995-4.1866 2.5526-6.8446 2.6497-72.679 2.6545l-68.333 5e-3v49.333h80.71c87.57 0 86.554-0.0809 92.4 7.3516 2.821 3.5863 2.8905 4.6484 2.8905 44.162v40.487h41.538l7.7949 7.7949v107.08l-7.7949 7.7949h-115.08l-7.7949-7.7949v-107.08l7.7949-7.7949h40.205v-58.667h-142.67v60h41.538l7.7949 7.7949v107.08l-7.7949 7.7949h-115.08l-7.7949-7.7949v-107.08l7.7949-7.7949h40.205v-60.044l-140 0.1344v59.909h37.538l7.7949 7.7948v107.08l-7.7949 7.7949h-115.08zm103.5-18.042 3.2727-3.2727v-73.576l-3.2727-3.2727-3.2727-3.2727h-78.909l-6.5455 6.5454v73.576l3.2727 3.2727 3.2727 3.2727h78.909zm177.33 0 3.2727-3.2727v-73.576l-3.2727-3.2727-3.2727-3.2727h-78.909l-3.2727 3.2727-3.2727 3.2727v73.576l3.2727 3.2727 3.2727 3.2727h78.909zm176-1.3333 3.2727-3.2727v-73.576l-3.2727-3.2727-3.2727-3.2727h-78.909l-3.2727 3.2727-3.2727 3.2727v73.576l3.2727 3.2727 3.2727 3.2727h78.909zm-73.753-268.42 4.3587-4.359v-134.56l-8.7179-8.718h-269.23l-8.7179 8.718v134.4l3.3333 3.5866c1.8333 1.9726 4.5333 4.0874 6 4.6996 1.4667 0.61215 62.505 0.99653 135.64 0.85419l132.97-0.25883z" fill="#fff" stroke-width="1.3333"/>
</svg>
