<?xml version="1.0" encoding="UTF-8"?>
<svg width="666.67" height="666.67" version="1.1" viewBox="0 0 666.67 666.67" xmlns="http://www.w3.org/2000/svg">
 <rect width="666.67" height="666.67" fill="#1f2283"/>
 <path d="m500.67 579.48c-10.648-2.5958-22.765-9.8447-30.598-18.305-17.535-18.94-21.416-45.363-9.9894-68 7.0661-13.998 20.769-26.309 33.921-30.476 2.9333-0.92932 5.7816-2.0955 6.3296-2.5916 0.54794-0.49603-0.1803-9.2736-1.6183-19.506-1.438-10.232-6.8324-48.904-11.988-85.937-5.1551-37.033-9.7041-69.283-10.109-71.667-0.66163-3.8965-1.1935-4.3333-5.2764-4.3333-14.927 0-32.9-8.2359-43.899-20.116-11.566-12.493-17.538-28.664-16.556-44.83l0.44971-7.4022-83.755-33.097c-46.065-18.204-84.79-33.426-86.055-33.828-1.7763-0.56378-3.1038 1.0173-5.8253 6.9381-1.9386 4.2175-5.6641 10.164-8.279 13.215l-4.7544 5.5463 49.508 73.787c27.229 40.583 50.21 74.546 51.068 75.473 1.2521 1.353 3.129 1.1455 9.4934-1.0494 23.694-8.1715 47.786-2.3986 64.484 15.452 13.81 14.763 19.556 32.788 16.371 51.36-2.349 13.698-7.2999 23.131-17.488 33.319s-19.621 15.139-33.319 17.488c-19.356 3.3191-40.07-3.9829-54.009-19.039-18.472-19.951-21.642-46.09-8.5678-70.629l5.4626-10.252-50.363-75.168c-27.7-41.342-50.739-75.602-51.198-76.132-0.62934-0.72694-21.697 2.579-23.819 3.7376-0.67772 0.37009-17.486 221.03-16.908 221.97 0.30855 0.49925 3.1088 1.3151 6.2226 1.8131 9.9039 1.5837 21.811 8.4781 30.282 17.534 13.81 14.763 19.556 32.788 16.371 51.36-2.349 13.698-7.2999 23.131-17.488 33.319s-19.621 15.139-33.319 17.488c-39.878 6.8384-76.536-29.867-69.691-69.783 3.6575-21.329 19.403-40.519 39.137-47.698 3.0821-1.1213 3.6682-2.248 4.3534-8.3687 1.1275-10.072 16.752-214.87 16.752-219.58 0-3.3279-1.0488-4.4987-7.0785-7.9017-8.8708-5.0064-19.681-16.714-24.144-26.147-21.227-44.871 18.96-96.066 67.49-85.977 22.645 4.7079 43.873 25.6 47.209 46.46 0.70683 4.4203 1.6366 5.8865 4.3771 6.9024 1.9138 0.70948 42.245 16.585 89.625 35.28l86.145 33.99 9.1882-9.0606c20.39-20.106 45.499-24.37 70.889-12.038 10.168 4.9389 22.457 17.513 27.468 28.105 10.579 22.361 6.6589 48.592-9.9825 66.8-3.6428 3.9858-9.2766 8.9255-12.52 10.977-4.4748 2.831-5.7508 4.3795-5.2925 6.4229 0.33209 1.4809 6.0251 41.693 12.651 89.359 6.6261 47.667 12.391 88.582 12.812 90.924 0.62045 3.455 1.5554 4.4221 4.9638 5.134 14.785 3.0884 32.958 18.091 40.035 33.05 7.7427 16.367 7.7117 36.094-0.0829 52.675-4.642 9.8744-18.708 23.981-28.419 28.5-13.415 6.2426-27.303 7.7906-40.667 4.5329zm27.568-24.781c18.406-6.9937 28.114-28.13 21.643-47.122-3.1686-9.2994-12.391-18.824-21.6-22.308-25.972-9.8251-52.84 10.318-50.622 37.952 0.82627 10.294 4.5216 17.613 12.388 24.537 10.782 9.4911 24.783 12.036 38.191 6.9408zm-358.67-53.333c18.406-6.9937 28.114-28.13 21.643-47.122-3.1686-9.2994-12.391-18.824-21.6-22.308-25.972-9.8251-52.84 10.318-50.622 37.952 0.82627 10.294 4.5216 17.613 12.388 24.537 10.782 9.4911 24.783 12.036 38.191 6.9408zm197.33-96c18.406-6.9937 28.114-28.13 21.643-47.122-3.1686-9.2995-12.391-18.824-21.6-22.308-25.972-9.8251-52.84 10.318-50.622 37.952 0.82627 10.294 4.5216 17.613 12.388 24.537 10.782 9.4911 24.783 12.036 38.191 6.9408zm118.67-153.33c18.406-6.9937 28.114-28.13 21.643-47.122-3.1686-9.2995-12.391-18.824-21.6-22.308-25.972-9.8251-52.84 10.318-50.622 37.952 0.82626 10.294 4.5216 17.613 12.388 24.537 10.782 9.4911 24.783 12.036 38.191 6.9408zm-292-96c18.406-6.9937 28.114-28.13 21.643-47.122-3.1686-9.2994-12.391-18.824-21.6-22.308-25.972-9.8251-52.84 10.318-50.622 37.952 0.82626 10.294 4.5216 17.613 12.388 24.537 10.782 9.4911 24.783 12.036 38.191 6.9408z" fill="#fff" stroke-width="1.3333"/>
</svg>
