<?xml version="1.0" encoding="UTF-8"?>
<svg width="666.67" height="666.67" version="1.1" viewBox="0 0 666.67 666.67" xmlns="http://www.w3.org/2000/svg">
 <rect width="666.67" height="666.67" fill="#1f2283"/>
 <path d="m305.33 575.91c-84.255-8.959-159.13-61.728-195.35-137.67-36.185-75.881-32.024-161.77 11.314-233.52 18.845-31.2 48.741-61.38 80.09-80.852 45.923-28.525 101.87-41.505 154.33-35.803 30.234 3.286 56.138 11.003 84.947 25.307 23.321 11.578 39.636 23.153 59.137 41.953 17.715 17.078 29.463 31.634 40.899 50.676 67.747 112.8 34.057 259.52-76.036 331.14-46.786 30.437-104.83 44.558-159.34 38.762zm50.707-23.985c36.659-4.5549 68.078-16.172 98.382-36.378 48.609-32.411 81.862-82.892 93.83-142.44 4.3827-21.807 4.3827-60.417 0-82.223-13.699-68.162-56.444-125.27-116.85-156.11-51.547-26.32-113.67-31.23-169.13-13.369-6.747 2.173-20.667 8.1211-30.934 13.218-74.286 36.879-121.83 113.56-121.97 196.74-0.17832 100.71 66.954 188.29 164.48 214.59 25.277 6.8149 56.918 9.1144 82.195 5.9736zm-51.938-35.283c-61.61-9.4369-115.11-48.772-141.43-103.98-2.7965-5.8667-5.4815-12.017-5.9667-13.667l-0.88216-3h75.953l4.7845 6.5178c10.241 13.951 28.645 28.629 45.45 36.249 17.431 7.9038 27.359 9.8699 49.326 9.7691 17.715-0.0812 21.34-0.4994 31.729-3.6594 25.383-7.721 47.395-22.863 61.848-42.543l4.6508-6.3333h75.953l-0.91316 3c-2.36 7.7532-10.642 23.723-18.704 36.067-10.634 16.281-33.656 39.919-48.563 49.86-22.949 15.306-45.075 24.793-69.391 29.755-18.193 3.7124-46.705 4.5895-63.846 1.9641zm18.561-153.81c-14.313-4.6864-23.081-15.837-23.194-29.499-0.0467-5.6049 14.766-91.677 18.499-107.49 0.63517-2.6909 0.36828-2.7691-5.648-1.6543-11.768 2.1805-20.946 5.3726-32.361 11.255-27.477 14.159-47.845 40.08-55.121 70.15l-2.833 11.708-72.667 0.033v-4.1239c0-6.9866 5.1344-29.766 9.4952-42.127 15.347-43.503 49.025-81.527 90.877-102.6 11.198-5.6393 32.688-12.897 46.511-15.709 37.354-7.5984 80.747-1.5582 116.45 16.21 33.075 16.46 64.255 47.761 81.29 81.606 8.6212 17.128 18.043 49.534 18.043 62.058v4.6899l-72.667-0.0328-2.858-11.809c-8.4344-34.849-34.334-63.821-67.968-76.033-12.225-4.4385-21.84-6.3453-21.84-4.3311 0 2.6129 13.337 91.595 14.8 98.745 3.1648 15.464-3.2468 29.478-16.637 36.363-5.7484 2.9558-17.036 4.2774-22.172 2.5959zm-118.6-71.832c7.4766-22.86 23.789-46.835 41.529-61.037 5.3599-4.2909 10.543-8.5072 11.518-9.3695 1.445-1.2778 0.61263-3.3892-4.4994-11.414-3.4498-5.4154-6.4886-10.087-6.7528-10.382-0.92839-1.0347-14.616 8.9437-23.52 17.146-20.404 18.797-37.134 46.658-44.946 74.849l-2.5514 9.2071h26.279zm279.89-0.20707c-6.9272-24.997-19.635-47.874-37.436-67.396-7.0987-7.7845-25.647-23.397-27.796-23.397-0.61189 0-4.0884 4.6872-7.7255 10.416l-6.613 10.416 10.199 8.0169c18.182 14.292 35.104 38.922 42.701 62.151l2.9435 9h26.279zm-94.04-91.238c3.3521-5.3782 6.0947-10.421 6.0947-11.207 0-1.8326-19.354-8.8489-32.139-11.651-15.397-3.3748-42.016-4.0424-57.804-1.4496-12.275 2.0158-36.105 8.9769-38.364 11.206-1.0653 1.0515 11.565 21.558 13.261 21.53 0.57515-9e-3 5.8288-1.5444 11.675-3.4111 5.846-1.8668 14.425-3.7486 19.065-4.1819 8.0474-0.75148 8.5231-0.99589 10.323-5.3035 2.3029-5.5117 9.4408-9.0668 14.411-7.1773 3.5173 1.3373 8.9055 7.4585 8.9055 10.117 0 1.0065 2.7724 2.0254 7 2.5726 3.85 0.49833 12.1 2.6091 18.333 4.6905s11.741 3.8428 12.239 3.9142c0.49791 0.0713 3.6479-4.2706 7-9.6488z" fill="#f9f9f9" stroke-width="1.3333"/>
</svg>
