<?xml version="1.0" encoding="UTF-8"?>
<svg width="666.67" height="666.67" version="1.1" viewBox="0 0 666.67 666.67" xmlns="http://www.w3.org/2000/svg">
 <rect width="666.67" height="666.67" fill="#1f2283"/>
 <path d="m220.58 544.93c-0.37057-0.96572-0.50307-8.6192-0.29443-17.008l0.37936-15.252 75.333-0.7082v-71.958l-105.67-0.0293c-99.453-0.0276-105.98-0.17254-111.03-2.4655-6.8467-3.1102-13.699-9.9623-16.809-16.809-2.3078-5.0802-2.4378-12.535-2.4655-141.43l-0.02928-136.07 3.3985-6.8199c1.8692-3.751 5.4694-8.3995 8.0005-10.33 10.351-7.8955-8.1881-7.3762 262.22-7.3443 237.66 0.028 248.61 0.13436 253.74 2.4655 6.8466 3.1102 13.699 9.9623 16.809 16.809 2.3084 5.0816 2.4362 12.497 2.4362 141.36 0 128.87-0.12774 136.28-2.4362 141.36-3.1102 6.8466-9.9623 13.699-16.809 16.809-5.052 2.295-11.682 2.4379-114.36 2.4655l-109 0.0293v71.96l79.333 0.70634v33.333l-111.04 0.341c-90.849 0.279-111.16 0.0217-111.71-1.4148zm344.55-136.91c3.5714-2.0446 7.1551-5.6284 9.3333-9.3333l3.5359-6.0143v-226.67l-3.6473-6.2044c-2.7079-4.6063-5.4369-7.0962-10.595-9.6667l-6.9478-3.4622h-445.62l-6.9478 3.4622c-5.1582 2.5704-7.8873 5.0604-10.595 9.6667l-3.6473 6.2044v226.67l3.2825 5.7326c3.3125 5.7848 9.0307 10.248 15.736 12.281 2.0064 0.60845 104.15 1.0043 226.98 0.87968l223.33-0.22661zm-434.16-13.503c-13.141-6.5045-18.97-20.182-18.97-44.511 0-11.503 0.66047-17.208 2.8008-24.193 5.1086-16.672 19.008-26.068 34.946-23.623 12.388 1.9006 19.887 8.3152 25.088 21.461 2.6614 6.7262 3.0388 10.022 3.0183 26.354-0.0253 20.161-1.3201 25.885-8.0583 35.623-7.4913 10.826-26.24 15.118-38.825 8.8889zm24.583-18.037c4.2998-5.3124 6.4226-14.449 6.3056-27.141-0.1332-14.452-2.2881-22.03-7.8447-27.586-7.527-7.527-16.819-5.0658-22.211 5.8831-2.7421 5.5686-3.1366 8.2981-3.1366 21.703 0 13.689 0.35749 16.048 3.3333 22 5.7381 11.476 16.52 13.83 23.553 5.1409zm51.417 18.037c-13.141-6.5045-18.97-20.182-18.97-44.511 0-11.503 0.66046-17.208 2.8007-24.193 5.1086-16.672 19.008-26.068 34.946-23.623 12.388 1.9006 19.887 8.3152 25.088 21.461 2.6614 6.7262 3.0388 10.022 3.0183 26.354-0.0253 20.161-1.3201 25.885-8.0583 35.623-7.4913 10.826-26.24 15.118-38.825 8.8889zm24.583-18.037c4.2998-5.3124 6.4226-14.449 6.3056-27.141-0.1332-14.452-2.2881-22.03-7.8447-27.586-7.527-7.527-16.819-5.0658-22.211 5.8831-2.7421 5.5686-3.1366 8.2981-3.1366 21.703 0 13.689 0.3575 16.048 3.3333 22 5.7381 11.476 16.52 13.83 23.553 5.1409zm206.08 18.037c-13.141-6.5045-18.97-20.182-18.97-44.511 0-11.503 0.66047-17.208 2.8008-24.193 5.1086-16.672 19.008-26.068 34.946-23.623 12.388 1.9006 19.887 8.3152 25.088 21.461 2.6614 6.7262 3.0388 10.022 3.0183 26.354-0.0253 20.161-1.3201 25.885-8.0583 35.623-7.4913 10.826-26.24 15.118-38.825 8.8889zm24.583-18.037c4.2998-5.3124 6.4226-14.449 6.3056-27.141-0.1332-14.452-2.2881-22.03-7.8446-27.586-7.527-7.527-16.819-5.0658-22.211 5.8831-2.7421 5.5686-3.1366 8.2981-3.1366 21.703 0 13.689 0.35749 16.048 3.3333 22 5.7381 11.476 16.52 13.83 23.553 5.1409zm-167.55-16.474c0-19.8-0.47256-36-1.0501-36-0.57758 0-4.005 3-7.6166 6.6667s-7.2886 6.6667-8.1712 6.6667c-0.88262 0-3.5038-2.3978-5.8249-5.3284l-4.2202-5.3284 3.7748-3.1696c23.025-19.334 23.299-19.504 31.441-19.505l7.6667-2e-3v92h-16zm76 0c0-19.8-0.47256-36-1.0501-36-0.57757 0-4.005 3-7.6166 6.6667-3.6115 3.6667-7.2886 6.6667-8.1712 6.6667s-3.5038-2.3978-5.8249-5.3284l-4.2202-5.3284 3.7748-3.1696c23.025-19.334 23.299-19.504 31.441-19.505l7.6667-2e-3v92h-16zm153.33 0c0-19.8-0.47256-36-1.0501-36-0.57758 0-4.005 3-7.6166 6.6667s-7.2886 6.6667-8.1712 6.6667c-0.88262 0-3.5038-2.3978-5.8249-5.3284l-4.2202-5.3284 3.7748-3.1696c23.025-19.334 23.299-19.504 31.441-19.505l7.6667-2e-3v92h-16zm-393.03-110.82c-13.141-6.5045-18.97-20.182-18.97-44.511 0-11.503 0.66047-17.208 2.8008-24.193 5.1086-16.672 19.008-26.068 34.946-23.623 12.388 1.9006 19.887 8.3152 25.088 21.461 2.6614 6.7262 3.0388 10.022 3.0183 26.354-0.0253 20.161-1.3201 25.885-8.0583 35.623-7.4913 10.826-26.24 15.118-38.825 8.8889zm24.583-18.037c4.2998-5.3124 6.4226-14.449 6.3056-27.141-0.1332-14.452-2.2881-22.03-7.8447-27.586-7.527-7.527-16.819-5.0658-22.211 5.8831-2.7421 5.5686-3.1366 8.2981-3.1366 21.703 0 13.689 0.35749 16.048 3.3333 22 5.7381 11.476 16.52 13.83 23.553 5.1409zm128.75 18.037c-13.141-6.5045-18.97-20.182-18.97-44.511 0-11.503 0.66047-17.208 2.8008-24.193 5.1086-16.672 19.008-26.068 34.946-23.623 12.388 1.9006 19.887 8.3152 25.088 21.461 2.6614 6.7262 3.0388 10.022 3.0183 26.354-0.0253 20.161-1.3201 25.885-8.0583 35.623-7.4913 10.826-26.24 15.118-38.825 8.8889zm24.583-18.037c4.2998-5.3124 6.4226-14.449 6.3056-27.141-0.1332-14.452-2.2881-22.03-7.8446-27.586-7.527-7.527-16.819-5.0658-22.211 5.8831-2.7421 5.5686-3.1366 8.2981-3.1366 21.703 0 13.689 0.35749 16.048 3.3333 22 5.7381 11.476 16.52 13.83 23.553 5.1409zm-91.553-16.474c0-19.8-0.47256-36-1.0501-36-0.57757 0-4.005 3-7.6166 6.6667-3.6115 3.6667-7.2886 6.6667-8.1712 6.6667s-3.5038-2.3978-5.8249-5.3284l-4.2202-5.3284 3.7748-3.1696c23.025-19.334 23.299-19.504 31.441-19.505l7.6667-2e-3v92h-16zm153.33 0c0-19.8-0.47256-36-1.0501-36-0.57757 0-4.005 3-7.6166 6.6667-3.6115 3.6667-7.2886 6.6667-8.1712 6.6667s-3.5038-2.3978-5.8249-5.3284l-4.2202-5.3284 3.7748-3.1696c23.025-19.334 23.299-19.504 31.441-19.505l7.6667-2e-3v92h-16zm77.333 0c0-19.8-0.47256-36-1.0501-36-0.57758 0-4.005 3-7.6166 6.6667s-7.2886 6.6667-8.1712 6.6667c-0.88262 0-3.5038-2.3978-5.8249-5.3284l-4.2202-5.3284 3.7748-3.1696c23.025-19.334 23.299-19.504 31.441-19.505l7.6667-2e-3v92h-16zm76 0c0-19.8-0.47256-36-1.0501-36-0.57758 0-4.005 3-7.6166 6.6667s-7.2886 6.6667-8.1712 6.6667c-0.88262 0-3.5038-2.3978-5.8249-5.3284l-4.2202-5.3284 3.7748-3.1696c23.025-19.334 23.299-19.504 31.441-19.505l7.6667-2e-3v92h-16z" fill="#fff" stroke-width="1.3333"/>
</svg>
