<?xml version="1.0" encoding="UTF-8"?>
<svg width="666.67" height="666.67" version="1.1" viewBox="0 0 666.67 666.67" xmlns="http://www.w3.org/2000/svg">
 <rect width="666.67" height="666.67" fill="#1f2283"/>
 <path d="m288.35 571.87c-6.3288-3.1327-7.577-4.2643-83.629-75.818-30.037-28.261-67.537-63.53-83.333-78.375-17.376-16.331-29.905-29.185-31.72-32.543-5.6077-10.375-3.4478-26.296 4.7374-34.92 9.0317-9.516 24.293-12.202 34.611-6.091 2.9839 1.7672 41.586 37.364 85.782 79.104 80.047 75.598 80.364 75.879 82.447 72.773 1.1497-1.7149 60.34-94.666 131.53-206.56 117.9-185.29 130-203.82 135.7-207.7 13.969-9.5001 31.117-6.006 41.245 8.4041 4.8073 6.84 6.2921 18.707 3.2512 25.985-2.6725 6.3963-281.59 444.8-286.11 449.7-8.074 8.7671-23.533 11.469-34.516 6.0326z" fill="#fff" stroke-width="1.3333"/>
</svg>
