<?xml version="1.0" encoding="UTF-8"?>
<svg width="666.67" height="666.67" version="1.1" viewBox="0 0 666.67 666.67" xmlns="http://www.w3.org/2000/svg">
 <rect width="666.67" height="666.67" fill="#1f2283"/>
 <path d="m318.91 568.44c-2.4349-1.2063-6.0349-4.3012-8-6.8776l-3.5728-4.6842v-196.42l3.5914-4.7086c7.3979-9.6991-0.45309-9.1676 129.56-8.772 115.46 0.35125 116.69 0.38297 120.34 3.1039 2.0249 1.512 4.9187 4.406 6.4307 6.4311 2.7185 3.6411 2.749 4.7778 2.749 102.15 0 97.375-0.0305 98.512-2.749 102.15-1.512 2.0251-4.4058 4.9191-6.4307 6.4311-3.6451 2.7218-4.8395 2.7522-120.58 3.0637-106.21 0.28589-117.31 0.114-121.33-1.8786zm222.43-24.105c9.4438-4.7177 9.329-3.7574 9.3313-77.998l2e-3 -66.333-88.333-0.2185c-48.583-0.12014-99.133-0.27019-112.33-0.33334l-24-0.1148-0.33799 66.667c-0.31072 61.287-0.14933 67.043 2 71.333 4.8797 9.74 0.0207 9.3292 110.34 9.3292 91.267 0 99.017-0.17484 103.33-2.3313zm-288.67-55.832c-1.4667-0.28883-5.9667-1.1796-10-1.9794-9.9072-1.9647-26.88-10.093-36.842-17.644-15.885-12.041-29.865-33.354-34.898-53.204l-2.2601-8.9129-8.6667 7.4043c-10.071 8.6039-13.705 10.315-19.572 9.2139-8.7892-1.6489-13.973-13.544-9.3803-21.523 1.533-2.6631 36.545-33.386 43.583-38.244 4.7125-3.2529 13.378-2.9118 18.851 0.74189 2.4857 1.6596 12.77 8.3164 22.855 14.793 10.085 6.4764 19.535 13.299 21 15.162 5.7756 7.3424 1.5146 19-7.9849 21.846-6.2318 1.8671-8.033 1.209-22.526-8.2312l-8.5087-5.5421 0.93957 5.1438c1.7282 9.4611 9.5106 23.479 17.673 31.834 10.046 10.282 21.267 16.209 36.658 19.362 13.612 2.7888 17.862 5.656 19.236 12.976 2.0904 11.143-7.6533 19.266-20.156 16.804zm-155.09-174.73c-2.4349-1.2063-6.0349-4.3012-8-6.8776l-3.5728-4.6842v-196.42l3.5914-4.7086c7.3979-9.6991-0.4531-9.1676 129.56-8.7721 115.46 0.35125 116.69 0.38297 120.34 3.1039 2.0249 1.512 4.9187 4.406 6.4307 6.4311 2.7185 3.6411 2.749 4.7778 2.749 102.15 0 97.375-0.0305 98.512-2.749 102.15-1.512 2.0251-4.4058 4.9191-6.4307 6.4311-3.6451 2.7218-4.8395 2.7522-120.58 3.0637-106.21 0.2859-117.31 0.114-121.33-1.8786zm222.43-24.105c9.4438-4.7177 9.329-3.7574 9.3313-77.998l2e-3 -66.333-88.333-0.21851c-48.583-0.12013-99.133-0.27018-112.33-0.33333l-24-0.1148-0.33799 66.667c-0.31072 61.287-0.14934 67.043 2 71.333 4.8797 9.74 0.0207 9.3292 110.34 9.3292 91.267 0 99.017-0.17484 103.33-2.3312zm157.19 4.6513c-2.4857-1.6596-12.77-8.3164-22.855-14.793-10.085-6.4764-19.535-13.299-21-15.162-6.8046-8.6507 0.90076-23.027 12.342-23.027 1.7262 0 6.106 1.8846 9.7329 4.1879 3.6269 2.3033 8.9217 5.6597 11.766 7.4586l5.1719 3.2707-0.93608-5.1252c-1.7248-9.4435-9.513-23.467-17.67-31.815-10.046-10.282-21.267-16.209-36.658-19.362-13.553-2.7768-17.863-5.6593-19.212-12.85-1.602-8.5396 5.5803-17.746 13.855-17.76 13.853-0.0225 38.756 9.5662 53.119 20.453 15.885 12.041 29.865 33.354 34.898 53.204l2.2601 8.9129 8.6667-7.4043c10.071-8.6039 13.705-10.315 19.572-9.2139 8.7892 1.6488 13.973 13.544 9.3803 21.523-1.533 2.6631-36.545 33.386-43.583 38.244-4.7125 3.2529-13.378 2.9118-18.851-0.74189z" fill="#fff" stroke-width="1.3333"/>
</svg>
