<?xml version="1.0" encoding="UTF-8"?>
<svg width="666.67" height="666.67" version="1.1" viewBox="0 0 666.67 666.67" xmlns="http://www.w3.org/2000/svg">
 <rect width="666.67" height="666.67" fill="#1f2283"/>
 <path d="m105.33 510.33c0-0.25433 8.9248-19.333 19.833-42.397l19.833-41.935-12.28-12.667c-13.974-14.414-21.296-24.69-28.781-40.392-8.117-17.028-9.9383-25.508-9.9383-46.274 0-20.806 1.8188-29.242 10.008-46.42 7.809-16.38 17.387-29.366 32.016-43.407 34.804-33.406 88.098-56.956 148.24-65.505 7.5559-1.074 16.288-1.9638 19.405-1.9772l5.6667-0.0244v113.23l42.877 42.104-19.764 18c-10.87 9.8999-21.418 19.604-23.438 21.564l-3.6743 3.5641v116.21l-3.6667-0.0244c-6.7266-0.0448-30.962-3.8895-46.536-7.3825-17.488-3.9222-41.762-11.989-56.366-18.732l-9.9015-4.5716-5.4318 3.5824c-2.9875 1.9703-18.932 12.966-35.432 24.434-38.192 26.546-42.667 29.59-42.667 29.026zm425.33-22.589c-17.966-12.487-36.602-25.351-41.415-28.586l-8.7494-5.8816-9.9172 4.5788c-33.114 15.289-75.975 25.083-118.25 27.023l-19 0.87164v-105.32l23.667-21.739c30.906-28.389 29.667-26.965 29.667-34.077 0-5.9039-0.02-5.9282-24.667-30.121l-24.667-24.212v-102.69l17 0.89062c44.875 2.351 85.694 12.422 123 30.348 22.298 10.714 40.206 22.875 55.976 38.011 14.629 14.041 24.207 27.027 32.016 43.407 8.1895 17.178 10.008 25.614 10.008 46.42 0 20.766-1.8212 29.247-9.9383 46.274-7.4854 15.703-14.807 25.978-28.781 40.392l-12.28 12.667 19.818 41.904c10.9 23.047 19.674 42.048 19.498 42.224-0.17609 0.17609-15.019-9.8969-32.985-22.384z" fill="#fff" stroke-width="1.3333"/>
</svg>
