<?xml version="1.0" encoding="UTF-8"?>
<svg width="666.67" height="666.67" version="1.1" viewBox="0 0 666.67 666.67" xmlns="http://www.w3.org/2000/svg">
 <rect width="666.67" height="666.67" fill="#1f2283"/>
 <path d="m307.33 591.96c-86.004-9.7055-162.89-63.759-200.04-140.63-16.992-35.165-27.047-78.942-25.724-112l0.42681-10.667h116l0.42606-3c0.4207-2.9622 0.68402-3 20.87-3h20.444l2.7908-9c1.5349-4.95 4.7919-12.844 7.2378-17.541l4.447-8.5414-13.161-11.967c-7.2383-6.582-12.987-12.475-12.775-13.095 0.65814-1.9225 24.319-27.642 25.53-27.752 0.62908-0.0569 7.32 5.6159 14.869 12.606l13.725 12.71 6.7586-3.985c3.7172-2.1918 11.426-5.6129 17.131-7.6025 5.705-1.9896 10.655-3.8476 10.999-4.1289 0.34463-0.28124 0.54903-9.1794 0.45423-19.774l-0.17235-19.262h39.758v20c0 18.906 0.14148 20 2.5872 20 3.4214 0 20.763 6.2288 27.09 9.73l5.0105 2.7729 4.3228-3.9755c2.3776-2.1866 8.9723-8.2974 14.655-13.58l10.332-9.6041 26.908 28.656-27.315 25.644 4.7653 7.8448c2.6209 4.3146 6.2571 12.275 8.0803 17.689 1.8232 5.4144 3.9536 10.239 4.7342 10.722s10.137 0.71624 20.791 0.51956l19.372-0.3576v41.272h-40.727l-1.7661 7.6667c-0.97138 4.2167-3.993 12.18-6.7147 17.696l-4.9485 10.03 14.411 13.143c7.9263 7.2284 14.404 13.515 14.395 13.97-0.0211 1.0428-24.082 27.336-25.57 27.942-0.60415 0.24615-7.686-5.6783-15.737-13.165l-14.639-13.613-3.6851 2.4711c-5.7198 3.8354-16.006 8.585-25.605 11.823l-8.7467 2.9507 0.24846 18.21 0.24847 18.21h-39.83v-36.743l-9-2.3338c-4.95-1.2836-13.8-4.9145-19.667-8.0686l-10.667-5.7348-31.304 28.898-26.9-28.685 30.597-28.724-4.5693-8.9715c-2.5131-4.9343-5.6566-12.872-6.9855-17.638l-2.4162-8.6667-40.422 0.59222v-7.9256h-87.538l0.49061 4.3333c4.9877 44.054 18.805 80.26 43.098 112.93 54.482 73.272 147.34 106.08 236.35 83.503 25.978-6.5899 54.31-20.157 77.21-36.973 14.041-10.311 38.153-34.723 47.911-48.506 22.39-31.629 35.518-64.978 40.481-102.84 7.3809-56.304-7.0538-112.62-41.123-160.45-9.4871-13.318-33.622-37.874-46.856-47.674-21.77-16.12-51.167-30.185-77.169-36.921-26.888-6.9654-35.376-7.4052-142.92-7.4052h-99.265v14c0 7.7-0.35511 14-0.78912 14-1.051 0-47.762-40.049-48.286-41.4-0.22492-0.57943 10.575-10.502 24-22.05l24.409-20.996 0.75976 28.729 105.62-0.40124c112.28-0.42653 113.58-0.36929 139.62 6.117 67.101 16.716 123.24 58.47 158.2 117.65 57.352 97.112 43.147 221.08-34.672 302.59-38.814 40.654-87.101 66.296-142.86 75.863-14.41 2.4727-53.166 3.5311-68 1.857zm53.073-199.12c8.6528-3.8267 19.703-13.608 24.37-21.572 21.375-36.474-7.4678-83.438-49.275-80.231-13.051 1.0013-22.834 4.9882-31.761 12.945-15.787 14.071-21.887 34.163-16.508 54.372 4.7168 17.719 20.505 32.912 39.094 37.622 8.571 2.1717 25.626 0.60226 34.078-3.136zm-237.74-169.08c-12.833-11.062-23.517-20.585-23.742-21.163-0.22492-0.57786 10.575-10.499 24-22.047l24.409-20.996 0.75688 28.446h106.58v28h-106.67v14c0 7.7-0.45 13.971-1 13.936-0.55-0.0351-11.5-9.1143-24.333-20.176z" fill="#fff" stroke-width="1.3333"/>
</svg>
