<?xml version="1.0" encoding="UTF-8"?>
<svg width="666.67" height="666.67" version="1.1" viewBox="0 0 666.67 666.67" xmlns="http://www.w3.org/2000/svg">
 <rect x="-.0016479" y="-.0016479" width="666.67" height="666.67" fill="#1f2283"/>
 <path d="m228.58 559.6c-0.36912-0.96191-0.50172-9.2156-0.29467-18.342l0.37645-16.593 80.667-0.70578v-63.961l-87-0.0293c-81.837-0.0276-87.316-0.17581-92.333-2.4985-2.9333-1.3581-6.9515-4.1949-8.9293-6.304-8.09-8.6274-7.7374-2.5584-7.7374-133.17s-0.35262-124.54 7.7374-133.17c1.9778-2.1091 5.9959-4.946 8.9293-6.304 5.0293-2.3285 10.674-2.4709 99-2.4985l93.667-0.0293-4e-5 -22.333-4e-5 -22.333-4.8076-3.836c-14.876-11.869-11.979-34.255 5.4744-42.311 6.7714-3.1252 13.229-3.1252 20 0 17.849 8.2379 20.336 30.382 4.8124 42.856l-5.4791 4.4031v43.554l91 0.0293c85.731 0.0276 91.309 0.17227 96.333 2.4985 2.9333 1.3581 6.9515 4.1949 8.9293 6.3041 8.09 8.6274 7.7374 2.5584 7.7374 133.17 0 130.61 0.35262 124.54-7.7374 133.17-1.9778 2.1091-5.9959 4.946-8.9293 6.3041-5.0168 2.3227-10.496 2.471-92.333 2.4985l-87 0.0292v63.962l83.333 0.70466v36l-102.37 0.34162c-83.477 0.27856-102.5 0.0188-103.04-1.4073zm277.74-128.32c6.6118-2.7626 9.5853-5.6054 12.498-11.949 2.305-5.0196 2.4491-11.021 2.4491-102 0-90.979-0.14409-96.98-2.4491-102-2.9131-6.3438-5.8865-9.1866-12.498-11.949-4.3307-1.8095-25.082-2.0508-176.33-2.0508s-172 0.24136-176.33 2.0508c-6.6118 2.7626-9.5853 5.6054-12.498 11.949-2.3039 5.0171-2.4508 11.048-2.4784 101.71-0.0255 83.759 0.23921 97.019 2.0216 101.28 2.7626 6.6118 5.6054 9.5853 11.949 12.498 5.0866 2.3358 13.278 2.4504 177.04 2.4784 151.55 0.0259 172.29-0.21149 176.62-2.0216zm-222.06-51.549c-0.88-0.88-1.6-2.9662-1.6-4.6359 0-6.1074 2.8684-6.4572 49.712-6.0616l43.712 0.36914 1.4256 3.1289c1.0277 2.2556 1.0021 3.9202-0.0919 5.9642-1.5015 2.8056-1.9893 2.8353-46.537 2.8353-33.238 0-45.438-0.41874-46.62-1.6zm-58.278-62.36c-7.7498-3.0785-15.727-10.327-19.496-17.714-9.6268-18.87 1.3899-43.68 22.063-49.686 17.594-5.1117 34.822 2.7226 42.576 19.36 3.9265 8.4256 3.8702 22.618-0.11987 30.179-8.8772 16.823-28.269 24.516-45.023 17.861zm20.04-19.476c9.3855-4.4537 11.092-17.391 3.3194-25.164-3.4399-3.4399-5.085-4.0661-10.681-4.0661-5.633 0-7.2348 0.61944-10.787 4.1711-6.108 6.108-6.8373 14.361-1.7983 20.35 5.8915 7.0016 12.052 8.4561 19.947 4.7095zm159.96 19.476c-7.7498-3.0785-15.727-10.327-19.496-17.714-9.6268-18.87 1.3899-43.68 22.063-49.686 17.594-5.1117 34.822 2.7226 42.576 19.36 3.9265 8.4256 3.8702 22.618-0.11987 30.179-8.8772 16.823-28.269 24.516-45.023 17.861zm20.04-19.476c9.3855-4.4537 11.092-17.391 3.3194-25.164-3.4399-3.4399-5.085-4.0661-10.682-4.0661-5.633 0-7.2348 0.61944-10.787 4.1711-6.108 6.108-6.8373 14.361-1.7983 20.35 5.8915 7.0016 12.052 8.4561 19.947 4.7095z" fill="#fff" stroke-width="1.3333"/>
</svg>
