<?xml version="1.0" encoding="UTF-8"?>
<svg width="666.67" height="666.67" version="1.1" viewBox="0 0 666.67 666.67" xmlns="http://www.w3.org/2000/svg">
 <rect width="666.67" height="666.67" fill="#1f2283"/>
 <path d="m489.79 578.1c-1.5824-1.145-13.187-16.26-25.788-33.588l-22.911-31.507 0.80703-6.1706c0.44388-3.3938 0.92712-7.3706 1.0739-8.8373 0.16567-1.6556-14.557-22.958-38.83-56.185l-39.097-53.519-12.703 5.3078c-6.9867 2.9193-18.472 6.8557-25.522 8.7476-11.682 3.1345-15.127 3.4424-38.819 3.4691-23.949 0.0271-27.022-0.24708-38.961-3.4757-27.463-7.4268-48.729-18.364-68.1-35.024-34.253-29.459-54.561-71.208-56.555-116.26-2.1392-48.341 14.376-91.118 48.262-125 24.424-24.424 53.658-39.363 89.172-45.569 17.633-3.0809 47.66-1.8766 64.961 2.6052 48.406 12.54 86.248 42.684 107.9 85.946 18.318 36.608 22.38 79.887 11.151 118.81-7.8965 27.372-21.2 50.012-41.333 70.339l-12.172 12.289 78.267 107.34 6.5674 0.0952c4.4564 0.0647 7.4587 0.90178 9.3401 2.6044 1.525 1.3801 12.823 16.353 25.108 33.274 28.697 39.528 28.651 39.105 6.113 55.823-10.625 7.8815-13.825 9.5783-18.92 10.03-4.1645 0.36946-7.0549-0.124-9.0088-1.5379zm-178.3-192.17c52.235-9.109 93.992-43.17 112.13-91.467 7.3308-19.517 9.0631-29.832 8.924-53.136-0.10574-17.691-0.61398-22.505-3.5303-33.432-7.2893-27.312-19.32-48.725-37.998-67.63-44.801-45.346-115.32-55.736-172.35-25.392-74.489 39.634-98.697 137.87-51.478 208.9 31.019 46.66 89.27 71.75 144.3 62.154zm-44.82-23.269c0-3.9596-0.0741-4-7.3333-4h-7.3333v-9.3333h68.177l-0.42189 3.6667c-0.38526 3.3482-1.0009 3.7246-7.0886 4.3333-6.3859 0.63858-6.6843 0.84917-7.0845 5l-0.41782 4.3333h-38.498zm-16.524-22.109c-2.2972-5.9863-2.8798-5.891 36-5.891 33.018 0 36.726 0.21725 36 2.109-0.44513 1.16-0.80932 2.96-0.80932 4 0 1.5846-5.7009 1.891-35.191 1.891-30.859 0-35.29-0.25959-36-2.109zm-4.5527-25.1c-4.6046-18.843-17.385-47.442-28.552-63.891-9.7653-14.384-15.704-32.877-15.704-48.9 0-26.344 13.958-53.4 35.506-68.822 50.437-36.099 120.63-8.7892 133.05 51.766 4.8791 23.785 0.612 43.934-14.484 68.39-12.333 19.981-27.233 53.524-30.65 69l-0.80943 3.6667h-75.62z" fill="#fff" stroke-width="1.3333"/>
</svg>
