<?xml version="1.0" encoding="UTF-8"?>
<svg width="666.67" height="666.67" version="1.1" viewBox="0 0 666.67 666.67" xmlns="http://www.w3.org/2000/svg">
 <rect width="666.67" height="666.67" fill="#1f2283"/>
 <path d="m161.92 583.4c-3.5214-2.111-6.7839-5.7186-9.3333-10.321l-3.9195-7.0752v-270.67l3.8968-7.0335c7.0126-12.657 7.752-12.861 49.437-13.633l36-0.66667 0.20749-65.706 0.2075-65.707 3.573-8.9602c12.049-30.215 36.003-51.193 67.569-59.176 15.056-3.8072 37.145-3.0022 52.148 1.9004 27.275 8.9131 49.579 29.998 59.93 56.656l3.8142 9.8227 0.27594 65.585 0.27594 65.585 36.667 0.66667c42.44 0.77164 43.073 0.94373 50.103 13.633l3.8968 7.0335v270.67l-3.9329 7.0998c-2.6297 4.7472-5.7612 8.1713-9.4505 10.333l-5.5176 3.2335-330.43-0.0252zm172.34-43.063c1.882-2.0167 26.444-43.838 54.582-92.935 39.589-69.078 51.16-90.287 51.16-93.769 0-6.5911-6.0698-12.295-13.083-12.295-3.113 0-6.4051 0.95976-8.0036 2.3333-1.4935 1.2833-23.192 38.033-48.219 81.667-25.027 43.633-45.998 79.83-46.602 80.436-0.89006 0.89368-41.412-45.693-63.266-72.734-3.6648-4.5347-6.3653-6.5369-9.647-7.1526-9.4929-1.7809-17.586 5.653-16.104 14.791 0.50905 3.137 10.585 15.954 38.184 48.572 20.621 24.371 38.459 45.786 39.64 47.59 5.0639 7.7286 15.773 9.4819 21.358 3.497zm64.088-329.15 0.34627-62.82-5.425-10.839c-10.896-21.769-28.415-34.242-52.875-37.644-27.847-3.8732-57.864 12.561-70.09 38.373l-4.302 9.0828-0.37224 61.937c-0.20472 34.065-0.0713 62.721 0.29632 63.679 0.54029 1.408 13.273 1.6759 66.372 1.3963l65.704-0.34592z" fill="#fff" stroke-width="1.3333"/>
</svg>
