<?xml version="1.0" encoding="UTF-8"?>
<svg width="666.67" height="666.67" version="1.1" viewBox="0 0 666.67 666.67" xmlns="http://www.w3.org/2000/svg">
 <rect width="666.67" height="666.67" fill="#1f2283"/>
 <path d="m102 485.41c-1.4667-0.60355-3.8667-2.4311-5.3333-4.0612-2.6322-2.9255-2.6712-5.0912-3.0155-167.37l-0.3488-164.41 8.2361-8.236h466.26l8.2361 8.236-0.6976 329.04-7.3938 7.3936-231.64 0.25472c-127.4 0.14009-232.84-0.2391-234.3-0.84263zm442-156.08v-128h-418.67v256h418.67zm-341.68 33.657-32.99-33.01 67.365-67.326 9.979 9.979-56.646 56.692 15.989 16.338c8.7939 8.9856 21.364 21.877 27.934 28.648l11.945 12.311-4.5448 4.689c-2.4996 2.579-4.8816 4.689-5.2933 4.689-0.41164 0-15.594-14.854-33.738-33.01zm232.32 28.321-4.5448-4.689 11.945-12.311c6.5698-6.771 19.14-19.663 27.934-28.648l15.989-16.338-56.687-56.733 10.117-9.8794 67.268 67.307-33.01 32.99c-18.156 18.145-33.338 32.99-33.739 32.99s-2.7738-2.1101-5.2734-4.689zm-287.02-208.21c15.323-7.2712 6.3598-32.762-10.238-29.116-6.0142 1.321-10.509 5.5945-12.101 11.504-2.1765 8.0828 0.12684 13.611 7.1112 17.069 6.7757 3.354 9.1275 3.4379 15.227 0.54335zm45.333 0c15.323-7.2712 6.3598-32.762-10.238-29.116-6.0142 1.321-10.509 5.5945-12.101 11.504-2.1765 8.0828 0.1268 13.611 7.1112 17.069 6.7757 3.354 9.1275 3.4379 15.227 0.54335zm44 0c15.323-7.2712 6.3598-32.762-10.238-29.116-6.0142 1.321-10.509 5.5945-12.101 11.504-2.1765 8.0828 0.1268 13.611 7.1112 17.069 6.7757 3.354 9.1275 3.4379 15.227 0.54335z" fill="#fff" stroke-width="1.3333"/>
</svg>
