<?xml version="1.0" encoding="UTF-8"?>
<svg width="666.67" height="666.67" version="1.1" viewBox="0 0 666.67 666.67" xmlns="http://www.w3.org/2000/svg">
 <rect width="666.67" height="666.67" fill="#1f2283"/>
 <path d="m117.69 616.92c-2.3723-0.87528-10.908-7.2675-18.967-14.205-18.402-15.84-21.867-23.037-16.796-34.89 2.8573-6.6797 74.687-88.001 80.31-90.922 2.5684-1.3342 6.445-2.4763 8.6145-2.538 4.2953-0.12213-1.9019 6.8055 163.74-183.04 38.391-44 71.624-81.942 73.851-84.315l4.049-4.3148-9.9818-8.7037 4.087-5.5186c5.0669-6.8416 7.41-17.616 5.3096-24.414-8.1494-26.375-15.275-37.032-37.993-56.819-12.892-11.229-18.061-14.228-32.576-18.904-21.664-6.9789-25.704-8.0606-35.863-9.6009-11.899-1.8042-12.137-1.9341-12.137-6.6158 0-7.0515 2.9786-8.128 22.491-8.128 22.696 0 39.676 1.9387 58.402 6.6682 28.533 7.2061 60.59 20.99 77.078 33.141 5.1176 3.7716 9.7067 6.8574 10.198 6.8574s16.704 13.828 36.029 30.73l35.135 30.73 0.9647 9.2759c1.201 11.548 9.3405 29.422 18.101 39.75l6.0666 7.1519 5.4338-6.1012c3.911-4.3913 6.7856-6.3345 10.257-6.9339 4.5358-0.78303 5.471-0.26144 15.667 8.7376 16.03 14.148 16.31 13.027-11.166 44.66-18.953 21.821-22.675 25.474-26.841 26.349-5.2078 1.0938-7.5347-0.35016-21.483-13.332-7.808-7.267-7.8779-12.678-0.27035-20.931l5.3963-5.8543-4.406-3.3606c-6.044-4.61-17.656-9.8418-25.996-11.713-6.1909-1.3887-7.9233-1.2286-16 1.4784-4.9816 1.6696-11.283 4.1594-14.004 5.5326-6.58 3.3213-7.2211 3.2268-13.606-2.0048l-5.4937-4.5017-11.608 13.502c-6.3845 7.4259-12.987 15.002-14.673 16.835-1.6855 1.8333-16.939 19.233-33.897 38.667-16.958 19.433-63.885 73.133-104.28 119.33-43.915 50.221-73.463 85.072-73.48 86.667-0.0905 8.7437-3.2314 13.056-40.493 55.595-38.391 43.828-42.703 47.84-51.231 47.663-1.9918-0.0413-5.5624-0.7914-7.9347-1.6667z" fill="#fff" stroke-width="1.3333"/>
</svg>
