<?xml version="1.0" encoding="UTF-8"?>
<svg width="666.67" height="666.67" version="1.1" viewBox="0 0 666.67 666.67" xmlns="http://www.w3.org/2000/svg">
 <rect width="666.67" height="666.67" fill="#1f2283"/>
 <path d="m300 565.95c-9.9-1.7465-18.704-3.2002-19.564-3.2304-3.3001-0.11587-9.7009-7.003-10.508-11.307-1.1099-5.9164 2.3673-12.45 7.8434-14.738 3.7141-1.5518 6.9936-1.347 25.578 1.5975 11.725 1.8576 22.719 3.6304 24.433 3.9393 4.0212 0.72524 9.2027 5.9314 10.315 10.364 2.0213 8.0534-6.1255 16.843-15.43 16.648-2.5667-0.0539-12.767-1.5269-22.667-3.2734zm63.227-0.40799c-7.7886-4.8595-9.0225-13.786-2.8842-20.867 2.5087-2.8939 5.3449-3.8723 17.606-6.0734 8.0384-1.4431 21.12-4.179 29.07-6.0799 16.539-3.9546 20.666-3.2919 25.135 4.0368 3.0551 5.01 3.1419 7.6912 0.4193 12.956-2.9098 5.6269-9.9056 8.3608-33.33 13.025-29.404 5.855-31.203 6.005-36.015 3.0024zm-150.95-28.955c-19.834-5.8639-28.287-11.901-28.27-20.189 8e-3 -4.1048 4.8172-10.531 9.2563-12.37 3.8969-1.6141 5.6243-1.2982 21.158 3.8702 19.138 6.3676 22.914 9.2044 22.914 17.211 0 6.1621-3.002 10.608-8.7981 13.03-2.4473 1.0226-4.6189 1.8272-4.8258 1.7882-0.20689-0.0391-5.3524-1.5422-11.434-3.3404zm246.92-2.4553c-3.4732-3.4731-4.5333-5.6536-4.5333-9.3236 0-4.0909 1.4115-6.3256 9.6667-15.305 5.3167-5.7829 12.562-15.396 16.102-21.361 6.2794-10.585 10.996-14.817 16.499-14.805 4.1223 8e-3 10.534 4.8248 12.391 9.3074 2.3412 5.6522 0.64296 10.448-8.9315 25.219-9.6802 14.935-15.854 22.166-22.955 26.884-7.8998 5.2496-12.529 5.0933-18.238-0.61578zm-316.53-33.475c-3.3-0.9775-10.08-1.8256-15.066-1.8846-5.2933-0.0627-10.694-0.94899-12.977-2.1299-3.957-2.0462-7.9564-8.0668-7.9564-11.977 0-4.0278 4.0497-9.9572 8.3028-12.157 3.4366-1.7771 6.5821-2.0482 16.311-1.4054 23.344 1.5423 34.053 7.0652 34.053 17.562 0 6.2835-5.6986 12.582-12 13.264-2.5667 0.27772-7.3667-0.29484-10.667-1.2723zm357.8-54.227c-4.0335-1.952-6.8843-8.4652-7.6336-17.44-0.61733-7.3946-1.4883-9.4393-11.522-27.048-3.5789-6.281-2.9944-11.047 1.9628-16.004 8.0354-8.0355 16.524-5.1257 25.493 8.7385 10.718 16.568 15.55 37.862 10.523 46.372-3.8028 6.4376-11.873 8.745-18.823 5.3816zm-322.39-72.419c-4.3585-1.7917-11.045-5.4071-14.86-8.0342-9.1398-6.2948-21.511-19.37-22.661-23.948-2.0873-8.3164 7.7535-18.247 16.025-16.171 1.9404 0.48701 6.9537 4.0268 11.141 7.8663 10.41 9.5457 14.607 12.353 23.369 15.631 9.1401 3.4198 12.91 7.7785 12.91 14.926 0 4.0316-0.90799 6.1641-3.8974 9.1535-4.9364 4.9364-11.033 5.096-22.027 0.57652zm267.34-8.5223c-6.2926-6.7369-11.95-10.15-24.786-14.953-7.6147-2.849-12.611-8.2341-12.623-13.604-0.016-7.7367 8.9542-15.19 16.513-13.72 7.9176 1.5395 24.184 8.8451 30.756 13.813 8.7794 6.6368 15.393 15.443 15.393 20.497 0 8.3918-5.7892 14.4-13.919 14.446-4.5841 0.0259-6.0268-0.79903-11.333-6.4803zm-208.4 0.48687c-3.8716-2.1687-7.6867-8.2524-7.6784-12.244 0.012-5.8194 4.8866-10.558 15.171-14.746 5.588-2.2759 14.901-7.479 20.695-11.562 8.1621-5.752 11.639-7.4244 15.435-7.4244 10.471 0 16.669 13.254 10.103 21.602-3.711 4.7178-21.298 16.578-31.326 21.124-10.913 4.9483-17.629 5.923-22.399 3.251zm128.98-27.515c-4.4166-1.4917-13.375-3.0252-20-3.4236-6.6-0.39689-13.64-1.5531-15.644-2.5693-3.7236-1.888-7.6892-7.9751-7.6892-11.803 0-4.022 4.0472-9.9559 8.285-12.147 9.1515-4.7324 46.469 1.4227 54.584 9.003 5.2604 4.914 5.3161 12.769 0.13106 18.46-4.732 5.1936-9.7561 5.8271-19.667 2.4798zm-232.52-28.542c-5.4804-4.6115-6.2179-9.9195-3.7514-27.003 2.6936-18.657 6.5448-28.977 12.071-32.346 5.2723-3.2148 8.4391-3.228 13.639-0.0569 6.9467 4.2361 8.0092 9.0034 4.7218 21.187-1.5454 5.7272-3.3523 15.766-4.0154 22.308-1.1078 10.929-1.5431 12.196-5.3635 15.61-5.4326 4.854-11.76 4.9642-17.301 0.30135zm389.85-75.119c-2.2-1.3873-12.384-10.977-22.631-21.31l-18.631-18.788-20.133 19.982c-19.598 19.451-20.283 19.982-25.79 19.982-3.1115 0-6.8117-0.61778-8.2226-1.3728-3.4794-1.8621-6.5849-8.2142-6.6297-13.561-0.0331-3.9442 2.1337-6.5088 20.934-24.778l20.971-20.378-14.676-14.955c-22.575-23.005-25.858-27.007-25.858-31.529 0-6.2434 2.7717-10.767 7.921-12.927 8.9-3.7332 11.444-2.2007 32.745 19.725l19.575 20.149 12.213-11.904c28.021-27.313 29.465-28.47 35.533-28.47 7.9241 0 13.346 5.5172 13.346 13.58 0 5.6876-0.34785 6.1327-20.584 26.337l-20.584 20.552 19.917 21.039c19.025 20.097 19.917 21.284 19.917 26.52 0 7.1911-1.8912 10.451-7.3978 12.752-5.8623 2.4494-7.1373 2.3805-11.936-0.64521zm-349.08-11.354c-3.9509-3.6616-5.5801-8.6167-4.3909-13.355 1.0318-4.111 18.798-27.864 25.637-34.274 2.8448-2.6669 7.4111-5.6334 10.147-6.5922 4.3087-1.5098 5.6054-1.4427 9.6813 0.50094 5.6917 2.7142 9.4554 9.6573 8.1197 14.979-0.50436 2.0096-4.1496 6.7229-8.1004 10.474-3.9509 3.7511-10.551 11.577-14.666 17.391-4.1154 5.8139-8.5011 11.345-9.7461 12.291-3.9077 2.9697-12.761 2.219-16.682-1.4146zm203.13-62.057c-1.075-0.67992-9.9246-3.4521-19.666-6.1604-20.99-5.836-24.38-8.2707-24.38-17.514 0-4.7662 0.76001-6.6807 3.8974-9.8182 2.4035-2.4035 5.2922-3.8974 7.5361-3.8974 4.5153 0 37.218 8.9244 42.292 11.541 4.0846 2.1065 8.9282 9.076 8.9361 12.858 0.0184 8.8545-11.95 17.206-18.616 12.99zm-127.89-2.2305c-3.9871-2.7927-6.7735-9.4809-5.8854-14.127 0.38204-1.9986 2.2146-5.1537 4.0723-7.0114 6.8481-6.8481 29.01-15.354 40.004-15.354 6.0427 0 11.856 3.2352 14.298 7.9564 2.5401 4.9121 2.5401 7.1752 0 12.087-2.5371 4.9061-7.3327 7.3599-16.382 8.3821-4.1416 0.46785-10.909 2.7547-16.335 5.5198-10.207 5.2016-15.084 5.8299-19.771 2.5468z" fill="#fff" stroke-width="1.3333"/>
</svg>
