<?xml version="1.0" encoding="UTF-8"?>
<svg width="666.67" height="666.67" version="1.1" viewBox="0 0 666.67 666.67" xmlns="http://www.w3.org/2000/svg">
 <rect width="666.67" height="666.67" fill="#1f2283"/>
 <path d="m324 581.76c-120.77-7.4726-218.37-97.155-234.08-215.09-2.4163-18.137-2.3864-50.356 0.062654-67.583 12.836-90.288 73.27-165.61 159.35-198.62 14.16-5.4294 42.272-12.097 58.4-13.852 29.317-3.1899 63.1-0.72582 92.314 6.7331 62.563 15.974 118.97 59.604 151.92 117.51 15.585 27.388 27.041 62.192 30.709 93.295 2.3353 19.802 1.0971 56.164-2.5767 75.67-18.168 96.462-94.161 174.82-190.13 196.06-19.223 4.2528-49.164 6.9232-65.967 5.8835zm-19.982-32.164c-10.988-7.5009-36.618-29.149-43.823-37.015-10.096-11.021-24.976-32.891-32.331-47.52-4.7059-9.3596-5.6314-10.444-8.2488-9.664-9.7352 2.9008-48.948 22.617-48.948 24.611 0 2.0527 25.1 24.361 37.008 32.892 14.205 10.177 38.151 22.705 54.325 28.424 12.868 4.55 36.537 10.474 42 10.512l3.3333 0.0232zm78.216-0.38172c33.267-7.2075 68.159-23.942 93.766-44.971 10.359-8.5073 25.333-23.239 25.333-24.924 0-2.1974-45.682-24.653-50.153-24.653-0.26628 0-2.8528 4.7111-5.7479 10.469-7.3216 14.562-22.216 36.445-32.294 47.446-7.2057 7.8659-32.836 29.514-43.823 37.015-4.3865 2.9945-2.3927 2.9356 12.919-0.38172zm-60.901-64.735v-43.52l-28.333 0.72358c-23.386 0.59723-41.219 2.3805-43.423 4.3422-0.90835 0.80842 6.7539 14.327 15.721 27.737 11.316 16.923 22.645 28.776 41.369 43.281 7.7 5.9651 14.15 10.871 14.333 10.901 0.18333 0.0307 0.33333-19.528 0.33333-43.465zm44.434 33.187c18.665-14.218 30.912-26.923 42.144-43.719 9.0721-13.567 16.757-27.11 15.845-27.922-2.231-1.9856-20.159-3.7521-44.09-4.3442l-29-0.71755v43.518c0 23.935 0.34544 43.518 0.76765 43.518 0.42222 0 6.8722-4.65 14.333-10.333zm-164.84-84.499c5.7215-2.2775 10.614-4.3336 10.873-4.569 0.25877-0.23548-1.401-6.9164-3.6882-14.847-2.2873-7.9301-5.6584-19.607-7.4913-25.949-2.3574-8.1564-3.5817-16.447-4.1842-28.333l-0.85161-16.803h-79.988l0.84716 11.935c1.0824 15.248 5.1948 34.192 11.131 51.276 4.7396 13.64 18.328 41.769 23.121 47.862l2.6191 3.3296 18.605-9.8802c10.232-5.4341 23.286-11.744 29.007-14.021zm322.95 16.349c16.315-25.425 29.553-65.1 31.67-94.915l0.84716-11.935h-80.007l-0.90516 14.001c-1.1554 17.871-5.1652 40.235-10.354 57.751-2.2408 7.5635-3.8624 13.944-3.6036 14.18 0.25876 0.23548 5.0669 2.2576 10.685 4.4936 5.6178 2.236 18.218 8.2957 28 13.466 9.7822 5.1703 18.173 9.4099 18.647 9.4214 0.47356 0.012 2.7332-2.8968 5.0214-6.4627zm-279.87-30.915c8.2289-2.4705 38.761-5.2145 58.325-5.2418l19-0.0265v-70.667h-45.037c-55.694 0-51.645-1.4846-50.547 18.535 0.75834 13.833 4.7537 33.21 10.405 50.465 1.5011 4.5833 2.8344 8.3333 2.9628 8.3333 0.1284 0 2.3295-0.62926 4.8913-1.3984zm193.14-6.935c1.4864-4.5833 3.347-10.841 4.1347-13.906 1.6606-6.461 4.2754-50.281 3.1719-53.157-0.6307-1.6436-7.8072-1.9378-47.268-1.9378h-46.524v70.667l19.667 0.0265c19.74 0.0265 50.86 2.7694 58.333 5.1414 2.2 0.69826 4.4011 1.3211 4.8913 1.3842 0.49021 0.0631 2.1074-3.6354 3.5938-8.2187zm-240.67-117.38c0.87603-17.456 4.2504-34.407 11.56-58.073 1.4429-4.6715 2.6234-8.9501 2.6234-9.5079 0-0.55784-3.75-2.378-8.3333-4.0448-4.5833-1.6668-16.283-7.1677-26-12.224l-17.667-9.1938-7.1746 11.046c-18.37 28.282-29.627 58.785-34.707 94.046l-0.81632 5.6667h79.626zm124.85-17.619v-35.333l-19.667-0.0265c-20.127-0.0271-50.658-2.7401-58.991-5.2418-2.5618-0.76907-4.7629-1.3983-4.8913-1.3983-0.72161 0-6.1537 18.384-8.4705 28.667-3.5785 15.883-5.1662 45.765-2.5206 47.44 1.0305 0.6524 22.724 1.1954 48.207 1.2066l46.333 0.0204zm123.22 34.524c1.3931-0.53457 2.109-2.4706 2.109-5.7031 0-6.0652-4.9342-41.572-6.7845-48.821-1.5005-5.8789-6.6297-22-6.9996-22-0.1284 0-2.3295 0.62927-4.8913 1.3984-8.3331 2.5017-38.865 5.2147-58.991 5.2418l-19.667 0.0265v70.667h46.558c25.607 0 47.507-0.36419 48.667-0.80932zm110.72-5.524c-3.3954-24.341-11.584-50.64-22.239-71.419-7.0096-13.671-19.017-32.914-20.537-32.914-0.48574 0-8.1478 3.825-17.027 8.5-8.8791 4.675-20.344 10.143-25.477 12.152-5.1333 2.0086-9.5387 3.839-9.7897 4.0675-0.25098 0.22849 1.9692 8.7101 4.9339 18.848 5.1952 17.766 10.834 49.694 10.849 61.433l7e-3 5.6667h80.163zm-233.95-135.67c0-23.833-0.34544-43.333-0.76765-43.333-2.0441 0-29.019 21.792-37.421 30.23-9.3774 9.4185-25.456 31.895-31.868 44.548-1.8023 3.5567-3.2769 6.7322-3.2769 7.0566 0 0.63361 14.991 3.261 22.667 3.9726 2.5667 0.23797 15.017 0.52869 27.667 0.64605l23 0.21339zm93.333 40.643c4.0333-0.89381 7.5237-1.7945 7.7563-2.0016 0.91252-0.81214-6.7726-14.355-15.845-27.922-5.244-7.8423-13.819-18.562-19.056-23.822-8.4018-8.4386-35.377-30.23-37.421-30.23-0.42221 0-0.76765 19.583-0.76765 43.518v43.518l29-0.71755c15.95-0.39465 32.3-1.4488 36.333-2.3427zm-188.1-21.112c12.153-24.171 33.222-51.177 50.063-64.169 4.0908-3.156 7.1766-5.9994 6.8573-6.3187-0.31928-0.31928-7.7441 1.8146-16.5 4.742-19.054 6.3705-38.124 15.725-54.377 26.674-13.301 8.9599-35.657 27.849-34.732 29.345 1.3212 2.1377 38.764 19.901 42.44 20.134 0.54181 0.0343 3.3538-4.6487 6.2488-10.407zm240.1 3.7563c6.2333-2.8046 15.147-7.1642 19.808-9.688l8.4743-4.5886-11.808-10.344c-23.203-20.327-48.895-35.107-77.859-44.792-8.8524-2.9598-16.732-5.1692-17.51-4.9098-0.7781 0.25937 1.9867 3.0958 6.1441 6.3032 16.983 13.102 37.995 40.02 50.221 64.336 6.091 12.114 4.4043 11.839 22.53 3.6829z" fill="#fff" stroke-width="1.3333"/>
</svg>
