<?xml version="1.0" encoding="UTF-8"?>
<svg width="666.67" height="666.67" version="1.1" viewBox="0 0 666.67 666.67" xmlns="http://www.w3.org/2000/svg">
 <rect width="666.67" height="666.67" fill="#1f2283"/>
 <path d="m98.703 561.68c-3.5744-1.2616-8.6886-4.8297-12.765-8.9061-11.859-11.859-11.271-5.6195-11.271-119.68v-99.762h100v34.667h56v-34.667h201.33v37.333h56v-37.333h104v99.762c0 114.04 0.58348 107.83-11.246 119.66-12.295 12.295 10.729 11.26-247.99 11.141-204.22-0.0942-228.72-0.32558-234.06-2.2101zm-24.036-314.78c0-33.325 0.95334-37.365 11.246-47.658 11.277-11.277 11.072-11.246 75.658-11.246h55.762v-68.121l6.5454-6.5454h220.24l6.5454 6.5454v68.121h55.096c63.838 0 63.728-0.0165 74.991 11.246 10.293 10.293 11.246 14.333 11.246 47.658v27.762h-517.33zm344-82.904v-24h-169.33v48h169.33z" fill="#fff" stroke-width="1.3333"/>
</svg>
