<?xml version="1.0" encoding="UTF-8"?>
<svg width="666.67" height="666.67" version="1.1" viewBox="0 0 666.67 666.67" xmlns="http://www.w3.org/2000/svg">
 <rect width="666.67" height="666.67" fill="#1f2283"/>
 <path d="m304.79 591.01c-0.43372-0.43372-0.78857-3.0886-0.78857-5.8997 0-2.8111-0.23372-5.1111-0.51937-5.1111-2.6391 0-25.978-4.9636-38.514-8.1908-26.201-6.7453-41.651-14.102-73.634-35.061-53.748-35.223-91.309-91.715-105.55-158.75-3.4265-16.129-3.6819-19.511-3.6754-48.667 0.0079-35.144 1.3667-46.03 9.0993-72.895 23.438-81.431 90.341-148.42 171.58-171.81 8.6279-2.4834 18.731-4.9191 22.452-5.4126l6.7648-0.89739v26.663l-8.1466 1.6027c-21.73 4.2751-52.643 17.847-76.656 33.653-19.982 13.153-46.814 40.006-60.379 60.424-23.925 36.012-36.442 73.159-38.638 114.67-2.6959 50.945 9.7608 96.5 38.087 139.29 7.7989 11.78 14.577 19.75 28.958 34.047 16.656 16.56 20.958 20.013 38.109 30.598 29.74 18.354 46.398 24.716 87.667 33.482 2.7579 0.58581 3 0.1574 3-5.3095 0-3.2707 0.45-6.2187 1-6.5511 1.3544-0.8186 39 23.422 39 25.113 0 0.73694-4.65 4.2107-10.333 7.7196-5.6833 3.5088-14.328 9.0123-19.211 12.23s-9.233 5.4955-9.6667 5.0618zm71.735-14.236c-0.3488-0.90897-0.45933-6.9543-0.24561-13.434l0.38856-11.781 12-2.9691c17.17-4.2484 27.31-7.9189 44.101-15.965 24.34-11.664 41.44-23.944 61.985-44.516 27.455-27.491 44.682-55.476 56.321-91.493 6.8918-21.326 9.1121-35.399 9.8884-62.672 0.79823-28.044-1.1092-43.607-8.4908-69.278-23.044-80.139-90.998-142.86-172.58-159.3-6.905-1.391-12.967-2.1183-13.47-1.6162-0.50371 0.50213-1.1037 3.4352-1.3333 6.5179l-0.41751 5.605-18.988-12.272c-10.444-6.7494-18.976-12.872-18.961-13.605 0.0153-0.73333 8.7101-6.8582 19.322-13.611l19.294-12.277v5.1988c0 2.8593 0.47842 5.4945 1.0632 5.8559 0.58475 0.3614 8.8348 2.2266 18.333 4.1449 67.598 13.652 123.97 51.845 162.25 109.93 17.021 25.825 30.74 59.693 37.036 91.427 4.128 20.809 5.1067 59.425 2.0577 81.192-6.9561 49.661-25.687 91.713-58.264 130.81-34.078 40.896-85.153 71.591-138.23 83.074-9.5642 2.0691-12.567 2.307-13.055 1.0344zm-163.67-141.46c-11.318-10.644-20.94-20.293-21.381-21.442-1.8312-4.7721-0.66462-8.9424 3.7314-13.338 7.1166-7.1166 11.878-6.4331 23.099 3.3158 4.9688 4.317 11.406 10.317 14.305 13.333 2.8988 3.0163 6.0444 5.4842 6.9902 5.4842 0.94575 0 16.715-12.9 35.042-28.667 35.202-30.284 36.266-30.932 44.57-27.149 4.3237 1.97 7.895 9.4674 6.8267 14.332-1.0373 4.723-3.3362 6.8926-45.92 43.339-44.952 38.474-38.867 37.498-67.264 10.792zm128.15-5.3467c-4.2079-4.2079-5.2681-9.4058-3.0173-14.793 3.672-8.7884 1.3272-8.5079 71.116-8.5079h63.17l4.5333 4.5333c5.9679 5.9679 6.1936 12.074 0.66505 17.992l-3.8683 4.141h-129.23zm-130.89-82.722c-11.359-10.682-21.025-20.595-21.48-22.03-2.4129-7.6024 5.0844-17.215 13.427-17.215 5.0653 0 8.5456 2.5806 24.756 18.357l10.146 9.8737 34.271-29.449c36.679-31.518 37.402-31.949 46.059-27.472 4.3389 2.2437 7.4197 9.6246 5.9836 14.336-1.5562 5.1051 2.3339 1.5487-65.653 60.021-14.171 12.188-15.482 13-20.987 13-5.7258 0-6.3838-0.48181-26.524-19.422zm135.12-17.809c-3.0567-3.0566-3.8974-5.0922-3.8974-9.4359s0.84077-6.3792 3.8974-9.4359l3.8974-3.8974h61.502c65.648 0 67.213 0.14601 70.664 6.5928 2.7187 5.08 1.6363 12.016-2.5246 16.176l-3.8974 3.8974h-125.74zm-129.01-65.769c-6.3566-6.05-15.232-14.349-19.723-18.441-4.491-4.0926-8.8958-8.8058-9.7884-10.474-4.0638-7.5933 3.5251-18.752 12.753-18.752 4.9128 0 8.1972 2.4903 26.086 19.78l8.885 8.5871 32.462-27.966c17.854-15.381 33.767-28.664 35.361-29.517 5.1674-2.7655 9.7282-1.8302 14.54 2.9821 5.1667 5.1667 5.8546 10.089 2.193 15.695-1.2795 1.9588-19.527 18.309-40.55 36.333-38.093 32.66-38.245 32.772-44.443 32.772-5.967 0-6.6882-0.44622-17.777-11zm129.51-29.263c-4.0641-1.9635-7.248-9.1808-6.2505-14.168 0.44536-2.2268 2.291-5.4408 4.1015-7.1422l3.2917-3.0934 125.31-0.74307 4.5715 4.5715c7.0575 7.0575 5.7257 16.216-3.0075 20.682-3.9484 2.0192-123.82 1.9194-128.02-0.10667z" fill="#fff" stroke-width="1.3333"/>
</svg>
