<?xml version="1.0" encoding="UTF-8"?>
<svg width="666.67" height="666.67" version="1.1" viewBox="0 0 666.67 666.67" xmlns="http://www.w3.org/2000/svg">
 <rect width="666.67" height="666.67" fill="#1f2283"/>
 <path d="m249.33 550.26c-6.5443-2.0627-17.705-13.62-19.712-20.412-2.3402-7.9204-2.3402-275.77 0-283.69 2.1639-7.3238 13.209-18.369 20.533-20.533 7.9278-2.3424 294.43-2.3424 302.36 0 7.3238 2.1639 18.369 13.209 20.533 20.533 2.3402 7.9204 2.3402 275.77 0 283.69-2.1639 7.3238-13.209 18.369-20.533 20.533-7.4671 2.2062-296.16 2.0904-303.18-0.1216zm285.85-25.23c7.7042-2.302 15.975-10.924 17.931-18.692 1.1256-4.47 1.5567-37.34 1.5567-118.68 0-125.63 0.2765-121.6-8.9596-130.62-9.7198-9.4868-2.5522-9.0339-142.97-9.0339-142.58 0-135.61-0.47063-145.09 9.8066-7.4608 8.094-8.3206 13.494-8.3206 52.259v32.601h115.41l5.6801-17.211c3.3711-10.214 6.5164-17.531 7.7374-18 1.1315-0.4342 10.108-0.78945 19.948-0.78945 17.658 0 17.891-0.0391 17.913-3 0.0632-8.6416 12.925-21.092 23.507-22.756 16.883-2.6547 32.924 11.146 32.908 28.312-0.0207 22.409-23.959 36.202-42.722 24.615-3.5103-2.1679-7.5824-5.8447-9.0491-8.1709l-2.6667-4.2293-30.897-0.1026-5.0394 16.333c-2.7717 8.9833-5.7863 17.128-6.6992 18.1-1.3358 1.4218-13.798 1.738-63.846 1.6198l-62.186-0.14686v21.427l222-8e-3 3.3333-6.2944c3.7931-7.1625 11.717-13.307 19.432-15.067 17.143-3.9123 34.362 10.091 34.335 27.925-0.0244 16.396-12.116 28.534-28.439 28.549-10.722 0.0107-20.647-5.9295-25.367-15.181l-2.6815-5.2558h-222.61v21.428l61.518-0.14815c49.511-0.1192 61.842 0.19683 63.179 1.6194 0.91343 0.97217 3.9285 9.1176 6.7002 18.101l5.0394 16.333 29.563-8e-3 2.6674-4.9964c3.2275-6.0455 13.172-12.982 20.195-14.086 16.883-2.6548 32.924 11.146 32.908 28.311-0.0152 16.461-12.101 28.521-28.608 28.545-11.953 0.0177-22.707-7.4518-26.725-18.563l-1.6406-4.5361h-17.623c-9.6927 0-18.549-0.35525-19.68-0.78945-1.221-0.46854-4.3662-7.7856-7.7374-18l-5.6801-17.211h-114.08v35.091c0 40.414 0.81695 45.259 8.9743 53.225 9.516 9.2921 1.9096 8.8192 143.54 8.9233 97.525 0.0717 129.15-0.29495 133.33-1.5458zm-83.076-55.591c8.5887-8.5887 2.7121-22.769-9.4359-22.769-4.3437 0-6.3792 0.84078-9.4359 3.8974-3.0567 3.0567-3.8974 5.0922-3.8974 9.4359s0.84077 6.3792 3.8974 9.4359c3.0566 3.0567 5.0922 3.8974 9.4359 3.8974s6.3792-0.84077 9.4359-3.8974zm57.333-74.667c8.5887-8.5887 2.7121-22.769-9.4359-22.769-4.3437 0-6.3792 0.84078-9.4359 3.8974s-3.8974 5.0922-3.8974 9.4359 0.84078 6.3792 3.8974 9.4359c3.0567 3.0567 5.0922 3.8974 9.4359 3.8974s6.3792-0.84077 9.4359-3.8974zm-56-76c3.0567-3.0567 3.8974-5.0922 3.8974-9.4359 0-12.148-14.181-18.025-22.769-9.4359-8.5887 8.5887-2.7121 22.769 9.4359 22.769 4.3437 0 6.3792-0.84078 9.4359-3.8974zm-329.44 122.15c-6.5443-2.0627-17.705-13.62-19.712-20.412-2.3402-7.9204-2.3402-275.77 0-283.69 2.1639-7.3238 13.209-18.369 20.533-20.533 7.9278-2.3423 294.43-2.3423 302.36 0 7.3238 2.1639 18.369 13.209 20.533 20.533 1.0434 3.5314 1.6215 15.297 1.6215 33v27.512h-20v-15.758c0-19.479-2.0146-27.096-8.9596-33.875-9.7198-9.4868-2.5522-9.0339-142.97-9.0339-142.58 0-135.61-0.47063-145.09 9.8067-7.5854 8.2292-8.3206 13.2-8.3206 56.259v36.601h68v14.667h-68v21.333h68v14.667h-68v21.333h68v14.667h-68v31.091c0 36.04 0.9795 41.419 8.9596 49.208 7.882 7.693 13.504 9.0339 37.875 9.0339h21.166v25.333l-31.667-0.13612c-18.977-0.08157-33.537-0.72553-36.333-1.607z" fill="#fff" stroke-width="1.3333"/>
</svg>
