<?xml version="1.0" encoding="UTF-8"?>
<svg width="666.67" height="666.67" version="1.1" viewBox="0 0 666.67 666.67" xmlns="http://www.w3.org/2000/svg">
 <rect width="666.67" height="666.67" fill="#1f2283"/>
 <path d="m98.933 515.92c-9.1849-4.5898-13.915-9.5241-18.46-19.256l-3.1134-6.6667v-322.67l3.1134-6.6667c4.5449-9.7319 9.2753-14.666 18.46-19.256l8.1595-4.0774h460.48l8.1595 4.0774c9.1849 4.5898 13.915 9.5241 18.46 19.256l3.1134 6.6667v322.67l-3.1134 6.6667c-4.5449 9.7319-9.2753 14.666-18.46 19.256l-8.1595 4.0774h-460.48zm464.4-16.801c6.2406-3.3675 11.369-8.5905 14.848-15.122 2.3748-4.4588 2.5014-11.127 2.842-149.67l0.35647-145h-486.76l0.35646 145c0.34058 138.54 0.4672 145.21 2.842 149.67 4.6664 8.7612 11.668 14.617 20.839 17.429 1.8381 0.56355 101.44 0.92259 221.34 0.79784l218-0.22678zm-427.33-101.79v-38.667h133.33v77.333h-133.33zm177.33 27.333v-6h72v12h-72zm82.667 0v-6h106.67v12h-106.67zm117.33 0v-6h26.667v12h-26.667zm-200-28v-6h132v12h-132zm142.67 0v-6h84v12h-84zm-142.67-28v-6h45.333v12h-45.333zm56 0v-6h81.333v12h-81.333zm90.667 0v-6h57.333v12h-57.333zm68 0v-6h12v12h-12zm-392-92.667v-38.667h133.33v77.333h-133.33zm177.33 27.333v-6h12v12h-12zm22.667 0v-6h62.667v12h-62.667zm73.333 0v-6h60v12h-60zm70.667 0v-6h60v12h-60zm-166.67-28v-6h92v12h-92zm102.67 0v-6h104v12h-104zm114.67 0c0-5.9682 0.0247-6 4.6667-6 4.642 0 4.6667 0.0317 4.6667 6 0 5.9683-0.0247 6-4.6667 6s-4.6667-0.0317-4.6667-6zm-217.33-28v-6h30.667v12h-30.667zm41.333 0v-6h65.333v12h-65.333zm76 0v-6h30.667v12h-30.667zm41.333 0v-6h68v12h-68zm-329.44-73.452c3.4508-2.9037 4.1023-4.3956 4.1023-9.394 0-8.23-4.2576-12.488-12.488-12.488-4.9984 0-6.4903 0.65149-9.3939 4.1023-4.8296 5.7396-4.6629 12.225 0.44557 17.334 5.1084 5.1084 11.594 5.2752 17.334 0.44559zm44.205-0.44559c5.1085-5.1084 5.2752-11.594 0.44559-17.334-2.9037-3.4508-4.3956-4.1023-9.394-4.1023-4.5311 0-6.7192 0.77713-9.2148 3.2727-2.4956 2.4956-3.2727 4.6837-3.2727 9.2148 0 4.9984 0.65149 6.4903 4.1023 9.394 5.7396 4.8296 12.225 4.6629 17.334-0.44559zm42.667 0c5.1084-5.1084 5.2752-11.594 0.44559-17.334-2.9037-3.4508-4.3956-4.1023-9.394-4.1023-8.23 0-12.488 4.2575-12.488 12.488 0 4.9984 0.65149 6.4903 4.1023 9.394 5.7396 4.8296 12.225 4.6629 17.334-0.44559zm317.8-4.8645c1.1524-1.1524 2.0952-3.5095 2.0952-5.2381 0-7.6754 4.9132-7.3333-105.33-7.3333-110.25 0-105.33-0.34206-105.33 7.3333s-4.9132 7.3333 105.33 7.3333c90.17 0 101.37-0.2273 103.24-2.0952z" fill="#fff" stroke-width="1.3333"/>
</svg>
