<?xml version="1.0" encoding="UTF-8"?>
<svg width="666.67" height="666.67" version="1.1" viewBox="0 0 666.67 666.67" xmlns="http://www.w3.org/2000/svg">
 <rect x="-.0016479" y="-.0016479" width="666.67" height="666.67" fill="#1f2283"/>
 <path d="m222.23 601.12c-11.102-2.09-22.466-11.381-26.9-21.995-3.1047-7.4307-2.5666-21.178 1.14-29.121 3.2062-6.8705 11.756-15.713 16.715-17.287l2.8141-0.89316v-170.57l-65.914 0.13592c-40.949 0.0844-66.831-0.36074-68.333-1.1754-7.0113-3.8009-9.7757-8.8232-11.356-20.631-4.427-33.087 13.451-66.534 43.083-80.602l7.4801-3.5511 1.633-10.668c7.957-51.978 46.489-90.587 98.062-98.258l9.6316-1.4325 2.8581-6.8662c8.0623-19.369 32.687-47.709 52.855-60.831 27.298-17.761 50.465-24.61 83.333-24.637 22.283-0.01832 35.382 2.2642 53.789 9.373 31.179 12.041 53.92 31.148 74.459 62.562 9.192 14.058 12.59 21.601 17.216 38.209 3.5696 12.817 4.2368 17.565 4.374 31.125 0.0891 8.8-0.29595 21.4-0.85559 28l-1.0175 12 11.109 2.1497c19.078 3.6918 35.897 13.547 46.955 27.514 17.537 22.149 22.289 49.366 13.24 75.829-4.4939 13.142-6.6628 16.908-11.322 19.66-3.2637 1.9279-10.353 2.1807-61.153 2.1807h-57.461v77.333c0 65.181 0.29163 77.333 1.8558 77.333 1.0207 0 4.8392 2.6823 8.4856 5.9608 16.664 14.983 17.05 39.095 0.86347 54.015-9.1768 8.4588-19.025 11.358-31.06 9.1423-11.78-2.1686-22.922-11.087-27.481-21.997-3.1047-7.4307-2.5666-21.178 1.14-29.121 3.2062-6.8705 11.756-15.713 16.715-17.287l2.8141-0.89316v-154.49h-81.333v54c0 45.246 0.30084 54 1.8558 54 1.0207 0 4.8392 2.6824 8.4856 5.9608 16.664 14.983 17.05 39.095 0.86346 54.015-9.1768 8.4589-19.025 11.358-31.06 9.1423-11.78-2.1685-22.922-11.087-27.481-21.997-3.1047-7.4307-2.5666-21.178 1.14-29.121 3.2062-6.8705 11.756-15.713 16.715-17.287 2.802-0.88934 2.814-1.1229 2.814-54.803v-53.91h-81.333v85.333c0 72.016 0.28962 85.333 1.8558 85.333 1.0207 0 4.8392 2.6824 8.4856 5.9608 16.617 14.94 17.048 39.097 0.9637 53.923-9.3212 8.592-19.466 11.543-31.741 9.2317zm19.863-17.721c8.5364-5.5933 11.466-20.398 5.839-29.503-7.7815-12.591-27.733-13.406-36.225-1.4807-3.8504 5.4074-4.828 17.556-1.8726 23.271 5.649 10.924 21.554 14.727 32.259 7.7134zm216-16c8.5364-5.5933 11.466-20.398 5.839-29.503-7.7814-12.591-27.733-13.406-36.225-1.4807-3.8504 5.4074-4.8279 17.556-1.8726 23.271 5.649 10.924 21.554 14.727 32.259 7.7134zm-108-46.667c8.5364-5.5933 11.466-20.398 5.839-29.503-7.7814-12.591-27.733-13.406-36.225-1.4807-3.8504 5.4074-4.828 17.556-1.8726 23.271 5.649 10.924 21.554 14.727 32.259 7.7134zm205.35-200.19c2.2229-11.849-1.6958-24.693-11.055-36.234-8.3917-10.348-20.42-14.026-51.517-15.754-16.504-0.91697-17.053-1.0433-16.3-3.7484 8.5209-30.586 9.1191-34.33 8.4369-52.799-1.2424-33.638-9.6672-56.906-29.673-81.955-27.961-35.009-76.73-49.23-120.67-35.187-20.647 6.5985-41.474 21.344-55.476 39.276-11.559 14.803-15.038 22.829-16.842 38.857-0.80551 7.1548-1.5133 13.098-1.5729 13.208-0.0596 0.10947-4.3083-0.61848-9.4417-1.6176-15.365-2.9907-26.421-2.4286-39.112 1.9886-18.049 6.2822-31.527 16.744-41.549 32.249-4.9134 7.602-11.085 24.788-12.633 35.181-0.682 4.5772 1.6062 21.984 4.0414 30.743 0.72897 2.6221 0.24305 2.7408-10.992 2.6856-15.608-0.0767-21.954 2.4092-31.383 12.294-6.4164 6.727-13.039 19.083-13.039 24.327 0 0.81711 81.354 1.2833 223.94 1.2833h223.94z" fill="#fff" stroke-width="1.3333"/>
</svg>
