<?xml version="1.0" encoding="UTF-8"?>
<svg width="666.67" height="666.67" version="1.1" viewBox="0 0 666.67 666.67" xmlns="http://www.w3.org/2000/svg">
 <rect width="666.67" height="666.67" fill="#1f2283"/>
 <path d="m70 572.13c-2.9333-1.361-7.2529-4.4978-9.5991-6.9707-9.0486-9.5373-8.404 8.4896-8.3716-234.12 0.028147-211.19 0.12529-219.92 2.5039-225.04 1.361-2.9333 4.4978-7.2529 6.9707-9.5991 9.3148-8.8375 2.6028-8.4009 129.16-8.4009 126.56 0 119.85-0.43656 129.16 8.4009 9.8882 9.3815 9.4419 4.4545 9.4746 104.6l0.0293 89.667h-22.667v-77.512c0-57.345-0.42532-78.932-1.6347-82.968-2.0923-6.9834-9.5686-14.46-16.552-16.552-7.8371-2.348-189.12-2.348-196.96 0-6.9834 2.0923-14.46 9.5686-16.552 16.552-2.3744 7.9249-2.3744 395.7 0 403.63 2.0923 6.9834 9.5686 14.46 16.552 16.552 7.8371 2.3481 189.12 2.3481 196.96 0 6.9834-2.0923 14.46-9.5686 16.552-16.552 1.2175-4.0638 1.6347-27.447 1.6347-91.635v-86.179h22.667v97.376c0 107.36 0.36179 102.55-8.4009 111.79-2.3462 2.4729-6.6658 5.6097-9.5991 6.9707-5.0656 2.3504-11.122 2.4746-120.67 2.4746-109.54 0-115.6-0.12427-120.67-2.4746zm289.33 0c-2.9333-1.361-7.2529-4.4978-9.5991-6.9707-8.7627-9.236-8.4009-4.4218-8.4009-111.79v-97.376h21.333v86.179c0 64.187 0.41713 87.571 1.6347 91.635 2.0923 6.9834 9.5686 14.46 16.552 16.552 7.8371 2.3481 189.12 2.3481 196.96 0 6.9834-2.0923 14.46-9.5686 16.552-16.552 2.3744-7.925 2.3744-395.7 0-403.63-2.0923-6.9834-9.5686-14.46-16.552-16.552-7.8371-2.348-189.12-2.348-196.96 0-6.9834 2.0923-14.46 9.5686-16.552 16.552-1.2094 4.0364-1.6347 25.623-1.6347 82.968v77.512h-21.333l0.0293-89.667c0.0327-100.14-0.41357-95.218 9.4746-104.6 9.3147-8.8375 2.6027-8.4009 129.16-8.4009 126.56 0 119.85-0.43656 129.16 8.4009 2.4729 2.3462 5.6097 6.6658 6.9707 9.5991 2.3786 5.1264 2.4757 13.857 2.5039 225.04 0.0323 242.61 0.67693 224.58-8.3716 234.12-2.3462 2.4729-6.6658 5.6097-9.5991 6.9707-5.0656 2.3504-11.122 2.4746-120.67 2.4746-109.54 0-115.6-0.12427-120.67-2.4746zm-258-88.8v-7.3333h176v14.667h-176zm0-53.333v-7.3333h176v14.667h-176zm0-54.667v-7.3333h176v14.667h-176zm278.67-19.753v-12.914h-108v-37.333h107.9l0.38336-11.927 0.38337-11.927 41.588 43.202-42.254 43.813zm-278.67-34.914v-7.3333h148v14.667h-148zm0-54.667v-7.3333h148v14.667h-148zm293.33 0v-7.3333h176v14.667h-176zm-293.33-54.667v-7.3333h176v14.667h-176zm293.33 0v-7.3333h176v14.667h-176zm-293.33-54.667v-7.3333h176v14.667h-176zm293.33 0v-7.3333h176v14.667h-176z" fill="#fff" stroke-width="1.3333"/>
</svg>
