<?xml version="1.0" encoding="UTF-8"?>
<svg width="666.67" height="666.67" version="1.1" viewBox="0 0 666.67 666.67" xmlns="http://www.w3.org/2000/svg">
 <rect width="666.67" height="666.67" fill="#1f2283"/>
 <path d="m341.3 620.43c-4.0333-1.0628-7.9333-2.0474-8.6667-2.188-0.73334-0.14062-5.8055 0.55476-11.271 1.5453-30.461 5.52-60.689-8.3608-79.38-36.451l-7.3626-11.065-13.66-0.67905c-37.857-1.8819-72.729-25.566-92.289-62.679-10.633-20.176-16.676-43.745-16.694-65.118-9e-3 -9.9784-0.37528-11.788-2.8349-14-4.5009-4.0471-13.766-17.734-18.869-27.873-24.628-48.938-18.994-108.05 14.421-151.29l7.2726-9.4127 0.0465-14.98c0.0256-8.2389 0.85475-19.48 1.8426-24.98 10.499-58.454 55.182-102.36 106.86-105l13.418-0.6863 3.5797-6.8372c11.679-22.307 34.51-39.551 57.715-43.592 9.9851-1.7388 26.728-0.82757 34.55 1.8804 4.0578 1.4048 6.4795 1.4065 13.147 0.0088 33.178-6.9547 67.311 9.9991 85.22 42.328l4.1817 7.5487 13.385 0.71991c25.096 1.3498 49.081 12.386 68.749 31.634 26.248 25.688 39.97 60.138 39.97 100.35 0 13.749 0.0287 13.872 4.4474 19.078 17.779 20.947 28.466 46.685 31.787 76.549 4.0226 36.176-8.8634 78.523-31.639 103.97-4.149 4.6361-4.2362 5.0106-4.9815 21.385-2.3093 50.739-30.558 94.831-73.338 114.47-9.8207 4.5078-27.157 8.1793-38.671 8.1897-10.239 9e-3 -10.429 0.0713-12.667 4.1359-4.33 7.8667-14.777 20.862-21.175 26.34-18.19 15.573-45.548 22.386-67.096 16.708zm28.091-38.625c19.636-5.7418 30.704-18.319 38.811-44.104 2.7008-8.5898 3.439-9.7543 5.7642-9.0926 25.249 7.1854 32.978 7.4401 49.621 1.6353 17.317-6.0396 32.69-19.253 43.031-36.988 9.1911-15.762 16.554-45.949 16.336-66.976-0.13307-12.853-0.0979-13.002 3.7227-15.722 2.1214-1.5106 7.3968-7.5013 11.723-13.313 20.14-27.053 24.013-67.342 9.5643-99.473-5.1933-11.548-17.223-29.356-25.12-37.183l-6.7247-6.6663 2.0603-8.6667c2.7324-11.494 1.6578-33.137-2.284-46-6.143-20.046-19.234-39.139-33.459-48.799-11.109-7.5437-23.609-12.998-32.064-13.99-7.7767-0.91257-25.016 1.2795-33.442 4.2524-2.96 1.0443-5.6027 1.6778-5.8728 1.4078-0.27006-0.27004-1.7174-4.9167-3.2164-10.326-5.3479-19.299-15.291-34.041-27.969-41.471-6.9636-4.0809-20.468-7.2248-25.552-5.9487l-3.5124 0.88154-0.1276 67.997-0.1276 67.997h55.749l4.8852-9.2964c4.6971-8.9386 4.8061-9.4493 2.8318-13.267-2.633-5.0916-2.6392-17.453-0.012-23.741 7.4297-17.782 26.689-25.273 44.115-17.159 18.243 8.4945 23.787 33.744 10.854 49.435-4.0167 4.8729-14.988 11.345-19.299 11.384-1.6741 0.0153-4.8771 4.776-10.825 16.089-11.76 22.369-9.0498 21.207-49.553 21.236-17.967 0.0133-34.017 0.38497-35.667 0.82716-2.8086 0.75266-3 1.5171-3 11.982v11.178h106.17l3.0471-4.1214c4.3153-5.8368 15.052-10.519 24.121-10.519 22.181 0 37.041 20.84 30.478 42.744-5.4427 18.166-29.016 27.014-46.008 17.269-3.7746-2.1648-8.1317-5.5492-9.6825-7.5208l-2.8197-3.5846-21.651 0.84796c-11.908 0.46638-35.601 0.85635-52.651 0.8666l-31 0.0186v36l31 0.0107c17.05 5e-3 41.2 0.38231 53.667 0.83644l22.667 0.82569 3.1297-4.2912c4.3604-5.9786 15.026-10.689 24.204-10.689 22.181 0 37.041 20.841 30.478 42.744-5.4427 18.166-29.016 27.014-46.008 17.269-3.7746-2.1649-8.0609-5.4592-9.5252-7.3208l-2.6624-3.3846h-106.95v10.511c0 9.7734 0.21057 10.568 3 11.315 1.65 0.44219 17.7 0.81442 35.667 0.82716 29.955 0.0213 33.019 0.23783 36.907 2.6088 3.1537 1.923 6.571 7.041 13.333 19.969 6.9969 13.377 9.7075 17.393 11.759 17.422 1.4667 0.0212 5.7369 1.4682 9.4894 3.2155 14.257 6.6382 21.168 23.393 16.322 39.567-3.6931 12.327-16.484 21.23-30.5 21.23-22.27 0-37.066-20.709-30.486-42.67 1.3909-4.6424 1.11-5.7137-4.1486-15.821l-5.6405-10.842h-55.703v68.444c0 37.644 0.4 68.844 0.88889 69.333 1.5629 1.5629 10.4 0.95522 17.869-1.2288zm-55.534-0.0249c1.8808-0.72176 2.1091-7.4304 2.1091-61.981v-61.171l-7.6667-3.9498c-11.185-5.7623-13.867-7.7869-31.373-23.68-16.926-15.367-22.297-22.561-22.289-29.859 0.0133-12.083 14.11-21.132 24.416-15.673 1.6018 0.84849 10.027 8.3485 18.723 16.667 8.696 8.3182 16.381 15.124 17.078 15.124 0.78471 0 1.0991-17.889 0.82596-47l-0.44094-47-4.2352-11.333c-15.367-41.122-45.617-75.605-84.986-96.878-14.58-7.8781-18.614-12.82-17.649-21.622 0.86032-7.8488 7.5428-14.723 15.328-15.767 4.6346-0.62163 7.1801 0.12706 16.33 4.8032 28.137 14.38 51.614 33.908 72.29 60.13l3.6798 4.6667-0.34904-82-0.34903-82-4.369-0.42047c-12.808-1.2327-31.197 7.7982-39.015 19.16-5.4409 7.908-12.675 25.171-13.853 33.056-0.8702 5.8256-1.251 6.3803-3.8643 5.6289-15.337-4.4097-20.371-5.2809-30.899-5.3481-9.7156-0.062-13.523 0.53699-20 3.1463-33.463 13.481-54.191 44.314-56.254 83.679-0.75065 14.322-0.64744 15.126 2.654 20.667 4.5521 7.6398 16.535 21.138 25.732 28.986 13.543 11.557 40.462 27.237 63.202 36.815 11.76 4.9534 16.003 9.8589 15.995 18.495-7e-3 7.7993-3.8614 13.355-11.212 16.163-5.973 2.2811-6.2958 2.2663-14.446-0.66388-4.5852-1.6484-14.846-6.2347-22.802-10.192l-14.466-7.1945 0.91911 8.3451c2.2087 20.054 17.394 53.519 27.571 60.759 3.7151 2.6432 6.4411 8.8458 6.4411 14.656 0 10.755-10.13 18.995-20.875 16.979-6.7127-1.2593-19.233-14.158-26.917-27.731-7.8054-13.787-16.869-36.762-19.324-48.985-2.8984-14.43-4.0966-34.475-2.423-40.537 1.3363-4.8397 1.1993-5.2458-2.8619-8.4823-2.346-1.8696-8.7905-8.0685-14.321-13.775l-10.056-10.376-5.4826 9.1135c-10.343 17.192-16.251 41.756-14.446 60.057 1.0132 10.273 6.4374 30.243 10.293 37.895 3.9792 7.8971 15.398 23.008 19.703 26.073 3.6405 2.5922 3.706 2.8809 3.7071 16.335 1e-3 19.251 6.008 45.055 14.495 62.273 10.778 21.865 30.568 38.169 52.646 43.373 14.403 3.395 17.589 2.9057 23.115-3.5501 4.8235-5.6351 11.617-23.529 13.57-35.74 2.3902-14.948 16.539-22.611 27.947-15.137 8.9256 5.8483 9.5585 15.31 2.5668 38.377-4.8279 15.928-8.1926 23.761-13 30.262l-2.6446 3.5771 3.7846 6.9536c4.2845 7.872 13.847 16.831 22.665 21.235 7.7332 3.8621 20.77 6.251 25.083 4.5962zm142.88-84.047c13.368-8.7592 8.9312-29.612-7.0365-33.069-3.0068-0.65098-6.075-0.1244-10.385 1.7822-10.402 4.6011-13.909 16.96-7.5615 26.647 4.8106 7.3418 17.316 9.6646 24.983 4.6405zm38.667-112c13.368-8.7593 8.9312-29.612-7.0365-33.069-3.0068-0.65097-6.075-0.1244-10.385 1.7822-10.402 4.6011-13.909 16.96-7.5615 26.647 4.8106 7.3418 17.316 9.6646 24.983 4.6405zm-1.3333-73.333c13.368-8.7592 8.9312-29.612-7.0365-33.069-3.0068-0.65098-6.075-0.1244-10.385 1.7822-10.402 4.6011-13.909 16.96-7.5615 26.647 4.8106 7.3418 17.316 9.6646 24.983 4.6405zm-40-110.67c13.368-8.7592 8.9312-29.612-7.0365-33.069-3.0068-0.65098-6.075-0.1244-10.385 1.7822-10.402 4.6011-13.909 16.96-7.5615 26.647 4.8106 7.3418 17.316 9.6646 24.983 4.6405z" fill="#fff" stroke-width="1.3333"/>
</svg>
