<?xml version="1.0" encoding="UTF-8"?>
<svg width="666.67" height="666.67" version="1.1" viewBox="0 0 666.67 666.67" xmlns="http://www.w3.org/2000/svg">
 <rect width="666.67" height="666.67" fill="#1f2283"/>
 <path d="m368.78 596.58c-9.3983-2.4225-17.439-4.7556-17.868-5.1846-0.42908-0.42908 1.3418-9.3396 3.9353-19.801 4.0737-16.432 4.4475-19.202 2.7463-20.354-1.083-0.73334-4.9631-3.231-8.6223-5.5505-3.6592-2.3194-10.209-7.5261-14.554-11.57l-7.9014-7.3532-15.54 8.5703c-8.547 4.7137-15.893 8.5655-16.324 8.5596-0.96967-0.0133-19.214-33.349-18.577-33.944 0.25277-0.23605 7.3596-4.1887 15.793-8.7838 8.4333-4.595 15.461-8.4366 15.618-8.5369s-0.61141-3.4544-1.7061-7.4536c-1.0947-3.9992-2.219-13.571-2.4986-21.271l-0.50833-14-19.546-6.7218c-10.75-3.697-19.541-7.1593-19.536-7.6941 0.0361-3.3226 11.696-35.584 12.861-35.584 0.78497 0 9.4772 2.7 19.316 6 9.8389 3.3 18.263 6 18.72 6 0.45704 0 2.8563-3.15 5.3317-7 2.4754-3.85 7.8755-10.397 12-14.549l7.4995-7.549-9.7314-17.717c-5.3523-9.7446-9.6014-17.83-9.4423-17.968 0.52866-0.45795 34.692-19.217 34.997-19.217 0.16503 0 4.646 7.95 9.9576 17.667 5.3117 9.7167 9.7767 17.808 9.9222 17.982 0.14554 0.17331 4.9256-0.57669 10.622-1.6667 5.6968-1.09 14.165-1.9818 18.817-1.9818 6.9215 0 8.5771-0.42424 9.1062-2.3333 0.35567-1.2833 2.3023-9.0833 4.3258-17.333 2.4238-9.882 4.293-15 5.4782-15 1.742 0 35.33 8.0939 36.122 8.7044 0.21586 0.16651-1.7008 8.6095-4.2592 18.762-2.5584 10.153-4.535 18.538-4.3925 18.635 0.14254 0.0964 3.5592 2.2641 7.5925 4.8173 4.0333 2.5531 10.717 7.7409 14.854 11.528 4.1362 3.7875 7.9628 6.8863 8.5036 6.8863 0.54083 0 8.0746-3.9 16.742-8.6667 8.6671-4.7667 16.24-8.6622 16.83-8.6566 1.1676 0.0107 19.701 33.202 18.897 33.842-0.2708 0.21556-7.9924 4.4675-17.159 9.4488-9.1667 4.9813-16.795 9.1545-16.951 9.2738-0.15644 0.11934 0.60877 3.1848 1.7005 6.8123 1.0917 3.6274 2.3424 11.699 2.7792 17.938 0.43686 6.2384 1.1716 11.718 1.6329 12.176 0.46122 0.45858 8.6386 3.3905 18.172 6.5154 9.5333 3.1249 17.537 5.853 17.785 6.0624 1.0684 0.9006-11.264 36.565-12.648 36.576-0.8413 7e-3 -8.8453-2.4338-17.787-5.4234-8.9414-2.9895-16.389-5.2395-16.551-5-0.16157 0.23952-2.3576 3.7352-4.88 7.7681-2.5224 4.033-7.9574 11.259-12.078 16.058l-7.4917 8.7249 9.7531 17.626c9.7173 17.561 9.7424 17.632 6.8251 19.436-2.8478 1.7608-24.089 13.595-29.746 16.572-2.6331 1.3859-3.4041 0.41071-11.763-14.876-4.9197-8.9977-9.3744-17.054-9.8992-17.903-0.71344-1.1544-2.7919-1.0578-8.2373 0.38247-4.0057 1.0595-12.497 2.3222-18.869 2.8059l-11.586 0.87947-4.5716 18.756c-2.5144 10.316-5.1007 18.875-5.7473 19.02-0.64664 0.14533-8.8652-1.7178-18.263-4.1402zm58.216-87.776c18.257-9.0231 28.469-24.156 29.847-44.231 3.3917-49.396-56.389-75.8-91.447-40.391-22.563 22.788-18.2 62.707 8.8903 81.346 9.4628 6.5106 19.121 9.1285 31.833 8.6283 9.4107-0.37038 12.293-1.1092 20.877-5.3519zm156.24 40.102c-0.37623-1.65-3.3984-15.6-6.716-31s-6.5906-30.381-7.2733-33.29c-0.68273-2.9097-1.0103-5.5213-0.72792-5.8037 0.28237-0.28237 4.49 0.80994 9.3504 2.4274 4.8604 1.6174 9.0265 2.7291 9.258 2.4704 1.3706-1.5315 1.8387-28.569 0.69461-40.126-6.6169-66.839-46.671-122.82-107.29-149.94-6.6-2.9533-14.1-6.0717-16.667-6.9297-8.8402-2.9552-13.333-8.6117-13.333-16.785 0-9.7272 7.8157-18.006 17.009-18.016 4.4433-5e-3 23.718 7.0379 35.658 13.03 52.054 26.122 91.828 72.138 109.88 127.13 7.759 23.633 9.7882 36.638 9.9614 63.839 0.0864 13.567-0.31492 28.348-0.89181 32.847l-1.0489 8.1802 10.382 3.7022c5.7102 2.0362 10.877 4.1302 11.482 4.6533 0.90907 0.7859-56.554 46.617-58.448 46.617-0.33067 0-0.90904-1.35-1.2852-3zm-395.37-143.51c-24.863-8.9519-46.493-21.147-65.337-36.838-54.226-45.152-83.725-113.47-78.745-182.35l0.74979-10.372-4.6673-1.2029c-2.567-0.66161-7.3673-1.7134-10.667-2.3373-3.3-0.6239-5.7673-1.7154-5.483-2.4255 0.89752-2.2413 50.498-52.624 51.807-52.624 0.68681 0 2.0772 2.55 3.0898 5.6667 1.0126 3.1167 6.7164 18.709 12.675 34.649s10.595 29.222 10.303 29.514c-0.29231 0.29232-5.3215-0.508-11.176-1.7785-5.8544-1.2705-10.932-1.8453-11.283-1.2772-0.35105 0.56802-0.4136 9.6261-0.13898 20.129 1.2763 48.813 19.462 91.556 53.323 125.33 20.282 20.228 46.824 36.458 72.929 44.596 15.189 4.7347 19.954 9.1811 19.954 18.619 0 11.52-6.3545 17.954-17.6 17.819-3.1531-0.0379-12.033-2.3372-19.733-5.1096zm37-68.494c-9.35-2.2632-16.989-4.7627-16.977-5.5545 0.0133-0.79177 2.0644-9.8396 4.5588-20.106 2.4944-10.267 4.0162-18.856 3.3817-19.087-3.6218-1.3201-17.687-11.426-24.151-17.352-4.1361-3.792-7.7889-6.8946-8.1173-6.8946-0.32837 0-7.5827 3.8526-16.121 8.5614l-15.524 8.5614-6.506-11.561c-3.5783-6.3588-7.7801-14.068-9.3373-17.133l-2.8314-5.5712 4.3118-2.5852c2.3715-1.4219 9.5831-5.425 16.026-8.8959 8.7672-4.7231 11.554-6.864 11.079-8.5102-3.0244-10.481-3.8194-15.937-3.962-27.193l-0.16469-12.993-10.667-3.8235c-5.8667-2.1029-14.717-5.1548-19.667-6.782-4.95-1.6272-9-3.6586-9-4.5144 0-1.5257 10.64-34.434 11.436-35.369 0.2228-0.26184 9.3382 2.5085 20.256 6.1564l19.851 6.6324 3.8374-6.1564c2.1106-3.386 7.5444-10.056 12.075-14.823l8.2378-8.6667-9.7091-17.333c-7.9567-14.205-9.3768-17.598-7.8682-18.798 1.0125-0.80569 8.8322-5.26 17.377-9.8985 18.149-9.8519 15.043-11.175 27.456 11.697 4.4773 8.25 8.8634 15 9.7467 15 0.88339 0 4.838-0.62158 8.7881-1.3813 3.9501-0.75971 11.783-1.4432 17.407-1.5189l10.225-0.13766 4.2688-17.168c2.3478-9.4423 4.6796-17.422 5.1818-17.732 0.9562-0.59096 35.837 7.897 36.926 8.9855 0.34449 0.34448-1.4308 8.7898-3.9451 18.767l-4.5714 18.141 8.1789 5.1949c4.4984 2.8572 11.391 8.2931 15.318 12.08l7.1387 6.8849 17.284-9.5241c9.5061-5.2383 17.448-9.3143 17.65-9.0578 0.95083 1.2119 18.122 33.068 18.122 33.62 0 0.34655-5.25 3.467-11.667 6.9344-6.4167 3.4674-14.152 7.7352-17.19 9.484l-5.5233 3.1797 1.9042 6.2906c1.0473 3.4599 2.2654 11.72 2.7068 18.356l0.80264 12.065 17.483 5.8112c9.6158 3.1962 18 6.2641 18.633 6.8176 1.0697 0.93653-9.0264 33.998-11.075 36.267-0.50944 0.56419-8.5835-1.5965-17.942-4.8015l-17.016-5.8273-3.3657 5.4682c-6.6552 10.813-9.7761 14.938-15.695 20.747l-6.0138 5.9022 5.5256 10.076c3.0391 5.5418 7.5487 13.76 10.021 18.263l4.4958 8.1873-17.334 9.4794c-9.534 5.2136-17.592 9.4794-17.908 9.4794s-4.8715-7.8-10.125-17.333c-5.2533-9.5333-9.9637-17.33-10.468-17.326-0.50389 4e-3 -3.0162 0.56212-5.5828 1.2401-6.7492 1.7827-14.208 2.6447-23.38 2.7021l-8.0462 0.0504-4.6749 18.992c-3.2404 13.164-5.2719 19.062-6.6205 19.221-1.07 0.12587-9.5956-1.6228-18.946-3.886zm47.584-83.039c8.0014-1.275 20.156-8.0048 27.005-14.952 25.299-25.662 17.451-70.353-14.961-85.192-28.101-12.865-58.536-1.7625-71.79 26.189-3.6984 7.7998-4.1082 9.9336-4.0969 21.333 0.012 11.837 0.33108 13.324 4.8737 22.698 2.6736 5.5173 7.3774 12.523 10.453 15.568 7.2046 7.1333 19.004 13.389 28.092 14.894 7.0925 1.1743 10.189 1.0927 20.424-0.53809z" fill="#fff" stroke-width="1.3333"/>
</svg>
