<?xml version="1.0" encoding="UTF-8"?>
<svg width="666.67" height="666.67" version="1.1" viewBox="0 0 666.67 666.67" xmlns="http://www.w3.org/2000/svg">
 <rect width="666.67" height="666.67" fill="#1f2283"/>
 <path d="m105.05 537.33v-129.33h78.667v-35.852l-78.067-0.81478-8.8231-4.3462c-10.269-5.0585-17.323-12.291-22.263-22.827l-3.5136-7.4934v-166.67l3.5136-7.4934c4.9411-10.538 11.994-17.769 22.265-22.827l8.8253-4.3462 129.81-1.3333 20.704-23.621-5.184-4.3522c-4.541-3.8124-5.6537-4.1884-8.9714-3.0319-8.0728 2.8142-22.294-2.2498-28.036-9.983-6.7-9.0241-7.8417-18.066-3.4921-27.655 3.3955-7.4857 5.9409-10.316 12.108-13.464 10.479-5.3483 20.918-4.5346 30.135 2.3488 6.5952 4.9256 10.158 12.874 10.246 22.859l0.0747 8.435 8.6667 7.4371c11.02 9.4566 11.906 10.677 11.958 16.467 0.0355 3.986-1.374 6.4063-8.5409 14.667l-8.5833 9.8928 117.9 1.3333 8.8248 4.3462c10.271 5.0584 17.324 12.29 22.265 22.827l3.5135 7.4934v166.72l-4.3462 8.8285c-5.0583 10.275-12.287 17.326-22.827 22.269l-7.4934 3.5136-80.667 0.81082v35.856h80v18.667h122.67v-102.37l-35.89-32.965-8e-3 -38.667 37.898-40.397 0.71168 67.731h47.91l0.71168-67.731 37.898 40.397 6.6e-4 38.667-34.566 31.681v151.65h-177.33v192h-16v-237.33h-244v237.33h-18.667zm271.33-196.21c7.8902-4.1925 12.559-8.9366 16.853-17.124l3.1467-6v-129.33l-3.1467-6c-4.294-8.1877-8.9631-12.932-16.853-17.124l-6.6667-3.5423h-249.33l-6.6667 3.5423c-7.8902 4.1925-12.559 8.9366-16.853 17.124l-3.1467 6v129.33l3.1467 6c5.5469 10.577 13.976 17.393 24.853 20.099 2.2 0.54732 58.9 0.89889 126 0.78127l122-0.21387zm-165.93-31.949c-14.316-2.9487-17.312-17.119-4.8678-23.024 4.218-2.0016 9.2363-2.2221 42.693-1.8762 36.121 0.3734 38.091 0.52441 41.675 3.1948 7.836 5.8388 7.1396 14.296-1.5973 19.399-3.4798 2.0323-8.5306 2.3868-38.949 2.7334-19.223 0.21906-36.752 0.0272-38.955-0.42648zm-54.071-42.55c-9.7402-3.753-15.967-9.5431-20.783-19.326-3.879-7.8794-4.1835-9.4296-3.6094-18.375 1.3685-21.324 15.265-35.242 36.577-36.634 8.1121-0.52986 10.574-0.13631 16.667 2.6643 10.298 4.7338 15.165 9.3967 19.949 19.114 3.8552 7.8312 4.1647 9.4056 3.5871 18.251-1.0292 15.762-7.7606 26.161-21.32 32.936-9.8572 4.9257-20.608 5.3997-31.067 1.3696zm152 0c-9.7402-3.753-15.967-9.5431-20.783-19.326-3.879-7.8794-4.1835-9.4296-3.6094-18.375 1.3685-21.324 15.265-35.242 36.577-36.634 8.1121-0.52986 10.574-0.13631 16.667 2.6643 10.298 4.7338 15.165 9.3967 19.949 19.114 3.8553 7.8312 4.1647 9.4056 3.5871 18.251-1.0292 15.762-7.7606 26.161-21.32 32.936-9.8572 4.9257-20.608 5.3997-31.067 1.3696zm-140.67 335.37v-30h64v60h-64zm0-89.333v-30h64v60h-64z" fill="#fff" stroke-width="1.3333"/>
</svg>
