<?xml version="1.0" encoding="UTF-8"?>
<svg width="666.67" height="666.67" version="1.1" viewBox="0 0 666.67 666.67" xmlns="http://www.w3.org/2000/svg">
 <rect width="666.67" height="666.67" fill="#1f2283"/>
 <path d="m85.891 600.04c-3.4897-1.4117-9.8323-8.8496-10.071-11.81-0.09907-1.2271-0.03592-116.23 0.14033-255.56 0.25398-200.79 0.67055-254.16 2.0083-257.33 0.92831-2.2 3.3135-5.5 5.3004-7.3333 2.9961-2.7645 4.9445-3.3333 11.418-3.3333 6.805 0 8.3248 0.498 11.862 3.8866 6.9241 6.6337 7.1692 8.9142 6.4705 60.192l-0.64109 47.049 34.144 33.121c18.779 18.216 37.893 36.653 42.475 40.969l8.3302 7.8488 40.336-10.888c22.185-5.9883 42.136-10.876 44.336-10.862 5.5191 0.0361 12.295 4.4759 14.763 9.6737 1.456 3.0656 3.7273 23.331 7.7247 68.923 3.1143 35.519 6.2285 64.783 6.9204 65.031 0.69194 0.24761 8.1581 4.3387 16.591 9.0912l15.333 8.641 8.7708-17.702c10.779-21.756 12.381-24.233 17.858-27.618 7.6088-4.7025 11.874-3.6687 43.715 10.595 19.592 8.7768 29.844 12.736 30.209 11.667 9.4108-27.575 70.781-212.15 70.781-212.88 0-0.57251-5.0632 0.122-11.252 1.5434-11.225 2.5783-11.266 2.578-17.385-0.1288-5.0205-2.2208-6.6356-3.8479-8.8994-8.9656-2.429-5.4912-2.5693-6.908-1.1522-11.638 3.0382-10.14 5.9986-11.639 37.133-18.798 29.932-6.8823 35.98-7.2314 42.085-2.4289 3.8329 3.015 35.048 41.903 37.673 46.934 5.7736 11.063-3.7146 25.412-16.804 25.412-6.423 0-11.254-3.1926-18.189-12.02-3.4821-4.4322-6.764-7.591-7.293-7.0194-1.3249 1.4315-11.042 29.65-47.942 139.22-17.444 51.799-32.413 95.481-33.264 97.071-2.2452 4.1952-9.321 8.0713-14.745 8.0771-3.1068 3e-3 -15.277-4.7406-35.893-13.991-17.156-7.6976-31.321-13.848-31.478-13.667-1.5677 1.8089-11.308 22.856-11.001 23.771 0.22335 0.6666 15.313 9.5184 33.533 19.671l33.127 18.459 20.206-6.2788c11.113-3.4533 33.693-10.635 50.178-15.959l29.972-9.6803-9.0775-8.1874c-6.6748-6.0203-9.339-9.4154-10.065-12.827-1.1505-5.4033 0.52232-12.914 3.6621-16.442 5.1159-5.7495 15.642-8.0186 21.831-4.7061 6.0903 3.2594 45.235 37.688 47.224 41.534 1.1675 2.2577 2.092 6.3279 2.0545 9.045-0.0775 5.6144-11.696 52.185-14.286 57.263-4.735 9.2838-14.803 12.919-23.868 8.618-9.659-4.5835-11.999-11.861-8.5303-26.532 1.3759-5.8196 2.3388-10.995 2.1397-11.5-0.19903-0.50542-6.6619 1.055-14.362 3.4676s-32.319 10.138-54.71 17.167c-22.39 7.0291-42.673 12.78-45.072 12.78-3.1589 0-14.886-5.8915-42.496-21.35-20.973-11.743-38.283-21.193-38.466-21-0.18296 0.19258-9.0317 18.173-19.664 39.957-21.649 44.356-22.624 45.627-34.259 44.688-3.3-0.26643-26.65-7.1755-51.89-15.354l-45.89-14.869-9.4438 8.601c-5.1941 4.7306-19.944 18.789-32.777 31.24l-23.333 22.639 214.47 0.0572c189.9 0.0507 214.95 0.29132 218.67 2.1013 6.5009 3.1628 9.5348 8.2399 9.5348 15.956s-3.034 12.793-9.5348 15.956c-3.7296 1.8145-31.284 2.0346-245.33 1.9596-132.62-0.04653-242.38-0.58976-243.91-1.2073zm71.442-100.2c17.967-17.244 34.15-32.362 35.963-33.595 1.8132-1.2337 5.4132-2.2404 8-2.2372 2.5868 3e-3 25.09 6.5669 50.006 14.586s45.456 14.427 45.643 14.24c1.4579-1.4579 29.729-61.472 29.41-62.431-0.22669-0.68007-10.899-7.0523-23.717-14.16-19.924-11.049-23.625-13.6-25.51-17.582-2.1554-4.5538-3.2653-15.025-9.9624-93.992-1.2439-14.667-2.3967-26.848-2.5618-27.07-0.16511-0.22192-15.921 3.8281-35.012 9-19.092 5.1719-36.59 9.4035-38.885 9.4035-6.381 0-10.291-2.7112-24.041-16.668-6.9667-7.0719-22.117-21.884-33.667-32.916l-21-20.058v316.88l6.3333-6.0213c3.4833-3.3117 21.033-20.13 39-37.373z" fill="#fff" stroke-width="1.3333"/>
</svg>
