<?xml version="1.0" encoding="UTF-8"?>
<svg width="666.67" height="666.67" version="1.1" viewBox="0 0 666.67 666.67" xmlns="http://www.w3.org/2000/svg">
 <rect width="666.67" height="666.67" fill="#1f2283"/>
 <path d="m146.67 568.15c-11.809-3.8406-21.81-12.185-26.834-22.389-2.5866-5.2536-3.1624-8.504-3.1471-17.764 0.016-9.6716 0.53671-12.311 3.5515-18 6.6578-12.564 18.803-21.38 31.53-22.888l6.7903-0.8042 17.519-33.487c9.6354-18.418 18.719-34.789 20.186-36.38 5.3312-5.7817 6.485-5.8587 82.009-5.4746l72.222 0.36734 4.1165 3.9446c8.3162 7.969 8.2919 18.831-0.0603 26.835l-4.0556 3.8866-130.58 1.3333-29.152 55.612 3.5866 6.8606c3.062 5.8573 3.5912 8.5181 3.6185 18.194 0.0259 9.1934-0.55025 12.515-3.0514 17.593-3.945 8.0092-12.019 16.072-19.99 19.961-6.6816 3.2604-21.917 4.6613-28.26 2.5984zm20.722-17.326c18.112-8.2272 20.087-32.538 3.5487-43.683-19.776-13.327-46.036 7.9527-36.874 29.881 2.7529 6.5886 6.8151 10.81 13.27 13.789 6.7618 3.1208 13.205 3.1252 20.055 0.0139zm275.29 13.494-5.341-5.3409v-201.65h-36.066c-39.396 0-40.485-0.18334-46.983-7.9058-4.4688-5.3109-5.6007-12.591-3.0714-19.755 1.7315-4.9044 35.045-57.709 110.83-175.67 10.836-16.867 21.727-34.029 24.202-38.138 6.7113-11.141 9.8052-13.536 18.404-14.249 7.1057-0.58926 7.5036-0.44072 12.677 4.7326l5.3409 5.341v201.65h36.066c39.396 0 40.485 0.18334 46.983 7.9058 4.4688 5.3109 5.6007 12.591 3.0714 19.755-1.645 4.6596-42.343 69.249-101.87 161.67-5.904 9.1667-16.326 25.607-23.159 36.533-17.052 27.265-18.742 29.053-28.198 29.837-7.3554 0.60997-7.6798 0.49127-12.886-4.7152zm-356.01-189.57c-11.476-3.5034-21.795-12.088-26.834-22.323-2.5865-5.2536-3.1624-8.504-3.1471-17.764 0.01596-9.6716 0.53671-12.311 3.5515-18 13.29-25.08 44.126-30.992 64.504-12.367 3.9192 3.582 7.4925 7.6676 7.9405 9.0791 0.79171 2.4945 3.3131 2.5765 89.98 2.9272l89.165 0.36082 4.1168 3.9446c8.3168 7.969 8.2922 18.832-0.0605 26.835l-4.0562 3.8866-176.49 0.76694-4 5.955c-4.6211 6.8797-12.791 13.166-20.769 15.981-5.8564 2.0663-18.259 2.4383-23.897 0.7169zm20.722-17.259c18.112-8.2272 20.087-32.538 3.5487-43.683-19.776-13.327-46.036 7.9527-36.874 29.881 2.7529 6.5886 6.8151 10.81 13.27 13.789 6.7618 3.1208 13.205 3.1252 20.055 0.0139zm93.09-109.37c-5.3072-3.26-3.3522-0.0517-25.208-41.366l-18.729-35.404-6.9692-1.003c-13.718-1.9741-26.417-11.086-32.407-23.252-2.5865-5.2536-3.1624-8.504-3.1471-17.764 0.016-9.6715 0.53671-12.311 3.5515-18 9.9162-18.713 30.235-27.417 49.706-21.293 9.387 2.9526 19.491 11.699 24.433 21.15 3.0374 5.8089 3.5657 8.4835 3.5929 18.192 0.0272 9.6723-0.48538 12.38-3.4129 18.029l-3.4448 6.6474 31.495 59.942 130.56 1.3333 4.0556 3.8866c8.3521 8.0041 8.3765 18.866 0.0601 26.835l-4.1166 3.9446-72.913 0.34716c-70.018 0.33339-73.08 0.24501-77.101-2.2252zm-35.757-95.961c18.112-8.2272 20.087-32.538 3.5487-43.683-19.776-13.327-46.036 7.9527-36.874 29.881 2.7529 6.5886 6.815 10.81 13.27 13.789 6.7618 3.1208 13.205 3.1252 20.055 0.0139z" fill="#fff" stroke-width="1.3333"/>
</svg>
