<?xml version="1.0" encoding="UTF-8"?>
<svg width="666.67" height="666.67" version="1.1" viewBox="0 0 666.67 666.67" xmlns="http://www.w3.org/2000/svg">
 <rect width="666.67" height="666.67" fill="#1f2283"/>
 <path d="m335.33 588.22c-3.5962-9.1662-3.7412-9.3266-7.1651-7.9262-1.922 0.78615-12.495 1.6951-23.495 2.0198-18.062 0.53323-21.384 0.2599-34.279-2.8202-14.428-3.4463-32.714-11.53-45.055-19.918-7.9231-5.3849-23.425-20.33-26.871-25.906-5.3289-8.6223 0.39695-19.002 10.482-19.002 3.9047 0 6.2013 1.5475 15.487 10.436 5.9963 5.7396 14.207 12.628 18.246 15.307 11.186 7.4212 28.5 13.87 42.111 15.685 10.906 1.4541 34.534 1.0286 36.215-0.65229 0.39156-0.39155-0.57371-4.2379-2.145-8.5474-3.0316-8.3144-3.5649-11.49-1.7402-10.362 0.93371 0.57707 55.73 10.134 58.105 10.134 0.42807 0 0.77829 0.56181 0.77829 1.2484 0 1.1161-31.263 43.454-35.35 47.872-1.3441 1.4532-2.3393 0.0384-5.3236-7.5683zm132.67 5.6276c-2.5667-0.30952-10.967-1.8091-18.667-3.3325-23.449-4.6391-38.435-10.698-48.134-19.461-7.9591-7.1906-9.1992-10.485-9.1992-24.443v-12.189l5.8362 6.005c11.293 11.62 39.589 21.848 68.831 24.88 29.828 3.0932 68.422 1.0652 90.667-4.7641 23.642-6.1955 34.206-11.575 43.072-21.933l4.9276-5.7568-5e-3 13.907c-4e-3 11.458-0.46499 14.661-2.6175 18.191-6.1913 10.154-24.968 19.396-51.378 25.288-12.861 2.8695-18.606 3.3275-46.667 3.7209-17.6 0.24678-34.1 0.19544-36.667-0.11413zm9.6208-40.613c-25.785-1.9805-48.967-7.4703-64.252-15.216-10.431-5.2856-14.542-8.6356-18.165-14.802-2.7477-4.6756-3.203-7.1749-3.203-17.58v-12.13l6.4664 6.2985c17.05 16.607 52.384 25.565 100.52 25.486 54.123-0.0892 89.072-10.574 104.3-31.291 1.7708-2.4094 1.9639-1.3419 2.0023 11.066 0.0477 15.462-1.0831 18.8-8.6054 25.405-13.518 11.869-41.954 20.056-79.352 22.846-19.566 1.4598-19.622 1.4596-39.712-0.0833zm-17.316-41.989c-34.917-5.089-58.854-15.615-66.597-29.286-2.5037-4.4206-3.0008-7.3226-3.0192-17.625-0.012-6.7833 0.42807-12.332 0.97807-12.329 0.55 3e-3 2.1158 1.6521 3.4795 3.6667 7.6013 11.229 25.735 19.299 59.521 26.489 16.18 3.4431 69.913 3.4656 87.333 0.0364 31.175-6.1364 47.346-13.158 58.33-25.327l4.9964-5.5355 4e-3 13.843c3e-3 11.555-0.44049 14.561-2.6838 18.191-7.849 12.7-32.306 22.918-66.817 27.915-17.485 2.5317-58.038 2.5122-75.524-0.0364zm-306.3-36.595c-14.729-1.5594-38.233-6.3837-49.593-10.179-21.882-7.3108-35.599-16.042-42.477-27.039-4.534-7.2485-4.5966-7.5534-4.5966-22.39 0-8.2729 0.45-15.029 1-15.013 0.55 0.0156 2.6143 2.3119 4.5874 5.1027 4.1649 5.8911 18.514 15.707 29.079 19.892 30.301 12.003 64.881 17.05 108.67 15.86 39.059-1.0621 66.141-5.515 88-14.469 14.65-6.0013 26.913-14.5 32.423-22.471 1.9672-2.8458 3.8768-5.1958 4.2434-5.222 0.36667-0.0263 0.64187 7.601 0.61155 16.949-0.0631 19.456-0.88972 21.894-10.397 30.657-14.398 13.271-46.456 23.874-85.548 28.294-13.472 1.5233-61.711 1.5413-76 0.0284zm326.67-2.1102c-49.64-5.0071-78.863-15.937-87.412-32.694-2.0065-3.9331-2.5881-7.8284-2.5881-17.334v-12.261l6.3333 6.5614c11.593 12.011 31.924 20.035 63.986 25.255 17.865 2.9085 67.054 2.1265 84.347-1.341 29.914-5.9982 48.372-14.521 56.184-25.944l3.1488-4.604 0.38482 13.177c0.44446 15.219-0.64272 18.76-7.7223 25.156-15.006 13.557-50.346 22.844-91.329 24.001-11 0.31049-22.4 0.32247-25.333 0.0265zm-8-41.921c-50.618-5.1237-84.851-22.336-81.367-40.91 2.6717-14.241 29.299-27.33 67.68-33.268 20.27-3.1359 56.436-3.1359 76.706 0 77.34 11.965 91.731 47.898 26.727 66.735-23.527 6.818-63.317 10.117-89.747 7.4421zm-301.33-6.1754c-41.856-3.4706-73.108-11.137-92.219-22.622-10.129-6.087-13.251-9.0768-17.91-17.155-3.6126-6.2629-3.8463-7.5752-3.8581-21.667-0.0069-8.25 0.45812-15 1.0333-15 0.57522 0 2.095 1.776 3.3772 3.9467 2.6713 4.5221 11.172 11.763 18.799 16.014 45.785 25.515 152.64 28.814 208.56 6.4382 15.223-6.091 27.487-14.733 33.209-23.399 1.0894-1.65 2.3617-2.9988 2.8274-2.9974 0.46565 1e-3 0.84528 7.3515 0.84358 16.333-3e-3 15.299-0.22829 16.714-3.5699 22.403-6.1336 10.442-22.221 20.05-45.374 27.099-27.816 8.4687-74.728 13.175-105.72 10.605zm-11.546-51.252c-49.303-4.7618-86.647-18.792-98.284-36.926-4.0864-6.3681-4.17-6.8238-4.17-22.715 0-8.9191 0.45-16.194 1-16.166 0.55 0.0279 2.5769 2.3332 4.5042 5.1229 9.385 13.585 39.455 26.399 75.829 32.314 35.525 5.7772 94.521 4.3397 122-2.9728 35.327-9.4008 45.238-14.237 58.667-28.627l6.6667-7.1442-0.0551 16.962c-0.0681 20.96-1.4437 24.222-14.356 34.047-26.496 20.159-93.704 31.717-151.8 26.106zm-11.787-53.189c-45.876-6.046-75.788-18.397-86.868-35.868-3.6635-5.7768-3.7967-6.5828-3.7558-22.728 0.03833-15.13 0.23313-16.483 2.0262-14.072 12.05 16.198 31.598 25.91 69.265 34.415l18.667 4.2146 44.667-0.0247c43.919-0.0241 44.946-0.0867 61.333-3.7325 37.929-8.4382 57.754-17.717 67.306-31.499 2.048-2.9552 4.092-5.3716 4.5422-5.3698 0.45027 1e-3 0.81867 7.6518 0.81867 17 0 15.483-0.27675 17.442-3.1086 21.996-7.7742 12.504-29.806 24.097-58.891 30.988-30.475 7.2204-81.201 9.2676-116 4.6814zm322.67-10.155c-2.5667-0.30952-10.967-1.8091-18.667-3.3325-23.449-4.6391-38.435-10.698-48.134-19.461-7.9591-7.1906-9.1992-10.485-9.1992-24.443v-12.189l5.8362 6.005c11.293 11.62 39.589 21.848 68.831 24.88 29.828 3.0932 68.422 1.0652 90.667-4.7641 23.642-6.1955 34.206-11.575 43.072-21.933l4.9276-5.7568-5e-3 13.907c-4e-3 11.458-0.46499 14.661-2.6175 18.191-6.1913 10.154-24.968 19.396-51.378 25.288-12.861 2.8695-18.605 3.3275-46.667 3.7209-17.6 0.24678-34.1 0.19544-36.667-0.11413zm-317.33-40.584c-55.419-5.965-96-25.695-96-46.674 0-28.085 67.995-51.345 142.67-48.804 53.204 1.8102 96.924 13.848 114.81 31.614 11.348 11.269 11.811 21.151 1.5087 32.166-13.005 13.903-36.416 23.172-75.579 29.924-14.399 2.4825-70.293 3.6176-87.411 1.7751zm326.95-0.0283c-25.785-1.9805-48.967-7.4703-64.252-15.216-10.431-5.2856-14.542-8.6356-18.165-14.802-2.7477-4.6756-3.203-7.1749-3.203-17.58v-12.13l6.4664 6.2985c17.05 16.607 52.384 25.565 100.52 25.486 54.123-0.0891 89.072-10.574 104.3-31.291 1.7708-2.4094 1.964-1.3419 2.0023 11.066 0.0477 15.462-1.0831 18.8-8.6054 25.405-13.518 11.869-41.954 20.056-79.352 22.846-19.566 1.4598-19.622 1.4596-39.712-0.0833zm-17.316-41.989c-34.917-5.089-58.854-15.615-66.597-29.286-2.5037-4.4206-3.0008-7.3226-3.0192-17.625-0.012-6.7833 0.42807-12.332 0.97807-12.329 0.55 3e-3 2.1158 1.6521 3.4795 3.6667 7.6013 11.229 25.735 19.299 59.521 26.489 16.18 3.4431 69.913 3.4656 87.333 0.0364 31.175-6.1364 47.346-13.158 58.33-25.327l4.9964-5.5355 4e-3 13.843c3e-3 11.555-0.4405 14.561-2.6838 18.191-7.849 12.7-32.306 22.918-66.817 27.915-17.485 2.5317-58.038 2.5122-75.524-0.0364zm20.362-38.706c-49.64-5.0071-78.863-15.937-87.412-32.694-2.0065-3.9331-2.5881-7.8284-2.5881-17.334v-12.261l6.3333 6.5614c11.593 12.011 31.924 20.035 63.986 25.255 17.865 2.9085 67.054 2.1265 84.347-1.341 29.914-5.9982 48.372-14.521 56.184-25.944l3.1488-4.604 0.38483 13.177c0.44445 15.219-0.64272 18.76-7.7223 25.156-15.006 13.557-50.346 22.844-91.329 24.001-11 0.31049-22.4 0.32247-25.333 0.0265zm-8-41.921c-40.699-4.1197-72.024-16.292-79.465-30.877-3.8489-7.5445-2.5786-13.101 4.6475-20.327 24.636-24.636 108.09-33.426 164.5-17.326 54.793 15.638 54.823 45.218 0.0605 61.088-23.527 6.818-63.317 10.117-89.747 7.4421zm-268-4.2286c-4.3068-2.47-5.9124-5.391-5.9576-10.838-0.0371-4.4731 0.98125-6.1814 8.1106-13.606 14.646-15.253 34.946-27.284 57.261-33.939 13.607-4.0578 45.426-5.2003 59.829-2.1482 5.4504 1.1549 10.019 1.9594 10.151 1.7876 0.1328-0.17178 1.9054-4.0623 3.9389-8.6457 2.0335-4.5833 4.0653-8.313 4.5152-8.2883 0.44986 0.02479 4.1179 4.9627 8.1513 10.973 4.0333 6.0104 11.683 17.144 17 24.742 5.3167 7.5976 9.6667 14.22 9.6667 14.717 0 1.0321-59.816 8.8184-60.729 7.9052-0.32912-0.32912 0.99913-4.3009 2.9517-8.8261 1.9525-4.5252 3.1013-8.6765 2.5528-9.225s-10.697-0.99263-22.553-0.98697c-22.572 0.0108-26.258 0.65744-42.294 7.4194-11.159 4.7054-20.993 11.369-31.599 21.413-10.166 9.627-14.594 11.219-20.996 7.5473z" fill="#fff" stroke-width="1.3333"/>
</svg>
