<?xml version="1.0" encoding="UTF-8"?>
<svg width="666.67" height="666.67" version="1.1" viewBox="0 0 666.67 666.67" xmlns="http://www.w3.org/2000/svg">
 <rect x="-.0016479" y="-.0016479" width="666.67" height="666.67" fill="#1f2283"/>
 <path d="m129.33 472.67v-75.333h205.33v-40.839l-4.6758-2.2297c-12.916-6.1591-13.402-27.007-0.78272-33.533 5.5236-2.8564 14.555-2.6055 19.727 0.54796 11.604 7.0754 11.083 26.506-0.87631 32.69l-4.059 2.099v41.265h196v150.67h-410.67zm393.33 0.66667v-57.333h-373.33v114.67h373.33zm-176.52-129.49c5.4584-6.0315 0.7511-16.287-7.4758-16.287-10.764 0-13.579 15.307-3.5008 19.035 3.691 1.3654 8.298 0.2121 10.977-2.7478zm-39.463-8.176c0.0165-7.1764 5.0358-18.068 10.41-22.591 2.2758-1.915 6.8616-4.522 10.191-5.7933l6.0526-2.3115v-44.971h-202.67v-150.67h410.67v150.67h-198.67v44.78l5.6667 1.5428c11.888 3.2366 22.292 16.915 22.32 29.344 0.0133 5.5084-0.108 5.6665-4.3203 5.6598-4.115-7e-3 -4.3486-0.27569-4.6367-5.3416-0.71998-12.66-10.607-21.796-23.279-21.511-7.6557 0.17248-12.835 2.5928-17.557 8.2053-3.691 4.3864-6.8365 13.723-5.6581 16.794 0.52613 1.3711-0.50224 1.8603-3.911 1.8603-4.5541 0-4.6246-0.0867-4.6118-5.6667zm217.32-150.33v-57.333h-373.33v114.67h373.33z" fill="#fff" stroke-width="1.3333"/>
</svg>
