<?xml version="1.0" encoding="UTF-8"?>
<svg width="666.67" height="666.67" version="1.1" viewBox="0 0 666.67 666.67" xmlns="http://www.w3.org/2000/svg">
 <rect x="-.0016479" y="-.0016479" width="666.67" height="666.67" fill="#1f2283"/>
 <path d="m239.33 569.82c-70.993-7.3859-117.16-25.668-129.7-51.367-2.8017-5.7382-3.0077-7.7205-2.6667-25.652l0.36964-19.433 5.4185 6.9853c15.188 19.58 52.11 34.486 107.25 43.296 25.829 4.1273 116.36 2.5461 127.33-2.224 1.4667-0.63757 8.0667-2.1467 14.667-3.3537 17.595-3.2176 47.934-12.572 50-15.416 0.36667-0.50481 2.1667-1.6919 4-2.638 10.286-5.3082 20.183-13.279 25.486-20.525l5.8473-7.9908 0.37793 20.585c0.45812 24.954-0.66 28.827-11.33 39.244-16.349 15.962-49.862 28.457-95.33 35.544-14.338 2.2346-25.223 2.832-57.052 3.1312-21.633 0.20334-41.733 0.12-44.667-0.18516zm4-65.324c-31.45-2.552-69.963-10.826-92.283-19.826-20.184-8.1387-35.171-19.834-41.622-32.479-2.4442-4.7911-2.756-7.7542-2.7141-25.799 0.04-17.251 0.30868-19.915 1.7472-17.324 2.9251 5.2701 13.219 15.158 21.148 20.314 7.6072 4.9467 27.8 13.866 40.415 17.851 11.569 3.6549 39.269 8.8255 57.976 10.822 36.423 3.8872 95.559 2.0111 128-4.0607 13.188-2.4684 35.323-8.2616 38.484-10.072 1.2004-0.68759 7.0322-3.2524 12.959-5.6995 16.096-6.6454 25.495-13.633 36.179-26.895l4.2886-5.3236 0.0317 20.667c0.0289 18.912-0.233 21.233-3.0866 27.333-7.7797 16.632-30.78 29.918-69.146 39.941-29.889 7.8081-50.119 10.197-90.376 10.674-19.433 0.22989-38.333 0.17455-42-0.12293zm6-63.929c-46.711-3.911-87.85-13.312-110.52-25.257-13.449-7.0858-21.582-13.846-27.813-23.116l-5.6667-8.4313 0.0784-20.879c0.0628-16.721 0.39468-20.369 1.6667-18.318 3.297 5.3164 10.985 13.145 16.845 17.155 3.342 2.2864 6.8038 4.8703 7.6929 5.742 4.1792 4.097 36.812 15.661 58.383 20.688 24.55 5.7221 40.844 7.0967 84.667 7.1428 27.139 0.0285 46.954-0.57964 56-1.7188 17.378-2.1883 41.547-6.7651 43.332-8.2054 0.73415-0.59257 5.8999-2.3496 11.479-3.9045 5.5795-1.5549 13.818-4.3196 18.307-6.1438 9.6003-3.9009 9.5486-3.8938 9.5486-1.3166 0 1.6711 2.7407 2 16.667 2h16.667l-0.0133 3.6667c-0.0229 6.4523-5.9192 16.817-13.18 23.169-18.647 16.312-54.978 28.65-103.47 35.14-15.104 2.0212-67.396 3.6985-80.667 2.5874zm-11.333-66.729c-69.461-6.9916-116.36-25.568-129.37-51.241-3.2051-6.325-3.349-7.5719-2.9979-25.978l0.36883-19.334 5.619 7.1984c9.0973 11.654 26.749 22.247 49.484 29.694 13.042 4.2722 44.572 11.446 61.564 14.007 11.706 1.7646 76.778 2.8191 90.667 1.4692l12.667-1.2311 14.073 13.79c7.7402 7.5848 14.487 13.79 14.993 13.79 0.50588 0 8.0984-6.3 16.872-14s16.427-13.99 17.007-13.978c0.58015 0.012 6.1548 2.0874 12.388 4.6113l11.333 4.5889 0.39463 6.4801c0.45104 7.4066 1.1379 6.8692-17.728 13.869-13.9 5.1572-33.584 9.8637-55.615 13.297-14.338 2.2346-25.223 2.832-57.052 3.1312-21.633 0.20335-41.733 0.12813-44.667-0.16712zm191.33-32.288v-18.454l-7.5898-1.6985c-4.1744-0.93419-13.163-4.5538-19.976-8.0436l-12.386-6.3451-15.024 13.81c-8.2634 7.5957-15.429 13.82-15.924 13.831-0.9959 0.0233-25.641-26.286-25.981-27.735-0.11747-0.50071 6.6021-7.1193 14.932-14.708l15.146-13.798-4.5786-8.9843c-2.5182-4.9413-5.6273-12.982-6.9089-17.869l-2.3303-8.8848h-40.714v-40h41.144l2.2104-7.6667c1.2158-4.2167 4.5721-12.167 7.4585-17.667l5.248-10-4.3638-3.8842c-2.4001-2.1363-8.4534-7.713-13.452-12.393l-9.0878-8.5084 9.2952-10.274c5.1124-5.6507 11.157-12.041 13.432-14.201l4.1369-3.9266 5.6557 5.2445c3.1107 2.8845 9.2688 8.6984 13.685 12.92l8.0291 7.6754 9.9709-5.2587c5.484-2.8923 13.721-6.2783 18.304-7.5245l8.3333-2.2658v-39.604h38.667v20c0 18.906 0.14148 20 2.5872 20 3.4817 0 20.737 6.2929 25.918 9.4523 5.5489 3.3836 7.7474 3.209 11.596-0.92105 1.7778-1.9078 7.9086-7.695 13.624-12.86l10.392-9.3916 4.0678 3.8604c2.2373 2.1232 8.2506 8.4837 13.363 14.134l9.2952 10.274-9.0878 8.5084c-4.9983 4.6796-11.079 10.26-13.514 12.401l-4.4259 3.8931 5.9886 11.324c3.2937 6.2285 6.9779 14.775 8.1872 18.991l2.1986 7.6667h41.144v40h-40.714l-2.3303 8.8848c-1.2817 4.8867-4.3863 12.919-6.8991 17.85l-4.5688 8.9649 14.474 13.15c7.9605 7.2326 14.376 13.56 14.256 14.061-0.34683 1.4508-24.99 27.758-25.985 27.74-0.49453-9e-3 -7.3344-5.9463-15.2-13.194l-14.3-13.178-12.366 6.3263c-6.8014 3.4794-15.516 7.1302-19.366 8.1129l-7 1.7866v36.829h-38.667zm41.475-69.296c10.814-5.1625 20.154-14.482 25.598-25.54 3.9472-8.018 4.2563-9.6329 4.2127-22.014-0.0379-10.74-0.6485-14.874-3.113-21.074-3.7406-9.4098-14.765-21.729-23.734-26.523-26.908-14.381-60.665-3.4276-74.107 24.047-4.0542 8.2867-4.3318 9.7551-4.3208 22.856 0.0107 12.387 0.4245 14.884 3.5945 21.67 6.7863 14.528 21.119 26.37 36.658 30.287 2.7878 0.70276 9.9325 1.0716 15.877 0.81958 8.6919-0.36842 12.478-1.2551 19.333-4.5279zm-235.48 35.645c-48.317-4.6948-89.989-16.893-111.4-32.608-43.218-31.725-6.6628-69.214 81.796-83.888 34.177-5.6692 69.163-7.3448 100.27-4.8022l12 0.98091-28.667 0.42248v69.333h44.978l3.5344 9.6667c1.9439 5.3167 3.6738 10.197 3.8442 10.846 0.29704 1.1302-20.095 19.941-29.583 27.29l-4.5593 3.5312-30.107 0.19677c-16.559 0.10823-35.507-0.32791-42.107-0.96921z" fill="#fff" stroke-width="1.3333"/>
</svg>
