<?xml version="1.0" encoding="UTF-8"?>
<svg width="666.67" height="666.67" version="1.1" viewBox="0 0 666.67 666.67" xmlns="http://www.w3.org/2000/svg">
 <rect x="-.0016479" y="-.0016479" width="666.67" height="666.67" fill="#1f2283"/>
 <path d="m74.667 575.61c0-10.444 0.74365-19.242 2.0507-24.26 5.5816-21.429 23.874-39.722 45.303-45.303 11.046-2.8772 54.246-2.8772 65.292 0 21.312 5.5511 39.752 23.991 45.303 45.303 1.307 5.018 2.0507 13.815 2.0507 24.26v16.387h-160zm178.67 0c0-18.762 2.0359-28.523 8.1945-39.287 8.2678-14.451 23.441-26.182 39.159-30.276 11.046-2.8772 54.246-2.8772 65.292 0 21.312 5.5511 39.752 23.991 45.303 45.303 1.307 5.018 2.0507 13.815 2.0507 24.26v16.387h-160zm178.67 0.66666c0-9.8443 0.76648-18.663 2.0507-23.593 5.5816-21.429 23.874-39.722 45.303-45.303 11.046-2.8772 54.246-2.8772 65.292 0 21.312 5.551 39.752 23.991 45.303 45.303 1.2842 4.9304 2.0507 13.749 2.0507 23.593v15.72h-160zm68.957-96.323c-24.131-6.0589-39.237-30.03-34.226-54.312 2.1062-10.206 5.5673-16.68 12.766-23.878 9.2296-9.2296 18.703-13.036 32.532-13.071 10.185-0.0259 12.285 0.42573 20.277 4.3605 10.191 5.0172 17.03 12.096 22.165 22.944 4.9891 10.539 4.9835 26.749-0.0133 37.493-7.5376 16.209-22.37 26.472-39.446 27.295-4.9566 0.23887-11.281-0.13553-14.055-0.83201zm-357.33-1.3333c-24.131-6.0589-39.237-30.03-34.226-54.312 2.1062-10.206 5.5673-16.68 12.766-23.878 9.2296-9.2296 18.703-13.036 32.532-13.071 10.185-0.0259 12.285 0.42574 20.277 4.3605 10.191 5.0172 17.03 12.096 22.165 22.944 4.9891 10.539 4.9835 26.749-0.0133 37.493-7.5376 16.209-22.37 26.472-39.446 27.295-4.9566 0.23886-11.281-0.13554-14.055-0.83202zm178.67 0c-24.131-6.0589-39.237-30.03-34.226-54.312 2.1062-10.206 5.5673-16.68 12.766-23.878 9.2296-9.2296 18.703-13.036 32.532-13.071 10.185-0.0259 12.285 0.42574 20.277 4.3605 10.191 5.0172 17.03 12.096 22.165 22.944 4.9891 10.539 4.9835 26.749-0.0133 37.493-7.5377 16.209-22.37 26.472-39.446 27.295-4.9566 0.23886-11.281-0.13554-14.055-0.83202zm-6.29-169.29c0-3.9596-0.0741-4-7.3333-4h-7.3333v-9.3333h68.177l-0.4219 3.6667c-0.38525 3.3482-1.0008 3.7246-7.0886 4.3333-6.3859 0.63859-6.6843 0.84917-7.0845 5l-0.41781 4.3333h-38.498zm-16.524-22.109c-2.2972-5.9863-2.8799-5.891 36-5.891 33.017 0 36.726 0.21726 36 2.1091-0.44513 1.16-0.80932 2.96-0.80932 4 0 1.5846-5.7009 1.8909-35.191 1.8909-30.859 0-35.29-0.25958-36-2.109zm-4.5527-25.1c-4.6046-18.843-17.385-47.442-28.552-63.891-9.7653-14.384-15.704-32.877-15.704-48.9 0-26.344 13.958-53.4 35.506-68.822 50.437-36.099 120.63-8.7891 133.05 51.766 4.8791 23.785 0.612 43.934-14.484 68.39-12.333 19.981-27.233 53.524-30.65 69l-0.80942 3.6667h-75.62z" fill="#fff" stroke-width="1.3333"/>
</svg>
