<?xml version="1.0" encoding="UTF-8"?>
<svg width="666.67" height="666.67" version="1.1" viewBox="0 0 666.67 666.67" xmlns="http://www.w3.org/2000/svg">
 <rect width="666.67" height="666.67" fill="#1f2283"/>
 <path d="m418.67 452.67v-51.333h114.67v102.67h-114.67zm-348 38.918c0-15.125 1.6305-16.918 15.385-16.918h9.9481v-7.3333c0-12.427 0.57934-12.667 30.667-12.667h25.333l8e-3 -88.333c5e-3 -55.455 0.50949-90.141 1.3563-93.19 2.188-7.8773 61.708-76.302 70.004-80.477 5.0175-2.5252 8.1827-2.6777 59.657-2.8746l54.358-0.20799 50.799-29.624 10.909 6.0266c39.091 21.596 46.9 26.603 47.331 30.347l0.42189 3.6667h-61.51v41.333h61.51l-0.42189 3.6655c-0.37353 3.2453-3.5554 5.4686-27.755 19.394-15.033 8.6506-28.002 16.034-28.818 16.407-0.81667 0.37345-12.929-5.9949-26.917-14.152-23.285-13.579-25.692-14.689-28.515-13.143-2.1957 1.2018-14.477 1.8997-42.667 2.4247l-39.583 0.7372-33.496 38.667-1e-3 79.587-1e-3 79.587 25.936 0.41256c18.326 0.2915 26.419 0.89582 27.58 2.0594 0.90403 0.90576 1.9047 5.2558 2.2238 9.6667l0.5801 8.0198h9.9004c8.7337 0 10.286 0.38566 13.173 3.2727 2.9324 2.9324 3.2727 4.3883 3.2727 14v10.727h-230.67v-11.082zm119.81-190.82c2.0208-1.045 4.391-3.4732 5.2671-5.3961 4.7302-10.382-1.8212-20.704-13.141-20.704-2.9982 0-5.4964 1.2968-8.7329 4.5333-6.3072 6.3072-6.3072 12.626 0 18.933 5.0504 5.0504 10.317 5.8856 16.607 2.6333zm60.527-68.784c4.179-4.5867 4.7416-10.036 1.6529-16.009-2.5466-4.9245-5.7572-6.64-12.427-6.64-4.3781 0-5.9916 0.80716-9.421 4.7131-4.6067 5.2467-5.1631 9.4373-2.0518 15.454 4.3485 8.409 15.694 9.6748 22.247 2.4821zm303.57 186.31c-1.1519-0.89335-4.0188-5.2491-6.3708-9.6795-11.602-21.854-30.466-36.549-54.86-42.736-11.327-2.8729-31.832-1.9695-44.008 1.9388-18.532 5.9484-35.447 19.579-46.137 37.179-3.0088 4.9536-7.0313 9.8942-8.9389 10.979-3.1716 1.8038-3.7873 1.7355-7.1961-0.79853-4.9326-3.6668-5.2684-8.2047-1.2011-16.231 11.503-22.701 36.313-42.305 63.085-49.848 14.642-4.1256 36.885-4.1017 51.647 0.0556 20.267 5.7075 38.079 17.084 51.383 32.818 7.6893 9.094 16.026 24.271 16.026 29.174 0 6.6085-8.3748 11.067-13.428 7.1479zm-200.99-7.6762c-3.8148-3.554-3.6404-6.7528 0.95536-17.524 11.326-26.546 36.218-52.121 63.213-64.95 42.146-20.029 89.747-16.868 129.15 8.5759 18.814 12.15 40.143 37.171 47.831 56.113 3.4008 8.379 2.4413 12.753-3.3795 15.405-5.4905 2.5016-9.0807-0.22608-14.602-11.094-17.064-33.588-44.35-54.511-80.694-61.875-14.541-2.9463-37.749-2.0559-51.81 1.9878-32.582 9.3701-61.394 34.455-73.601 64.081-4.8476 11.765-10.875 15.044-17.061 9.2814z" fill="#fff" stroke-width="1.3333"/>
</svg>
