<?xml version="1.0" encoding="UTF-8"?>
<svg width="666.67" height="666.67" version="1.1" viewBox="0 0 666.67 666.67" xmlns="http://www.w3.org/2000/svg">
 <rect width="666.67" height="666.67" fill="#1f2283"/>
 <path d="m489.79 578.1c-1.5824-1.145-13.187-16.26-25.788-33.588l-22.911-31.507 0.80703-6.1706c0.44388-3.3938 0.92712-7.3706 1.0739-8.8373 0.16567-1.6556-14.557-22.958-38.83-56.185l-39.097-53.519-12.703 5.3078c-6.9867 2.9193-18.472 6.8557-25.522 8.7476-11.682 3.1345-15.127 3.4424-38.819 3.4691-23.949 0.0271-27.022-0.24708-38.961-3.4757-27.463-7.4268-48.729-18.364-68.1-35.024-34.253-29.459-54.561-71.208-56.555-116.26-2.1392-48.341 14.376-91.118 48.262-125 24.424-24.424 53.658-39.363 89.172-45.569 17.633-3.0809 47.66-1.8766 64.961 2.6052 48.406 12.54 86.248 42.684 107.9 85.946 18.318 36.608 22.38 79.887 11.151 118.81-7.8965 27.372-21.2 50.012-41.333 70.339l-12.172 12.289 78.267 107.34 6.5674 0.0952c4.4564 0.0647 7.4587 0.90178 9.3401 2.6044 1.525 1.3801 12.823 16.353 25.108 33.274 28.697 39.528 28.651 39.105 6.113 55.823-10.625 7.8815-13.825 9.5783-18.92 10.03-4.1645 0.36946-7.0549-0.124-9.0088-1.5379zm-178.3-192.17c52.235-9.109 93.992-43.17 112.13-91.467 7.3308-19.517 9.0631-29.832 8.924-53.136-0.10574-17.691-0.61398-22.505-3.5303-33.432-7.2893-27.312-19.32-48.725-37.998-67.63-44.801-45.346-115.32-55.736-172.35-25.392-74.489 39.634-98.697 137.87-51.478 208.9 31.019 46.66 89.27 71.75 144.3 62.154zm-88.944-39.394c-2.5085-2.5085-2.7427-4.0273-2.3129-15 0.45156-11.528 0.83776-12.915 6.9246-24.876 3.5455-6.9667 7.8226-14.493 9.5047-16.725l3.0583-4.0588-3.1236-7.2745c-1.718-4.001-3.7859-10.372-4.5954-14.158-1.3432-6.2815-1.9344-7.0684-6.7618-9-6.313-2.526-20.572-2.7506-25.223-0.39737-1.8262 0.92397-5.4846 5.2651-8.1298 9.647-4.2894 7.1056-5.3273 8.0113-9.5992 8.3761-3.9083 0.33375-5.1998-0.21661-7.0172-2.9903-2.7983-4.2707-1.8953-8.1887 4.0178-17.432 5.2778-8.2505 11.338-13.166 18.716-15.181 6.6304-1.8111 22.006-1.9102 26.58-0.17137 4.0211 1.5288 4.209 0.41479 2.1302-12.634-1.0894-6.8378-2.0275-8.6779-6.4579-12.667-2.8509-2.5667-7.9192-6.0315-11.263-7.6995-5.2918-2.6399-6.8599-2.858-12.102-1.6832-3.3123 0.7423-7.434 1.9928-9.1593 2.7789-7.1639 3.2641-13.995-4.026-10.651-11.366 1.8997-4.1695 14.738-8.9976 24.256-9.1222 8.1693-0.10693 16.244 3.3629 27.088 11.641 3.4031 2.5976 7.0505 4.3918 8.1053 3.9871 2.3183-0.88962 7.3282-8.4614 10.735-16.224 2.4758-5.6418 2.4733-5.7125-0.29996-8.6667-8.0678-8.594-10.415-23.165-5.437-33.754 3.4536-7.3472 7.5195-10.349 12.369-9.1317 6.0637 1.5219 7.9452 8.5277 3.9342 14.649-2.823 4.3085-1.7163 13.296 2.1082 17.121 2.6528 2.6528 4.1688 2.8043 28.064 2.8043s25.411-0.15148 28.064-2.8043c3.8245-3.8245 4.9312-12.812 2.1082-17.121-4.011-6.1215-2.1295-13.127 3.9342-14.649 4.8498-1.2172 8.9157 1.7844 12.369 9.1317 4.9778 10.59 2.6308 25.16-5.437 33.754-2.7733 2.9542-2.7757 3.0249-0.29996 8.6667 3.4065 7.7626 8.4164 15.334 10.735 16.224 1.0548 0.40477 4.7022-1.3894 8.1053-3.9871 10.845-8.2779 18.919-11.748 27.088-11.641 9.5185 0.12454 22.357 4.9526 24.256 9.1222 3.3444 7.3401-3.487 14.63-10.651 11.366-1.7253-0.78609-5.847-2.0366-9.1593-2.7789-5.242-1.1748-6.8102-0.95666-12.102 1.6832-3.3438 1.6681-8.4121 5.1329-11.263 7.6995-4.4304 3.9887-5.3685 5.8288-6.4579 12.667-2.0788 13.048-1.891 14.162 2.1302 12.634 4.5736-1.7389 19.95-1.6398 26.58 0.17137 7.3779 2.0153 13.438 6.9308 18.716 15.181 5.9131 9.2436 6.8161 13.162 4.0178 17.432-1.8174 2.7737-3.1089 3.324-7.0172 2.9903-4.272-0.3648-5.3099-1.2705-9.5992-8.3761-2.6452-4.3819-6.3036-8.723-8.1298-9.647-4.6512-2.3532-18.91-2.1286-25.223 0.39737-4.8275 1.9316-5.4187 2.7185-6.7618 9-0.80952 3.7859-2.8775 10.157-4.5954 14.158l-3.1236 7.2745 3.0583 4.0588c1.6821 2.2323 5.9592 9.7588 9.5047 16.725 6.0869 11.96 6.4731 13.348 6.9246 24.876 0.42981 10.973 0.19562 12.491-2.3129 15-3.239 3.239-7.8462 3.5974-11.536 0.89744-2.1522-1.5747-2.5299-3.2696-2.242-10.062 0.27875-6.5774-0.43491-10.039-3.6644-17.773-2.2058-5.2826-5.2396-11.615-6.7417-14.073l-2.7312-4.4679-7.2676 6.8734c-19.881 18.803-42.668 18.803-62.549 0l-7.2676-6.8734-2.7312 4.4679c-1.5021 2.4573-4.5359 8.79-6.7417 14.073-3.2295 7.7342-3.9432 11.196-3.6644 17.773 0.28787 6.7923-0.0897 8.4871-2.242 10.062-3.6901 2.6999-8.2973 2.3415-11.536-0.89744zm56.124-85.209v-41.333h-34.667v5.1012c0 8.1483 3.854 33.621 6.1879 40.899 3.787 11.808 9.9888 21.876 18.104 29.389 4.3232 4.0025 8.4262 7.2773 9.1177 7.2773 0.76052 0 1.2573-16.332 1.2573-41.333zm29.042 34.056c8.1149-7.5129 14.317-17.581 18.104-29.389 2.3339-7.2775 6.1879-32.75 6.1879-40.899v-5.1012h-34.667v41.333c0 25.001 0.49682 41.333 1.2573 41.333 0.69153 0 4.7945-3.2748 9.1177-7.2773zm6.648-101.72-4.0964-9h-44.52l-8.1928 18h60.906z" fill="#fff" stroke-width="1.3333"/>
</svg>
