<?xml version="1.0" encoding="UTF-8"?>
<svg width="533.33" height="533.33" version="1.1" viewBox="0 0 533.33 533.33" xmlns="http://www.w3.org/2000/svg">
 <path d="m84.112 457.83c-8.0152-2.8426-15.829-10.181-20.099-18.878l-3.7479-7.6323-0.38106-65.676c-0.44881-77.353-0.91783-73.838 15.253-114.32 11.772-29.473 23.421-53.279 37.514-76.667 5.5238-9.1667 13.328-22.353 17.343-29.302 10.222-17.694 19.093-29.576 38.267-51.256 17.919-20.261 27.651-25.216 33.907-17.263 4.1398 5.2629 3.4606 9.0598-4.4975 25.145-13.676 27.641-25.437 68.174-38.069 131.2l-6.309 31.478 36.819 0.66667c34.912 0.63212 37.109 0.82152 42.411 3.6555 7.3065 3.9054 14.251 11.16 18.035 18.841l3.0397 6.1697v137.33l-3.7479 7.6323c-4.3991 8.9584-12.133 16.062-20.645 18.962-8.7583 2.9842-136.65 2.9103-145.09-0.0839zm220 0c-8.0152-2.8426-15.829-10.181-20.099-18.878l-3.7479-7.6323-0.38106-65.676c-0.44882-77.353-0.91783-73.838 15.253-114.32 11.772-29.473 23.421-53.279 37.514-76.667 5.5238-9.1667 13.328-22.353 17.343-29.302 10.222-17.694 19.093-29.576 38.267-51.256 17.919-20.261 27.651-25.216 33.907-17.263 4.1398 5.2629 3.4606 9.0598-4.4975 25.145-13.676 27.641-25.437 68.174-38.069 131.2l-6.309 31.478 36.819 0.66667c34.912 0.63212 37.109 0.82152 42.411 3.6555 7.3065 3.9054 14.251 11.16 18.035 18.841l3.0397 6.1697v137.33l-3.7479 7.6323c-4.3991 8.9584-12.133 16.062-20.645 18.962-8.7583 2.9842-136.65 2.9103-145.09-0.0839z" fill="#fff" stroke-width="1.3333"/>
</svg>
