<?xml version="1.0" encoding="UTF-8"?>
<svg width="533.33" height="533.33" version="1.1" viewBox="0 0 533.33 533.33" xmlns="http://www.w3.org/2000/svg">
 <path d="m234.24 481.27c-12.934-2.001-37.247-8.8068-51.829-14.508-73.577-28.767-127.95-99.707-137.16-178.96-2.5126-21.613-1.0435-53.121 3.3795-72.476 19.714-86.272 81.217-148.92 166.71-169.82 22.367-5.468 56.009-7.2102 78.904-4.0861 73.916 10.086 137.17 55.782 170.1 122.89 8.0341 16.372 12.771 30.08 17.861 51.686 4.0997 17.403 5.7233 53.86 3.2362 72.667-6.3805 48.247-28.348 93.938-60.883 126.63-33.232 33.394-70.027 53.657-115.21 63.45-11.46 2.4836-18.838 3.0969-40.667 3.3804-14.667 0.19047-30.159-0.19407-34.428-0.85451zm-83.805-133.98 21.183-11.372 10.525 3.2328c13.827 4.247 15.495 4.5991 32.254 6.8064 12.172 1.6032 16.428 1.611 28.938 0.0528 29.495-3.674 47.211-9.8346 65.459-22.763 17.776-12.594 28.778-29.064 31.453-47.085 1.6933-11.409-1.1997-27.921-6.6825-38.142-11.001-20.507-39.336-38.199-72.896-45.518-21.526-4.6939-57.446-3.2776-77.333 3.0492-19.284 6.1348-39.717 17.974-49.271 28.55-6.5414 7.2406-15.038 25.105-16.86 35.45-3.0448 17.286 3.1907 36.181 16.785 50.865l7.7477 8.3684-5.0848 13.605c-2.7966 7.4827-6.187 15.831-7.5342 18.552-2.7413 5.5366-3.0687 7.7198-1.1575 7.7198 0.7105 0 10.824-5.1175 22.475-11.372zm248.65-36.888c-3.1652-11.143-5.7548-20.961-5.7548-21.818 0-0.85649 2.9606-5.5679 6.5792-10.47 16.029-21.714 17.069-50.664 2.6377-73.421-22.276-35.126-75.401-50.944-122.4-36.445-11.043 3.407-20.329 7.7144-19.505 9.0477 0.34526 0.55867 3.179 1.4237 6.2973 1.9224 11.217 1.7936 37.295 10.052 44.106 13.967 15.378 8.8403 33.914 28.98 43.418 47.175 4.7224 9.0411 4.861 9.7157 4.6855 22.809-0.20794 15.518-3.095 28.652-8.6523 39.364-2.0972 4.0422-3.3359 7.8265-2.7527 8.4097 0.58318 0.58319 4.8494-0.4246 9.4806-2.2395 9.9096-3.8836 7.9741-4.5922 29.231 10.703 8.5477 6.1504 16.181 11.199 16.963 11.219 0.80992 0.0209-1.0544-8.6797-4.3333-20.224z" fill="#fff" stroke-width="1.3333"/>
</svg>
