<?xml version="1.0" encoding="UTF-8"?>
<svg width="533.33" height="533.33" version="1.1" viewBox="0 0 533.33 533.33" xmlns="http://www.w3.org/2000/svg">
 <path d="m428.63 488.64c-4.7551-2.3978-15.265-13.839-52.361-57-25.526-29.7-58.628-68.179-73.56-85.508l-27.149-31.508-14.236 5.722c-9.1041 3.6592-18.355 6.3066-25.66 7.3436-14.112 2.0032-41.32 1.0397-54.916-1.9446-28.369-6.2271-58.904-24.727-78.068-47.297-9.9821-11.757-22.398-33.641-26.555-46.808-7.5912-24.04-9.5156-53.709-4.8517-74.797 6.2979-28.476 17.91-50.531 37.301-70.845 19.896-20.843 41.956-33.801 70.106-41.181 10.411-2.7294 15.001-3.1376 34.667-3.0836 20.202 0.05544 24.084 0.44501 35.703 3.5831 42.74 11.543 79.323 43.222 96.243 83.34 8.5017 20.158 10.685 31.692 10.663 56.316-0.0167 18.098-0.53042 24.01-2.897 33.333-5.4045 21.291-15.112 40.933-28.433 57.531-3.6666 4.5686-6.5043 8.7718-6.3061 9.3405s32.16 38.003 71.027 83.188 71.692 84.056 72.944 86.38c2.5923 4.8105 3.0715 14.913 0.97106 20.473-3.2374 8.5684-14.59 16.333-23.966 16.391-2.5946 0.0161-7.3946-1.3207-10.667-2.9707zm-189.19-214.65c27.11-9.8402 45.721-25.671 56.388-47.962 7.6542-15.996 9.4758-23.913 9.4463-41.056-0.0289-16.797-2.4281-26.879-10.153-42.667-4.4712-9.138-7.763-13.529-16.993-22.667-12.646-12.52-23.39-19-40.114-24.192-14.734-4.5744-37.695-4.3052-52.667 0.61762-15.427 5.0726-26.535 12.051-38.761 24.35-17.845 17.953-26.608 39.085-26.494 63.892 0.12476 27.252 8.4111 47.348 27.3 66.207 9.6386 9.6234 13.641 12.552 24.09 17.629 21.744 10.564 48.6 12.875 67.958 5.8487z" fill="#fff" stroke-width="1.3333"/>
</svg>
